<?xml version="1.0" encoding="utf-8" standalone="no"?>
<!DOCTYPE svg PUBLIC "-//W3C//DTD SVG 1.1//EN"
  "http://www.w3.org/Graphics/SVG/1.1/DTD/svg11.dtd">
<!-- Created with matplotlib (https://matplotlib.org/) -->
<svg height="369.783975pt" version="1.1" viewBox="0 0 556.538937 369.783975" width="556.538937pt" xmlns="http://www.w3.org/2000/svg" xmlns:xlink="http://www.w3.org/1999/xlink">
 <defs>
  <style type="text/css">
*{stroke-linecap:butt;stroke-linejoin:round;}
  </style>
 </defs>
 <g id="figure_1">
  <g id="patch_1">
   <path d="M 0 369.783975 
L 556.538937 369.783975 
L 556.538937 0 
L 0 0 
z
" style="fill:#ffffff;"/>
  </g>
  <g id="axes_1">
   <g id="patch_2">
    <path d="M 52.160938 332.227725 
L 549.338938 332.227725 
L 549.338938 22.318125 
L 52.160938 22.318125 
z
" style="fill:#ffffff;"/>
   </g>
   <g id="PathCollection_1">
    <defs>
     <path d="M 0 0.707107 
C 0.187527 0.707107 0.367398 0.632602 0.5 0.5 
C 0.632602 0.367398 0.707107 0.187527 0.707107 0 
C 0.707107 -0.187527 0.632602 -0.367398 0.5 -0.5 
C 0.367398 -0.632602 0.187527 -0.707107 0 -0.707107 
C -0.187527 -0.707107 -0.367398 -0.632602 -0.5 -0.5 
C -0.632602 -0.367398 -0.707107 -0.187527 -0.707107 0 
C -0.707107 0.187527 -0.632602 0.367398 -0.5 0.5 
C -0.367398 0.632602 -0.187527 0.707107 0 0.707107 
z
" id="m778e9e9549" style="stroke:#1f77b4;"/>
    </defs>
    <g clip-path="url(#pd8e5ca2e17)">
     <use style="fill:#1f77b4;stroke:#1f77b4;" x="488.81857" xlink:href="#m778e9e9549" y="215.860159"/>
     <use style="fill:#1f77b4;stroke:#1f77b4;" x="213.820679" xlink:href="#m778e9e9549" y="113.821769"/>
     <use style="fill:#1f77b4;stroke:#1f77b4;" x="446.694754" xlink:href="#m778e9e9549" y="197.953781"/>
     <use style="fill:#1f77b4;stroke:#1f77b4;" x="254.686975" xlink:href="#m778e9e9549" y="98.316292"/>
     <use style="fill:#1f77b4;stroke:#1f77b4;" x="482.081667" xlink:href="#m778e9e9549" y="224.227416"/>
     <use style="fill:#1f77b4;stroke:#1f77b4;" x="194.724755" xlink:href="#m778e9e9549" y="123.409946"/>
     <use style="fill:#1f77b4;stroke:#1f77b4;" x="424.812422" xlink:href="#m778e9e9549" y="179.904749"/>
     <use style="fill:#1f77b4;stroke:#1f77b4;" x="295.878842" xlink:href="#m778e9e9549" y="89.790074"/>
     <use style="fill:#1f77b4;stroke:#1f77b4;" x="501.540376" xlink:href="#m778e9e9549" y="234.96159"/>
     <use style="fill:#1f77b4;stroke:#1f77b4;" x="170.227006" xlink:href="#m778e9e9549" y="137.131919"/>
     <use style="fill:#1f77b4;stroke:#1f77b4;" x="393.495859" xlink:href="#m778e9e9549" y="154.997358"/>
     <use style="fill:#1f77b4;stroke:#1f77b4;" x="352.722993" xlink:href="#m778e9e9549" y="94.829194"/>
     <use style="fill:#1f77b4;stroke:#1f77b4;" x="490.039993" xlink:href="#m778e9e9549" y="218.671494"/>
     <use style="fill:#1f77b4;stroke:#1f77b4;" x="207.404592" xlink:href="#m778e9e9549" y="116.875089"/>
     <use style="fill:#1f77b4;stroke:#1f77b4;" x="439.726407" xlink:href="#m778e9e9549" y="192.262422"/>
     <use style="fill:#1f77b4;stroke:#1f77b4;" x="267.67591" xlink:href="#m778e9e9549" y="94.766851"/>
     <use style="fill:#1f77b4;stroke:#1f77b4;" x="490.182274" xlink:href="#m778e9e9549" y="229.264597"/>
     <use style="fill:#1f77b4;stroke:#1f77b4;" x="183.228799" xlink:href="#m778e9e9549" y="129.643885"/>
     <use style="fill:#1f77b4;stroke:#1f77b4;" x="410.585201" xlink:href="#m778e9e9549" y="168.252948"/>
     <use style="fill:#1f77b4;stroke:#1f77b4;" x="322.470817" xlink:href="#m778e9e9549" y="89.163982"/>
     <use style="fill:#1f77b4;stroke:#1f77b4;" x="502.969255" xlink:href="#m778e9e9549" y="233.283367"/>
     <use style="fill:#1f77b4;stroke:#1f77b4;" x="174.05708" xlink:href="#m778e9e9549" y="134.84229"/>
     <use style="fill:#1f77b4;stroke:#1f77b4;" x="398.721297" xlink:href="#m778e9e9549" y="158.929808"/>
     <use style="fill:#1f77b4;stroke:#1f77b4;" x="343.748276" xlink:href="#m778e9e9549" y="92.307057"/>
     <use style="fill:#1f77b4;stroke:#1f77b4;" x="495.796065" xlink:href="#m778e9e9549" y="224.971129"/>
     <use style="fill:#1f77b4;stroke:#1f77b4;" x="193.027439" xlink:href="#m778e9e9549" y="124.200513"/>
     <use style="fill:#1f77b4;stroke:#1f77b4;" x="423.008175" xlink:href="#m778e9e9549" y="178.417472"/>
     <use style="fill:#1f77b4;stroke:#1f77b4;" x="299.273136" xlink:href="#m778e9e9549" y="89.470175"/>
     <use style="fill:#1f77b4;stroke:#1f77b4;" x="502.270455" xlink:href="#m778e9e9549" y="235.159915"/>
     <use style="fill:#1f77b4;stroke:#1f77b4;" x="169.774385" xlink:href="#m778e9e9549" y="137.397991"/>
     <use style="fill:#1f77b4;stroke:#1f77b4;" x="392.888625" xlink:href="#m778e9e9549" y="154.548903"/>
     <use style="fill:#1f77b4;stroke:#1f77b4;" x="353.746467" xlink:href="#m778e9e9549" y="95.167436"/>
     <use style="fill:#1f77b4;stroke:#1f77b4;" x="489.268051" xlink:href="#m778e9e9549" y="217.818395"/>
     <use style="fill:#1f77b4;stroke:#1f77b4;" x="209.351553" xlink:href="#m778e9e9549" y="115.936358"/>
     <use style="fill:#1f77b4;stroke:#1f77b4;" x="441.868798" xlink:href="#m778e9e9549" y="194.021313"/>
     <use style="fill:#1f77b4;stroke:#1f77b4;" x="263.661735" xlink:href="#m778e9e9549" y="95.784402"/>
     <use style="fill:#1f77b4;stroke:#1f77b4;" x="487.859998" xlink:href="#m778e9e9549" y="227.874409"/>
     <use style="fill:#1f77b4;stroke:#1f77b4;" x="186.401515" xlink:href="#m778e9e9549" y="127.884413"/>
     <use style="fill:#1f77b4;stroke:#1f77b4;" x="414.600704" xlink:href="#m778e9e9549" y="171.504778"/>
     <use style="fill:#1f77b4;stroke:#1f77b4;" x="315.049427" xlink:href="#m778e9e9549" y="88.881544"/>
     <use style="fill:#1f77b4;stroke:#1f77b4;" x="503.61384" xlink:href="#m778e9e9549" y="234.553344"/>
     <use style="fill:#1f77b4;stroke:#1f77b4;" x="171.158714" xlink:href="#m778e9e9549" y="136.558399"/>
     <use style="fill:#1f77b4;stroke:#1f77b4;" x="394.804758" xlink:href="#m778e9e9549" y="155.970955"/>
     <use style="fill:#1f77b4;stroke:#1f77b4;" x="350.50103" xlink:href="#m778e9e9549" y="94.131486"/>
     <use style="fill:#1f77b4;stroke:#1f77b4;" x="491.632316" xlink:href="#m778e9e9549" y="220.423328"/>
     <use style="fill:#1f77b4;stroke:#1f77b4;" x="203.406522" xlink:href="#m778e9e9549" y="118.843489"/>
     <use style="fill:#1f77b4;stroke:#1f77b4;" x="435.234084" xlink:href="#m778e9e9549" y="188.554666"/>
     <use style="fill:#1f77b4;stroke:#1f77b4;" x="276.137827" xlink:href="#m778e9e9549" y="92.863583"/>
     <use style="fill:#1f77b4;stroke:#1f77b4;" x="494.525951" xlink:href="#m778e9e9549" y="231.719209"/>
     <use style="fill:#1f77b4;stroke:#1f77b4;" x="177.626833" xlink:href="#m778e9e9549" y="132.818658"/>
     <use style="fill:#1f77b4;stroke:#1f77b4;" x="403.33967" xlink:href="#m778e9e9549" y="162.49944"/>
     <use style="fill:#1f77b4;stroke:#1f77b4;" x="335.60159" xlink:href="#m778e9e9549" y="90.662416"/>
     <use style="fill:#1f77b4;stroke:#1f77b4;" x="499.549498" xlink:href="#m778e9e9549" y="229.105095"/>
     <use style="fill:#1f77b4;stroke:#1f77b4;" x="183.592817" xlink:href="#m778e9e9549" y="129.362741"/>
     <use style="fill:#1f77b4;stroke:#1f77b4;" x="411.226835" xlink:href="#m778e9e9549" y="168.773398"/>
     <use style="fill:#1f77b4;stroke:#1f77b4;" x="321.283035" xlink:href="#m778e9e9549" y="89.092938"/>
     <use style="fill:#1f77b4;stroke:#1f77b4;" x="503.131392" xlink:href="#m778e9e9549" y="233.534232"/>
     <use style="fill:#1f77b4;stroke:#1f77b4;" x="173.484553" xlink:href="#m778e9e9549" y="135.17934"/>
     <use style="fill:#1f77b4;stroke:#1f77b4;" x="397.952074" xlink:href="#m778e9e9549" y="158.343321"/>
     <use style="fill:#1f77b4;stroke:#1f77b4;" x="345.086769" xlink:href="#m778e9e9549" y="92.634271"/>
     <use style="fill:#1f77b4;stroke:#1f77b4;" x="495.049291" xlink:href="#m778e9e9549" y="224.156872"/>
     <use style="fill:#1f77b4;stroke:#1f77b4;" x="194.885753" xlink:href="#m778e9e9549" y="123.215879"/>
     <use style="fill:#1f77b4;stroke:#1f77b4;" x="425.255327" xlink:href="#m778e9e9549" y="180.278282"/>
     <use style="fill:#1f77b4;stroke:#1f77b4;" x="295.026358" xlink:href="#m778e9e9549" y="89.880716"/>
     <use style="fill:#1f77b4;stroke:#1f77b4;" x="501.33351" xlink:href="#m778e9e9549" y="234.894375"/>
     <use style="fill:#1f77b4;stroke:#1f77b4;" x="170.380406" xlink:href="#m778e9e9549" y="137.041545"/>
     <use style="fill:#1f77b4;stroke:#1f77b4;" x="393.702113" xlink:href="#m778e9e9549" y="155.150103"/>
     <use style="fill:#1f77b4;stroke:#1f77b4;" x="352.374395" xlink:href="#m778e9e9549" y="94.716422"/>
     <use style="fill:#1f77b4;stroke:#1f77b4;" x="490.297364" xlink:href="#m778e9e9549" y="218.955327"/>
     <use style="fill:#1f77b4;stroke:#1f77b4;" x="206.756825" xlink:href="#m778e9e9549" y="117.190314"/>
     <use style="fill:#1f77b4;stroke:#1f77b4;" x="439.006992" xlink:href="#m778e9e9549" y="191.670264"/>
     <use style="fill:#1f77b4;stroke:#1f77b4;" x="269.027346" xlink:href="#m778e9e9549" y="94.440653"/>
     <use style="fill:#1f77b4;stroke:#1f77b4;" x="490.92673" xlink:href="#m778e9e9549" y="229.699729"/>
     <use style="fill:#1f77b4;stroke:#1f77b4;" x="182.235731" xlink:href="#m778e9e9549" y="130.200439"/>
     <use style="fill:#1f77b4;stroke:#1f77b4;" x="409.315023" xlink:href="#m778e9e9549" y="167.232792"/>
     <use style="fill:#1f77b4;stroke:#1f77b4;" x="324.799038" xlink:href="#m778e9e9549" y="89.333223"/>
     <use style="fill:#1f77b4;stroke:#1f77b4;" x="502.58301" xlink:href="#m778e9e9549" y="232.734895"/>
     <use style="fill:#1f77b4;stroke:#1f77b4;" x="175.308815" xlink:href="#m778e9e9549" y="134.108599"/>
     <use style="fill:#1f77b4;stroke:#1f77b4;" x="400.395742" xlink:href="#m778e9e9549" y="160.215029"/>
     <use style="fill:#1f77b4;stroke:#1f77b4;" x="340.815119" xlink:href="#m778e9e9549" y="91.647383"/>
     <use style="fill:#1f77b4;stroke:#1f77b4;" x="497.301587" xlink:href="#m778e9e9549" y="226.616434"/>
     <use style="fill:#1f77b4;stroke:#1f77b4;" x="189.272489" xlink:href="#m778e9e9549" y="126.222889"/>
     <use style="fill:#1f77b4;stroke:#1f77b4;" x="418.392668" xlink:href="#m778e9e9549" y="174.611555"/>
     <use style="fill:#1f77b4;stroke:#1f77b4;" x="307.959076" xlink:href="#m778e9e9549" y="88.955894"/>
     <use style="fill:#1f77b4;stroke:#1f77b4;" x="503.444157" xlink:href="#m778e9e9549" y="235.152434"/>
     <use style="fill:#1f77b4;stroke:#1f77b4;" x="169.791458" xlink:href="#m778e9e9549" y="137.378789"/>
     <use style="fill:#1f77b4;stroke:#1f77b4;" x="392.932447" xlink:href="#m778e9e9549" y="154.581487"/>
     <use style="fill:#1f77b4;stroke:#1f77b4;" x="353.672101" xlink:href="#m778e9e9549" y="95.142517"/>
     <use style="fill:#1f77b4;stroke:#1f77b4;" x="489.324921" xlink:href="#m778e9e9549" y="217.881343"/>
    </g>
   </g>
   <g id="PathCollection_2">
    <defs>
     <path d="M 0 0.707107 
C 0.187527 0.707107 0.367398 0.632602 0.5 0.5 
C 0.632602 0.367398 0.707107 0.187527 0.707107 0 
C 0.707107 -0.187527 0.632602 -0.367398 0.5 -0.5 
C 0.367398 -0.632602 0.187527 -0.707107 0 -0.707107 
C -0.187527 -0.707107 -0.367398 -0.632602 -0.5 -0.5 
C -0.632602 -0.367398 -0.707107 -0.187527 -0.707107 0 
C -0.707107 0.187527 -0.632602 0.367398 -0.5 0.5 
C -0.367398 0.632602 -0.187527 0.707107 0 0.707107 
z
" id="me42c653c74" style="stroke:#ff7f0e;"/>
    </defs>
    <g clip-path="url(#pd8e5ca2e17)">
     <use style="fill:#ff7f0e;stroke:#ff7f0e;" x="479.285753" xlink:href="#me42c653c74" y="200.550035"/>
     <use style="fill:#ff7f0e;stroke:#ff7f0e;" x="248.761752" xlink:href="#me42c653c74" y="86.266705"/>
     <use style="fill:#ff7f0e;stroke:#ff7f0e;" x="509.581478" xlink:href="#me42c653c74" y="256.435013"/>
     <use style="fill:#ff7f0e;stroke:#ff7f0e;" x="121.219927" xlink:href="#me42c653c74" y="185.730442"/>
     <use style="fill:#ff7f0e;stroke:#ff7f0e;" x="282.583329" xlink:href="#me42c653c74" y="124.836677"/>
     <use style="fill:#ff7f0e;stroke:#ff7f0e;" x="421.556309" xlink:href="#me42c653c74" y="152.016742"/>
     <use style="fill:#ff7f0e;stroke:#ff7f0e;" x="359.525415" xlink:href="#me42c653c74" y="95.590907"/>
     <use style="fill:#ff7f0e;stroke:#ff7f0e;" x="488.301595" xlink:href="#me42c653c74" y="212.779399"/>
     <use style="fill:#ff7f0e;stroke:#ff7f0e;" x="220.851651" xlink:href="#me42c653c74" y="98.071676"/>
     <use style="fill:#ff7f0e;stroke:#ff7f0e;" x="482.639935" xlink:href="#me42c653c74" y="223.796302"/>
     <use style="fill:#ff7f0e;stroke:#ff7f0e;" x="195.708653" xlink:href="#me42c653c74" y="115.145841"/>
     <use style="fill:#ff7f0e;stroke:#ff7f0e;" x="443.67293" xlink:href="#me42c653c74" y="183.497836"/>
     <use style="fill:#ff7f0e;stroke:#ff7f0e;" x="287.678627" xlink:href="#me42c653c74" y="81.857593"/>
     <use style="fill:#ff7f0e;stroke:#ff7f0e;" x="519.644044" xlink:href="#me42c653c74" y="266.171862"/>
     <use style="fill:#ff7f0e;stroke:#ff7f0e;" x="98.998292" xlink:href="#me42c653c74" y="213.976827"/>
     <use style="fill:#ff7f0e;stroke:#ff7f0e;" x="218.118857" xlink:href="#me42c653c74" y="150.808393"/>
     <use style="fill:#ff7f0e;stroke:#ff7f0e;" x="362.283134" xlink:href="#me42c653c74" y="123.462255"/>
     <use style="fill:#ff7f0e;stroke:#ff7f0e;" x="424.693043" xlink:href="#me42c653c74" y="144.178822"/>
     <use style="fill:#ff7f0e;stroke:#ff7f0e;" x="377.413274" xlink:href="#me42c653c74" y="103.442712"/>
     <use style="fill:#ff7f0e;stroke:#ff7f0e;" x="470.382049" xlink:href="#me42c653c74" y="188.3639"/>
     <use style="fill:#ff7f0e;stroke:#ff7f0e;" x="276.573196" xlink:href="#me42c653c74" y="79.869224"/>
     <use style="fill:#ff7f0e;stroke:#ff7f0e;" x="524.181939" xlink:href="#me42c653c74" y="274.559578"/>
     <use style="fill:#ff7f0e;stroke:#ff7f0e;" x="79.855679" xlink:href="#me42c653c74" y="241.599383"/>
     <use style="fill:#ff7f0e;stroke:#ff7f0e;" x="155.0781" xlink:href="#me42c653c74" y="203.752362"/>
     <use style="fill:#ff7f0e;stroke:#ff7f0e;" x="241.453338" xlink:href="#me42c653c74" y="131.763285"/>
     <use style="fill:#ff7f0e;stroke:#ff7f0e;" x="405.748264" xlink:href="#me42c653c74" y="145.164184"/>
     <use style="fill:#ff7f0e;stroke:#ff7f0e;" x="375.164462" xlink:href="#me42c653c74" y="104.772062"/>
     <use style="fill:#ff7f0e;stroke:#ff7f0e;" x="467.348179" xlink:href="#me42c653c74" y="185.144477"/>
     <use style="fill:#ff7f0e;stroke:#ff7f0e;" x="283.920629" xlink:href="#me42c653c74" y="79.164894"/>
     <use style="fill:#ff7f0e;stroke:#ff7f0e;" x="525.789375" xlink:href="#me42c653c74" y="276.082035"/>
     <use style="fill:#ff7f0e;stroke:#ff7f0e;" x="76.381096" xlink:href="#me42c653c74" y="246.782766"/>
     <use style="fill:#ff7f0e;stroke:#ff7f0e;" x="143.24848" xlink:href="#me42c653c74" y="216.744559"/>
     <use style="fill:#ff7f0e;stroke:#ff7f0e;" x="211.802283" xlink:href="#me42c653c74" y="148.801386"/>
     <use style="fill:#ff7f0e;stroke:#ff7f0e;" x="366.863565" xlink:href="#me42c653c74" y="126.2849"/>
     <use style="fill:#ff7f0e;stroke:#ff7f0e;" x="418.251146" xlink:href="#me42c653c74" y="138.231505"/>
     <use style="fill:#ff7f0e;stroke:#ff7f0e;" x="390.986362" xlink:href="#me42c653c74" y="112.041673"/>
     <use style="fill:#ff7f0e;stroke:#ff7f0e;" x="450.757325" xlink:href="#me42c653c74" y="164.972142"/>
     <use style="fill:#ff7f0e;stroke:#ff7f0e;" x="329.958339" xlink:href="#me42c653c74" y="82.960273"/>
     <use style="fill:#ff7f0e;stroke:#ff7f0e;" x="517.127485" xlink:href="#me42c653c74" y="256.833788"/>
     <use style="fill:#ff7f0e;stroke:#ff7f0e;" x="120.309835" xlink:href="#me42c653c74" y="185.882233"/>
     <use style="fill:#ff7f0e;stroke:#ff7f0e;" x="282.236906" xlink:href="#me42c653c74" y="125.003119"/>
     <use style="fill:#ff7f0e;stroke:#ff7f0e;" x="421.176451" xlink:href="#me42c653c74" y="151.747364"/>
     <use style="fill:#ff7f0e;stroke:#ff7f0e;" x="360.140194" xlink:href="#me42c653c74" y="95.88803"/>
     <use style="fill:#ff7f0e;stroke:#ff7f0e;" x="487.623495" xlink:href="#me42c653c74" y="211.823103"/>
     <use style="fill:#ff7f0e;stroke:#ff7f0e;" x="223.034128" xlink:href="#me42c653c74" y="96.950229"/>
     <use style="fill:#ff7f0e;stroke:#ff7f0e;" x="485.199325" xlink:href="#me42c653c74" y="226.742058"/>
     <use style="fill:#ff7f0e;stroke:#ff7f0e;" x="188.985788" xlink:href="#me42c653c74" y="119.91901"/>
     <use style="fill:#ff7f0e;stroke:#ff7f0e;" x="432.779507" xlink:href="#me42c653c74" y="174.076315"/>
     <use style="fill:#ff7f0e;stroke:#ff7f0e;" x="309.180613" xlink:href="#me42c653c74" y="82.773991"/>
     <use style="fill:#ff7f0e;stroke:#ff7f0e;" x="517.55262" xlink:href="#me42c653c74" y="260.200596"/>
     <use style="fill:#ff7f0e;stroke:#ff7f0e;" x="112.626037" xlink:href="#me42c653c74" y="195.71174"/>
     <use style="fill:#ff7f0e;stroke:#ff7f0e;" x="259.803808" xlink:href="#me42c653c74" y="130.817368"/>
     <use style="fill:#ff7f0e;stroke:#ff7f0e;" x="407.907054" xlink:href="#me42c653c74" y="144.323909"/>
     <use style="fill:#ff7f0e;stroke:#ff7f0e;" x="377.082155" xlink:href="#me42c653c74" y="105.476101"/>
     <use style="fill:#ff7f0e;stroke:#ff7f0e;" x="465.741406" xlink:href="#me42c653c74" y="183.056665"/>
     <use style="fill:#ff7f0e;stroke:#ff7f0e;" x="288.685476" xlink:href="#me42c653c74" y="78.860946"/>
     <use style="fill:#ff7f0e;stroke:#ff7f0e;" x="526.483052" xlink:href="#me42c653c74" y="276.535044"/>
     <use style="fill:#ff7f0e;stroke:#ff7f0e;" x="75.347231" xlink:href="#me42c653c74" y="248.312967"/>
     <use style="fill:#ff7f0e;stroke:#ff7f0e;" x="139.756223" xlink:href="#me42c653c74" y="220.766719"/>
     <use style="fill:#ff7f0e;stroke:#ff7f0e;" x="202.622828" xlink:href="#me42c653c74" y="155.290336"/>
     <use style="fill:#ff7f0e;stroke:#ff7f0e;" x="352.054352" xlink:href="#me42c653c74" y="121.575602"/>
     <use style="fill:#ff7f0e;stroke:#ff7f0e;" x="428.998799" xlink:href="#me42c653c74" y="149.256688"/>
     <use style="fill:#ff7f0e;stroke:#ff7f0e;" x="365.824467" xlink:href="#me42c653c74" y="97.269472"/>
     <use style="fill:#ff7f0e;stroke:#ff7f0e;" x="484.470741" xlink:href="#me42c653c74" y="207.047254"/>
     <use style="fill:#ff7f0e;stroke:#ff7f0e;" x="233.933669" xlink:href="#me42c653c74" y="91.813548"/>
     <use style="fill:#ff7f0e;stroke:#ff7f0e;" x="496.922361" xlink:href="#me42c653c74" y="240.696982"/>
     <use style="fill:#ff7f0e;stroke:#ff7f0e;" x="157.137579" xlink:href="#me42c653c74" y="146.845431"/>
     <use style="fill:#ff7f0e;stroke:#ff7f0e;" x="371.327485" xlink:href="#me42c653c74" y="135.552333"/>
     <use style="fill:#ff7f0e;stroke:#ff7f0e;" x="397.100823" xlink:href="#me42c653c74" y="122.119687"/>
     <use style="fill:#ff7f0e;stroke:#ff7f0e;" x="427.757077" xlink:href="#me42c653c74" y="142.245463"/>
     <use style="fill:#ff7f0e;stroke:#ff7f0e;" x="381.825625" xlink:href="#me42c653c74" y="105.419789"/>
     <use style="fill:#ff7f0e;stroke:#ff7f0e;" x="465.869923" xlink:href="#me42c653c74" y="182.579293"/>
     <use style="fill:#ff7f0e;stroke:#ff7f0e;" x="289.774943" xlink:href="#me42c653c74" y="78.748386"/>
     <use style="fill:#ff7f0e;stroke:#ff7f0e;" x="526.739937" xlink:href="#me42c653c74" y="276.792378"/>
     <use style="fill:#ff7f0e;stroke:#ff7f0e;" x="74.759938" xlink:href="#me42c653c74" y="249.203514"/>
     <use style="fill:#ff7f0e;stroke:#ff7f0e;" x="137.723799" xlink:href="#me42c653c74" y="223.144603"/>
     <use style="fill:#ff7f0e;stroke:#ff7f0e;" x="197.195973" xlink:href="#me42c653c74" y="159.397341"/>
     <use style="fill:#ff7f0e;stroke:#ff7f0e;" x="342.681264" xlink:href="#me42c653c74" y="119.330985"/>
     <use style="fill:#ff7f0e;stroke:#ff7f0e;" x="434.121511" xlink:href="#me42c653c74" y="155.097971"/>
     <use style="fill:#ff7f0e;stroke:#ff7f0e;" x="352.493373" xlink:href="#me42c653c74" y="91.298372"/>
     <use style="fill:#ff7f0e;stroke:#ff7f0e;" x="498.098106" xlink:href="#me42c653c74" y="226.708093"/>
     <use style="fill:#ff7f0e;stroke:#ff7f0e;" x="189.063305" xlink:href="#me42c653c74" y="118.162743"/>
     <use style="fill:#ff7f0e;stroke:#ff7f0e;" x="436.787696" xlink:href="#me42c653c74" y="177.762148"/>
     <use style="fill:#ff7f0e;stroke:#ff7f0e;" x="300.768729" xlink:href="#me42c653c74" y="82.066798"/>
     <use style="fill:#ff7f0e;stroke:#ff7f0e;" x="519.166591" xlink:href="#me42c653c74" y="263.730568"/>
     <use style="fill:#ff7f0e;stroke:#ff7f0e;" x="104.569863" xlink:href="#me42c653c74" y="206.303964"/>
     <use style="fill:#ff7f0e;stroke:#ff7f0e;" x="235.63002" xlink:href="#me42c653c74" y="140.962055"/>
     <use style="fill:#ff7f0e;stroke:#ff7f0e;" x="384.754645" xlink:href="#me42c653c74" y="132.329472"/>
     <use style="fill:#ff7f0e;stroke:#ff7f0e;" x="404.4561" xlink:href="#me42c653c74" y="125.401677"/>
    </g>
   </g>
   <g id="matplotlib.axis_1">
    <g id="xtick_1">
     <g id="line2d_1">
      <defs>
       <path d="M 0 0 
L 0 3.5 
" id="m8e5e7e340d" style="stroke:#000000;stroke-width:0.8;"/>
      </defs>
      <g>
       <use style="stroke:#000000;stroke-width:0.8;" x="125.064756" xlink:href="#m8e5e7e340d" y="332.227725"/>
      </g>
     </g>
     <g id="text_1">
      <!-- −1.0 -->
      <defs>
       <path d="M 10.59375 35.5 
L 73.1875 35.5 
L 73.1875 27.203125 
L 10.59375 27.203125 
z
" id="DejaVuSans-8722"/>
       <path d="M 12.40625 8.296875 
L 28.515625 8.296875 
L 28.515625 63.921875 
L 10.984375 60.40625 
L 10.984375 69.390625 
L 28.421875 72.90625 
L 38.28125 72.90625 
L 38.28125 8.296875 
L 54.390625 8.296875 
L 54.390625 0 
L 12.40625 0 
z
" id="DejaVuSans-49"/>
       <path d="M 10.6875 12.40625 
L 21 12.40625 
L 21 0 
L 10.6875 0 
z
" id="DejaVuSans-46"/>
       <path d="M 31.78125 66.40625 
Q 24.171875 66.40625 20.328125 58.90625 
Q 16.5 51.421875 16.5 36.375 
Q 16.5 21.390625 20.328125 13.890625 
Q 24.171875 6.390625 31.78125 6.390625 
Q 39.453125 6.390625 43.28125 13.890625 
Q 47.125 21.390625 47.125 36.375 
Q 47.125 51.421875 43.28125 58.90625 
Q 39.453125 66.40625 31.78125 66.40625 
z
M 31.78125 74.21875 
Q 44.046875 74.21875 50.515625 64.515625 
Q 56.984375 54.828125 56.984375 36.375 
Q 56.984375 17.96875 50.515625 8.265625 
Q 44.046875 -1.421875 31.78125 -1.421875 
Q 19.53125 -1.421875 13.0625 8.265625 
Q 6.59375 17.96875 6.59375 36.375 
Q 6.59375 54.828125 13.0625 64.515625 
Q 19.53125 74.21875 31.78125 74.21875 
z
" id="DejaVuSans-48"/>
      </defs>
      <g transform="translate(112.923349 346.826163)scale(0.1 -0.1)">
       <use xlink:href="#DejaVuSans-8722"/>
       <use x="83.789062" xlink:href="#DejaVuSans-49"/>
       <use x="147.412109" xlink:href="#DejaVuSans-46"/>
       <use x="179.199219" xlink:href="#DejaVuSans-48"/>
      </g>
     </g>
    </g>
    <g id="xtick_2">
     <g id="line2d_2">
      <g>
       <use style="stroke:#000000;stroke-width:0.8;" x="213.475" xlink:href="#m8e5e7e340d" y="332.227725"/>
      </g>
     </g>
     <g id="text_2">
      <!-- −0.5 -->
      <defs>
       <path d="M 10.796875 72.90625 
L 49.515625 72.90625 
L 49.515625 64.59375 
L 19.828125 64.59375 
L 19.828125 46.734375 
Q 21.96875 47.46875 24.109375 47.828125 
Q 26.265625 48.1875 28.421875 48.1875 
Q 40.625 48.1875 47.75 41.5 
Q 54.890625 34.8125 54.890625 23.390625 
Q 54.890625 11.625 47.5625 5.09375 
Q 40.234375 -1.421875 26.90625 -1.421875 
Q 22.3125 -1.421875 17.546875 -0.640625 
Q 12.796875 0.140625 7.71875 1.703125 
L 7.71875 11.625 
Q 12.109375 9.234375 16.796875 8.0625 
Q 21.484375 6.890625 26.703125 6.890625 
Q 35.15625 6.890625 40.078125 11.328125 
Q 45.015625 15.765625 45.015625 23.390625 
Q 45.015625 31 40.078125 35.4375 
Q 35.15625 39.890625 26.703125 39.890625 
Q 22.75 39.890625 18.8125 39.015625 
Q 14.890625 38.140625 10.796875 36.28125 
z
" id="DejaVuSans-53"/>
      </defs>
      <g transform="translate(201.333593 346.826163)scale(0.1 -0.1)">
       <use xlink:href="#DejaVuSans-8722"/>
       <use x="83.789062" xlink:href="#DejaVuSans-48"/>
       <use x="147.412109" xlink:href="#DejaVuSans-46"/>
       <use x="179.199219" xlink:href="#DejaVuSans-53"/>
      </g>
     </g>
    </g>
    <g id="xtick_3">
     <g id="line2d_3">
      <g>
       <use style="stroke:#000000;stroke-width:0.8;" x="301.885244" xlink:href="#m8e5e7e340d" y="332.227725"/>
      </g>
     </g>
     <g id="text_3">
      <!-- 0.0 -->
      <g transform="translate(293.933681 346.826163)scale(0.1 -0.1)">
       <use xlink:href="#DejaVuSans-48"/>
       <use x="63.623047" xlink:href="#DejaVuSans-46"/>
       <use x="95.410156" xlink:href="#DejaVuSans-48"/>
      </g>
     </g>
    </g>
    <g id="xtick_4">
     <g id="line2d_4">
      <g>
       <use style="stroke:#000000;stroke-width:0.8;" x="390.295488" xlink:href="#m8e5e7e340d" y="332.227725"/>
      </g>
     </g>
     <g id="text_4">
      <!-- 0.5 -->
      <g transform="translate(382.343925 346.826163)scale(0.1 -0.1)">
       <use xlink:href="#DejaVuSans-48"/>
       <use x="63.623047" xlink:href="#DejaVuSans-46"/>
       <use x="95.410156" xlink:href="#DejaVuSans-53"/>
      </g>
     </g>
    </g>
    <g id="xtick_5">
     <g id="line2d_5">
      <g>
       <use style="stroke:#000000;stroke-width:0.8;" x="478.705732" xlink:href="#m8e5e7e340d" y="332.227725"/>
      </g>
     </g>
     <g id="text_5">
      <!-- 1.0 -->
      <g transform="translate(470.75417 346.826163)scale(0.1 -0.1)">
       <use xlink:href="#DejaVuSans-49"/>
       <use x="63.623047" xlink:href="#DejaVuSans-46"/>
       <use x="95.410156" xlink:href="#DejaVuSans-48"/>
      </g>
     </g>
    </g>
    <g id="text_6">
     <!-- $x_t$ -->
     <defs>
      <path d="M 60.015625 54.6875 
L 34.90625 27.875 
L 50.296875 0 
L 39.984375 0 
L 28.421875 21.6875 
L 8.296875 0 
L -2.59375 0 
L 24.3125 28.8125 
L 10.015625 54.6875 
L 20.3125 54.6875 
L 30.8125 34.90625 
L 49.125 54.6875 
z
" id="DejaVuSans-Oblique-120"/>
      <path d="M 42.28125 54.6875 
L 40.921875 47.703125 
L 23 47.703125 
L 17.1875 18.015625 
Q 16.890625 16.359375 16.75 15.234375 
Q 16.609375 14.109375 16.609375 13.484375 
Q 16.609375 10.359375 18.484375 8.9375 
Q 20.359375 7.515625 24.515625 7.515625 
L 33.59375 7.515625 
L 32.078125 0 
L 23.484375 0 
Q 15.484375 0 11.546875 3.125 
Q 7.625 6.25 7.625 12.59375 
Q 7.625 13.71875 7.765625 15.0625 
Q 7.90625 16.40625 8.203125 18.015625 
L 14.015625 47.703125 
L 6.390625 47.703125 
L 7.8125 54.6875 
L 15.28125 54.6875 
L 18.3125 70.21875 
L 27.296875 70.21875 
L 24.3125 54.6875 
z
" id="DejaVuSans-Oblique-116"/>
     </defs>
     <g transform="translate(296.249938 360.504287)scale(0.1 -0.1)">
      <use transform="translate(0 0.3125)" xlink:href="#DejaVuSans-Oblique-120"/>
      <use transform="translate(59.179688 -16.09375)scale(0.7)" xlink:href="#DejaVuSans-Oblique-116"/>
     </g>
    </g>
   </g>
   <g id="matplotlib.axis_2">
    <g id="ytick_1">
     <g id="line2d_6">
      <defs>
       <path d="M 0 0 
L -3.5 0 
" id="m02f0897a47" style="stroke:#000000;stroke-width:0.8;"/>
      </defs>
      <g>
       <use style="stroke:#000000;stroke-width:0.8;" x="52.160938" xlink:href="#m02f0897a47" y="332.227725"/>
      </g>
     </g>
     <g id="text_7">
      <!-- −2.0 -->
      <defs>
       <path d="M 19.1875 8.296875 
L 53.609375 8.296875 
L 53.609375 0 
L 7.328125 0 
L 7.328125 8.296875 
Q 12.9375 14.109375 22.625 23.890625 
Q 32.328125 33.6875 34.8125 36.53125 
Q 39.546875 41.84375 41.421875 45.53125 
Q 43.3125 49.21875 43.3125 52.78125 
Q 43.3125 58.59375 39.234375 62.25 
Q 35.15625 65.921875 28.609375 65.921875 
Q 23.96875 65.921875 18.8125 64.3125 
Q 13.671875 62.703125 7.8125 59.421875 
L 7.8125 69.390625 
Q 13.765625 71.78125 18.9375 73 
Q 24.125 74.21875 28.421875 74.21875 
Q 39.75 74.21875 46.484375 68.546875 
Q 53.21875 62.890625 53.21875 53.421875 
Q 53.21875 48.921875 51.53125 44.890625 
Q 49.859375 40.875 45.40625 35.40625 
Q 44.1875 33.984375 37.640625 27.21875 
Q 31.109375 20.453125 19.1875 8.296875 
z
" id="DejaVuSans-50"/>
      </defs>
      <g transform="translate(20.878125 336.026944)scale(0.1 -0.1)">
       <use xlink:href="#DejaVuSans-8722"/>
       <use x="83.789062" xlink:href="#DejaVuSans-50"/>
       <use x="147.412109" xlink:href="#DejaVuSans-46"/>
       <use x="179.199219" xlink:href="#DejaVuSans-48"/>
      </g>
     </g>
    </g>
    <g id="ytick_2">
     <g id="line2d_7">
      <g>
       <use style="stroke:#000000;stroke-width:0.8;" x="52.160938" xlink:href="#m02f0897a47" y="293.489025"/>
      </g>
     </g>
     <g id="text_8">
      <!-- −1.5 -->
      <g transform="translate(20.878125 297.288244)scale(0.1 -0.1)">
       <use xlink:href="#DejaVuSans-8722"/>
       <use x="83.789062" xlink:href="#DejaVuSans-49"/>
       <use x="147.412109" xlink:href="#DejaVuSans-46"/>
       <use x="179.199219" xlink:href="#DejaVuSans-53"/>
      </g>
     </g>
    </g>
    <g id="ytick_3">
     <g id="line2d_8">
      <g>
       <use style="stroke:#000000;stroke-width:0.8;" x="52.160938" xlink:href="#m02f0897a47" y="254.750325"/>
      </g>
     </g>
     <g id="text_9">
      <!-- −1.0 -->
      <g transform="translate(20.878125 258.549544)scale(0.1 -0.1)">
       <use xlink:href="#DejaVuSans-8722"/>
       <use x="83.789062" xlink:href="#DejaVuSans-49"/>
       <use x="147.412109" xlink:href="#DejaVuSans-46"/>
       <use x="179.199219" xlink:href="#DejaVuSans-48"/>
      </g>
     </g>
    </g>
    <g id="ytick_4">
     <g id="line2d_9">
      <g>
       <use style="stroke:#000000;stroke-width:0.8;" x="52.160938" xlink:href="#m02f0897a47" y="216.011625"/>
      </g>
     </g>
     <g id="text_10">
      <!-- −0.5 -->
      <g transform="translate(20.878125 219.810844)scale(0.1 -0.1)">
       <use xlink:href="#DejaVuSans-8722"/>
       <use x="83.789062" xlink:href="#DejaVuSans-48"/>
       <use x="147.412109" xlink:href="#DejaVuSans-46"/>
       <use x="179.199219" xlink:href="#DejaVuSans-53"/>
      </g>
     </g>
    </g>
    <g id="ytick_5">
     <g id="line2d_10">
      <g>
       <use style="stroke:#000000;stroke-width:0.8;" x="52.160938" xlink:href="#m02f0897a47" y="177.272925"/>
      </g>
     </g>
     <g id="text_11">
      <!-- 0.0 -->
      <g transform="translate(29.257813 181.072144)scale(0.1 -0.1)">
       <use xlink:href="#DejaVuSans-48"/>
       <use x="63.623047" xlink:href="#DejaVuSans-46"/>
       <use x="95.410156" xlink:href="#DejaVuSans-48"/>
      </g>
     </g>
    </g>
    <g id="ytick_6">
     <g id="line2d_11">
      <g>
       <use style="stroke:#000000;stroke-width:0.8;" x="52.160938" xlink:href="#m02f0897a47" y="138.534225"/>
      </g>
     </g>
     <g id="text_12">
      <!-- 0.5 -->
      <g transform="translate(29.257813 142.333444)scale(0.1 -0.1)">
       <use xlink:href="#DejaVuSans-48"/>
       <use x="63.623047" xlink:href="#DejaVuSans-46"/>
       <use x="95.410156" xlink:href="#DejaVuSans-53"/>
      </g>
     </g>
    </g>
    <g id="ytick_7">
     <g id="line2d_12">
      <g>
       <use style="stroke:#000000;stroke-width:0.8;" x="52.160938" xlink:href="#m02f0897a47" y="99.795525"/>
      </g>
     </g>
     <g id="text_13">
      <!-- 1.0 -->
      <g transform="translate(29.257813 103.594744)scale(0.1 -0.1)">
       <use xlink:href="#DejaVuSans-49"/>
       <use x="63.623047" xlink:href="#DejaVuSans-46"/>
       <use x="95.410156" xlink:href="#DejaVuSans-48"/>
      </g>
     </g>
    </g>
    <g id="ytick_8">
     <g id="line2d_13">
      <g>
       <use style="stroke:#000000;stroke-width:0.8;" x="52.160938" xlink:href="#m02f0897a47" y="61.056825"/>
      </g>
     </g>
     <g id="text_14">
      <!-- 1.5 -->
      <g transform="translate(29.257813 64.856044)scale(0.1 -0.1)">
       <use xlink:href="#DejaVuSans-49"/>
       <use x="63.623047" xlink:href="#DejaVuSans-46"/>
       <use x="95.410156" xlink:href="#DejaVuSans-53"/>
      </g>
     </g>
    </g>
    <g id="ytick_9">
     <g id="line2d_14">
      <g>
       <use style="stroke:#000000;stroke-width:0.8;" x="52.160938" xlink:href="#m02f0897a47" y="22.318125"/>
      </g>
     </g>
     <g id="text_15">
      <!-- 2.0 -->
      <g transform="translate(29.257813 26.117344)scale(0.1 -0.1)">
       <use xlink:href="#DejaVuSans-50"/>
       <use x="63.623047" xlink:href="#DejaVuSans-46"/>
       <use x="95.410156" xlink:href="#DejaVuSans-48"/>
      </g>
     </g>
    </g>
    <g id="text_16">
     <!-- $y_t$ -->
     <defs>
      <path d="M 24.8125 -5.078125 
Q 18.5625 -15.578125 14.625 -18.1875 
Q 10.6875 -20.796875 4.59375 -20.796875 
L -2.484375 -20.796875 
L -0.984375 -13.28125 
L 4.203125 -13.28125 
Q 7.953125 -13.28125 10.59375 -11.234375 
Q 13.234375 -9.1875 16.5 -3.21875 
L 19.28125 2 
L 7.171875 54.6875 
L 16.703125 54.6875 
L 25.78125 12.796875 
L 50.875 54.6875 
L 60.296875 54.6875 
z
" id="DejaVuSans-Oblique-121"/>
     </defs>
     <g transform="translate(14.778125 181.772925)rotate(-90)scale(0.1 -0.1)">
      <use transform="translate(0 0.3125)" xlink:href="#DejaVuSans-Oblique-121"/>
      <use transform="translate(59.179688 -16.09375)scale(0.7)" xlink:href="#DejaVuSans-Oblique-116"/>
     </g>
    </g>
   </g>
   <g id="patch_3">
    <path d="M 52.160938 332.227725 
L 52.160938 22.318125 
" style="fill:none;stroke:#000000;stroke-linecap:square;stroke-linejoin:miter;stroke-width:0.8;"/>
   </g>
   <g id="patch_4">
    <path d="M 549.338938 332.227725 
L 549.338938 22.318125 
" style="fill:none;stroke:#000000;stroke-linecap:square;stroke-linejoin:miter;stroke-width:0.8;"/>
   </g>
   <g id="patch_5">
    <path d="M 52.160938 332.227725 
L 549.338938 332.227725 
" style="fill:none;stroke:#000000;stroke-linecap:square;stroke-linejoin:miter;stroke-width:0.8;"/>
   </g>
   <g id="patch_6">
    <path d="M 52.160938 22.318125 
L 549.338938 22.318125 
" style="fill:none;stroke:#000000;stroke-linecap:square;stroke-linejoin:miter;stroke-width:0.8;"/>
   </g>
   <g id="text_17">
    <!-- Phase Diagram of Multi-Step Prediction -->
    <defs>
     <path d="M 19.671875 64.796875 
L 19.671875 37.40625 
L 32.078125 37.40625 
Q 38.96875 37.40625 42.71875 40.96875 
Q 46.484375 44.53125 46.484375 51.125 
Q 46.484375 57.671875 42.71875 61.234375 
Q 38.96875 64.796875 32.078125 64.796875 
z
M 9.8125 72.90625 
L 32.078125 72.90625 
Q 44.34375 72.90625 50.609375 67.359375 
Q 56.890625 61.8125 56.890625 51.125 
Q 56.890625 40.328125 50.609375 34.8125 
Q 44.34375 29.296875 32.078125 29.296875 
L 19.671875 29.296875 
L 19.671875 0 
L 9.8125 0 
z
" id="DejaVuSans-80"/>
     <path d="M 54.890625 33.015625 
L 54.890625 0 
L 45.90625 0 
L 45.90625 32.71875 
Q 45.90625 40.484375 42.875 44.328125 
Q 39.84375 48.1875 33.796875 48.1875 
Q 26.515625 48.1875 22.3125 43.546875 
Q 18.109375 38.921875 18.109375 30.90625 
L 18.109375 0 
L 9.078125 0 
L 9.078125 75.984375 
L 18.109375 75.984375 
L 18.109375 46.1875 
Q 21.34375 51.125 25.703125 53.5625 
Q 30.078125 56 35.796875 56 
Q 45.21875 56 50.046875 50.171875 
Q 54.890625 44.34375 54.890625 33.015625 
z
" id="DejaVuSans-104"/>
     <path d="M 34.28125 27.484375 
Q 23.390625 27.484375 19.1875 25 
Q 14.984375 22.515625 14.984375 16.5 
Q 14.984375 11.71875 18.140625 8.90625 
Q 21.296875 6.109375 26.703125 6.109375 
Q 34.1875 6.109375 38.703125 11.40625 
Q 43.21875 16.703125 43.21875 25.484375 
L 43.21875 27.484375 
z
M 52.203125 31.203125 
L 52.203125 0 
L 43.21875 0 
L 43.21875 8.296875 
Q 40.140625 3.328125 35.546875 0.953125 
Q 30.953125 -1.421875 24.3125 -1.421875 
Q 15.921875 -1.421875 10.953125 3.296875 
Q 6 8.015625 6 15.921875 
Q 6 25.140625 12.171875 29.828125 
Q 18.359375 34.515625 30.609375 34.515625 
L 43.21875 34.515625 
L 43.21875 35.40625 
Q 43.21875 41.609375 39.140625 45 
Q 35.0625 48.390625 27.6875 48.390625 
Q 23 48.390625 18.546875 47.265625 
Q 14.109375 46.140625 10.015625 43.890625 
L 10.015625 52.203125 
Q 14.9375 54.109375 19.578125 55.046875 
Q 24.21875 56 28.609375 56 
Q 40.484375 56 46.34375 49.84375 
Q 52.203125 43.703125 52.203125 31.203125 
z
" id="DejaVuSans-97"/>
     <path d="M 44.28125 53.078125 
L 44.28125 44.578125 
Q 40.484375 46.53125 36.375 47.5 
Q 32.28125 48.484375 27.875 48.484375 
Q 21.1875 48.484375 17.84375 46.4375 
Q 14.5 44.390625 14.5 40.28125 
Q 14.5 37.15625 16.890625 35.375 
Q 19.28125 33.59375 26.515625 31.984375 
L 29.59375 31.296875 
Q 39.15625 29.25 43.1875 25.515625 
Q 47.21875 21.78125 47.21875 15.09375 
Q 47.21875 7.46875 41.1875 3.015625 
Q 35.15625 -1.421875 24.609375 -1.421875 
Q 20.21875 -1.421875 15.453125 -0.5625 
Q 10.6875 0.296875 5.421875 2 
L 5.421875 11.28125 
Q 10.40625 8.6875 15.234375 7.390625 
Q 20.0625 6.109375 24.8125 6.109375 
Q 31.15625 6.109375 34.5625 8.28125 
Q 37.984375 10.453125 37.984375 14.40625 
Q 37.984375 18.0625 35.515625 20.015625 
Q 33.0625 21.96875 24.703125 23.78125 
L 21.578125 24.515625 
Q 13.234375 26.265625 9.515625 29.90625 
Q 5.8125 33.546875 5.8125 39.890625 
Q 5.8125 47.609375 11.28125 51.796875 
Q 16.75 56 26.8125 56 
Q 31.78125 56 36.171875 55.265625 
Q 40.578125 54.546875 44.28125 53.078125 
z
" id="DejaVuSans-115"/>
     <path d="M 56.203125 29.59375 
L 56.203125 25.203125 
L 14.890625 25.203125 
Q 15.484375 15.921875 20.484375 11.0625 
Q 25.484375 6.203125 34.421875 6.203125 
Q 39.59375 6.203125 44.453125 7.46875 
Q 49.3125 8.734375 54.109375 11.28125 
L 54.109375 2.78125 
Q 49.265625 0.734375 44.1875 -0.34375 
Q 39.109375 -1.421875 33.890625 -1.421875 
Q 20.796875 -1.421875 13.15625 6.1875 
Q 5.515625 13.8125 5.515625 26.8125 
Q 5.515625 40.234375 12.765625 48.109375 
Q 20.015625 56 32.328125 56 
Q 43.359375 56 49.78125 48.890625 
Q 56.203125 41.796875 56.203125 29.59375 
z
M 47.21875 32.234375 
Q 47.125 39.59375 43.09375 43.984375 
Q 39.0625 48.390625 32.421875 48.390625 
Q 24.90625 48.390625 20.390625 44.140625 
Q 15.875 39.890625 15.1875 32.171875 
z
" id="DejaVuSans-101"/>
     <path id="DejaVuSans-32"/>
     <path d="M 19.671875 64.796875 
L 19.671875 8.109375 
L 31.59375 8.109375 
Q 46.6875 8.109375 53.6875 14.9375 
Q 60.6875 21.78125 60.6875 36.53125 
Q 60.6875 51.171875 53.6875 57.984375 
Q 46.6875 64.796875 31.59375 64.796875 
z
M 9.8125 72.90625 
L 30.078125 72.90625 
Q 51.265625 72.90625 61.171875 64.09375 
Q 71.09375 55.28125 71.09375 36.53125 
Q 71.09375 17.671875 61.125 8.828125 
Q 51.171875 0 30.078125 0 
L 9.8125 0 
z
" id="DejaVuSans-68"/>
     <path d="M 9.421875 54.6875 
L 18.40625 54.6875 
L 18.40625 0 
L 9.421875 0 
z
M 9.421875 75.984375 
L 18.40625 75.984375 
L 18.40625 64.59375 
L 9.421875 64.59375 
z
" id="DejaVuSans-105"/>
     <path d="M 45.40625 27.984375 
Q 45.40625 37.75 41.375 43.109375 
Q 37.359375 48.484375 30.078125 48.484375 
Q 22.859375 48.484375 18.828125 43.109375 
Q 14.796875 37.75 14.796875 27.984375 
Q 14.796875 18.265625 18.828125 12.890625 
Q 22.859375 7.515625 30.078125 7.515625 
Q 37.359375 7.515625 41.375 12.890625 
Q 45.40625 18.265625 45.40625 27.984375 
z
M 54.390625 6.78125 
Q 54.390625 -7.171875 48.1875 -13.984375 
Q 42 -20.796875 29.203125 -20.796875 
Q 24.46875 -20.796875 20.265625 -20.09375 
Q 16.0625 -19.390625 12.109375 -17.921875 
L 12.109375 -9.1875 
Q 16.0625 -11.328125 19.921875 -12.34375 
Q 23.78125 -13.375 27.78125 -13.375 
Q 36.625 -13.375 41.015625 -8.765625 
Q 45.40625 -4.15625 45.40625 5.171875 
L 45.40625 9.625 
Q 42.625 4.78125 38.28125 2.390625 
Q 33.9375 0 27.875 0 
Q 17.828125 0 11.671875 7.65625 
Q 5.515625 15.328125 5.515625 27.984375 
Q 5.515625 40.671875 11.671875 48.328125 
Q 17.828125 56 27.875 56 
Q 33.9375 56 38.28125 53.609375 
Q 42.625 51.21875 45.40625 46.390625 
L 45.40625 54.6875 
L 54.390625 54.6875 
z
" id="DejaVuSans-103"/>
     <path d="M 41.109375 46.296875 
Q 39.59375 47.171875 37.8125 47.578125 
Q 36.03125 48 33.890625 48 
Q 26.265625 48 22.1875 43.046875 
Q 18.109375 38.09375 18.109375 28.8125 
L 18.109375 0 
L 9.078125 0 
L 9.078125 54.6875 
L 18.109375 54.6875 
L 18.109375 46.1875 
Q 20.953125 51.171875 25.484375 53.578125 
Q 30.03125 56 36.53125 56 
Q 37.453125 56 38.578125 55.875 
Q 39.703125 55.765625 41.0625 55.515625 
z
" id="DejaVuSans-114"/>
     <path d="M 52 44.1875 
Q 55.375 50.25 60.0625 53.125 
Q 64.75 56 71.09375 56 
Q 79.640625 56 84.28125 50.015625 
Q 88.921875 44.046875 88.921875 33.015625 
L 88.921875 0 
L 79.890625 0 
L 79.890625 32.71875 
Q 79.890625 40.578125 77.09375 44.375 
Q 74.3125 48.1875 68.609375 48.1875 
Q 61.625 48.1875 57.5625 43.546875 
Q 53.515625 38.921875 53.515625 30.90625 
L 53.515625 0 
L 44.484375 0 
L 44.484375 32.71875 
Q 44.484375 40.625 41.703125 44.40625 
Q 38.921875 48.1875 33.109375 48.1875 
Q 26.21875 48.1875 22.15625 43.53125 
Q 18.109375 38.875 18.109375 30.90625 
L 18.109375 0 
L 9.078125 0 
L 9.078125 54.6875 
L 18.109375 54.6875 
L 18.109375 46.1875 
Q 21.1875 51.21875 25.484375 53.609375 
Q 29.78125 56 35.6875 56 
Q 41.65625 56 45.828125 52.96875 
Q 50 49.953125 52 44.1875 
z
" id="DejaVuSans-109"/>
     <path d="M 30.609375 48.390625 
Q 23.390625 48.390625 19.1875 42.75 
Q 14.984375 37.109375 14.984375 27.296875 
Q 14.984375 17.484375 19.15625 11.84375 
Q 23.34375 6.203125 30.609375 6.203125 
Q 37.796875 6.203125 41.984375 11.859375 
Q 46.1875 17.53125 46.1875 27.296875 
Q 46.1875 37.015625 41.984375 42.703125 
Q 37.796875 48.390625 30.609375 48.390625 
z
M 30.609375 56 
Q 42.328125 56 49.015625 48.375 
Q 55.71875 40.765625 55.71875 27.296875 
Q 55.71875 13.875 49.015625 6.21875 
Q 42.328125 -1.421875 30.609375 -1.421875 
Q 18.84375 -1.421875 12.171875 6.21875 
Q 5.515625 13.875 5.515625 27.296875 
Q 5.515625 40.765625 12.171875 48.375 
Q 18.84375 56 30.609375 56 
z
" id="DejaVuSans-111"/>
     <path d="M 37.109375 75.984375 
L 37.109375 68.5 
L 28.515625 68.5 
Q 23.6875 68.5 21.796875 66.546875 
Q 19.921875 64.59375 19.921875 59.515625 
L 19.921875 54.6875 
L 34.71875 54.6875 
L 34.71875 47.703125 
L 19.921875 47.703125 
L 19.921875 0 
L 10.890625 0 
L 10.890625 47.703125 
L 2.296875 47.703125 
L 2.296875 54.6875 
L 10.890625 54.6875 
L 10.890625 58.5 
Q 10.890625 67.625 15.140625 71.796875 
Q 19.390625 75.984375 28.609375 75.984375 
z
" id="DejaVuSans-102"/>
     <path d="M 9.8125 72.90625 
L 24.515625 72.90625 
L 43.109375 23.296875 
L 61.8125 72.90625 
L 76.515625 72.90625 
L 76.515625 0 
L 66.890625 0 
L 66.890625 64.015625 
L 48.09375 14.015625 
L 38.1875 14.015625 
L 19.390625 64.015625 
L 19.390625 0 
L 9.8125 0 
z
" id="DejaVuSans-77"/>
     <path d="M 8.5 21.578125 
L 8.5 54.6875 
L 17.484375 54.6875 
L 17.484375 21.921875 
Q 17.484375 14.15625 20.5 10.265625 
Q 23.53125 6.390625 29.59375 6.390625 
Q 36.859375 6.390625 41.078125 11.03125 
Q 45.3125 15.671875 45.3125 23.6875 
L 45.3125 54.6875 
L 54.296875 54.6875 
L 54.296875 0 
L 45.3125 0 
L 45.3125 8.40625 
Q 42.046875 3.421875 37.71875 1 
Q 33.40625 -1.421875 27.6875 -1.421875 
Q 18.265625 -1.421875 13.375 4.4375 
Q 8.5 10.296875 8.5 21.578125 
z
M 31.109375 56 
z
" id="DejaVuSans-117"/>
     <path d="M 9.421875 75.984375 
L 18.40625 75.984375 
L 18.40625 0 
L 9.421875 0 
z
" id="DejaVuSans-108"/>
     <path d="M 18.3125 70.21875 
L 18.3125 54.6875 
L 36.8125 54.6875 
L 36.8125 47.703125 
L 18.3125 47.703125 
L 18.3125 18.015625 
Q 18.3125 11.328125 20.140625 9.421875 
Q 21.96875 7.515625 27.59375 7.515625 
L 36.8125 7.515625 
L 36.8125 0 
L 27.59375 0 
Q 17.1875 0 13.234375 3.875 
Q 9.28125 7.765625 9.28125 18.015625 
L 9.28125 47.703125 
L 2.6875 47.703125 
L 2.6875 54.6875 
L 9.28125 54.6875 
L 9.28125 70.21875 
z
" id="DejaVuSans-116"/>
     <path d="M 4.890625 31.390625 
L 31.203125 31.390625 
L 31.203125 23.390625 
L 4.890625 23.390625 
z
" id="DejaVuSans-45"/>
     <path d="M 53.515625 70.515625 
L 53.515625 60.890625 
Q 47.90625 63.578125 42.921875 64.890625 
Q 37.9375 66.21875 33.296875 66.21875 
Q 25.25 66.21875 20.875 63.09375 
Q 16.5 59.96875 16.5 54.203125 
Q 16.5 49.359375 19.40625 46.890625 
Q 22.3125 44.4375 30.421875 42.921875 
L 36.375 41.703125 
Q 47.40625 39.59375 52.65625 34.296875 
Q 57.90625 29 57.90625 20.125 
Q 57.90625 9.515625 50.796875 4.046875 
Q 43.703125 -1.421875 29.984375 -1.421875 
Q 24.8125 -1.421875 18.96875 -0.25 
Q 13.140625 0.921875 6.890625 3.21875 
L 6.890625 13.375 
Q 12.890625 10.015625 18.65625 8.296875 
Q 24.421875 6.59375 29.984375 6.59375 
Q 38.421875 6.59375 43.015625 9.90625 
Q 47.609375 13.234375 47.609375 19.390625 
Q 47.609375 24.75 44.3125 27.78125 
Q 41.015625 30.8125 33.5 32.328125 
L 27.484375 33.5 
Q 16.453125 35.6875 11.515625 40.375 
Q 6.59375 45.0625 6.59375 53.421875 
Q 6.59375 63.09375 13.40625 68.65625 
Q 20.21875 74.21875 32.171875 74.21875 
Q 37.3125 74.21875 42.625 73.28125 
Q 47.953125 72.359375 53.515625 70.515625 
z
" id="DejaVuSans-83"/>
     <path d="M 18.109375 8.203125 
L 18.109375 -20.796875 
L 9.078125 -20.796875 
L 9.078125 54.6875 
L 18.109375 54.6875 
L 18.109375 46.390625 
Q 20.953125 51.265625 25.265625 53.625 
Q 29.59375 56 35.59375 56 
Q 45.5625 56 51.78125 48.09375 
Q 58.015625 40.1875 58.015625 27.296875 
Q 58.015625 14.40625 51.78125 6.484375 
Q 45.5625 -1.421875 35.59375 -1.421875 
Q 29.59375 -1.421875 25.265625 0.953125 
Q 20.953125 3.328125 18.109375 8.203125 
z
M 48.6875 27.296875 
Q 48.6875 37.203125 44.609375 42.84375 
Q 40.53125 48.484375 33.40625 48.484375 
Q 26.265625 48.484375 22.1875 42.84375 
Q 18.109375 37.203125 18.109375 27.296875 
Q 18.109375 17.390625 22.1875 11.75 
Q 26.265625 6.109375 33.40625 6.109375 
Q 40.53125 6.109375 44.609375 11.75 
Q 48.6875 17.390625 48.6875 27.296875 
z
" id="DejaVuSans-112"/>
     <path d="M 45.40625 46.390625 
L 45.40625 75.984375 
L 54.390625 75.984375 
L 54.390625 0 
L 45.40625 0 
L 45.40625 8.203125 
Q 42.578125 3.328125 38.25 0.953125 
Q 33.9375 -1.421875 27.875 -1.421875 
Q 17.96875 -1.421875 11.734375 6.484375 
Q 5.515625 14.40625 5.515625 27.296875 
Q 5.515625 40.1875 11.734375 48.09375 
Q 17.96875 56 27.875 56 
Q 33.9375 56 38.25 53.625 
Q 42.578125 51.265625 45.40625 46.390625 
z
M 14.796875 27.296875 
Q 14.796875 17.390625 18.875 11.75 
Q 22.953125 6.109375 30.078125 6.109375 
Q 37.203125 6.109375 41.296875 11.75 
Q 45.40625 17.390625 45.40625 27.296875 
Q 45.40625 37.203125 41.296875 42.84375 
Q 37.203125 48.484375 30.078125 48.484375 
Q 22.953125 48.484375 18.875 42.84375 
Q 14.796875 37.203125 14.796875 27.296875 
z
" id="DejaVuSans-100"/>
     <path d="M 48.78125 52.59375 
L 48.78125 44.1875 
Q 44.96875 46.296875 41.140625 47.34375 
Q 37.3125 48.390625 33.40625 48.390625 
Q 24.65625 48.390625 19.8125 42.84375 
Q 14.984375 37.3125 14.984375 27.296875 
Q 14.984375 17.28125 19.8125 11.734375 
Q 24.65625 6.203125 33.40625 6.203125 
Q 37.3125 6.203125 41.140625 7.25 
Q 44.96875 8.296875 48.78125 10.40625 
L 48.78125 2.09375 
Q 45.015625 0.34375 40.984375 -0.53125 
Q 36.96875 -1.421875 32.421875 -1.421875 
Q 20.0625 -1.421875 12.78125 6.34375 
Q 5.515625 14.109375 5.515625 27.296875 
Q 5.515625 40.671875 12.859375 48.328125 
Q 20.21875 56 33.015625 56 
Q 37.15625 56 41.109375 55.140625 
Q 45.0625 54.296875 48.78125 52.59375 
z
" id="DejaVuSans-99"/>
     <path d="M 54.890625 33.015625 
L 54.890625 0 
L 45.90625 0 
L 45.90625 32.71875 
Q 45.90625 40.484375 42.875 44.328125 
Q 39.84375 48.1875 33.796875 48.1875 
Q 26.515625 48.1875 22.3125 43.546875 
Q 18.109375 38.921875 18.109375 30.90625 
L 18.109375 0 
L 9.078125 0 
L 9.078125 54.6875 
L 18.109375 54.6875 
L 18.109375 46.1875 
Q 21.34375 51.125 25.703125 53.5625 
Q 30.078125 56 35.796875 56 
Q 45.21875 56 50.046875 50.171875 
Q 54.890625 44.34375 54.890625 33.015625 
z
" id="DejaVuSans-110"/>
    </defs>
    <g transform="translate(183.367438 16.318125)scale(0.12 -0.12)">
     <use xlink:href="#DejaVuSans-80"/>
     <use x="60.302734" xlink:href="#DejaVuSans-104"/>
     <use x="123.681641" xlink:href="#DejaVuSans-97"/>
     <use x="184.960938" xlink:href="#DejaVuSans-115"/>
     <use x="237.060547" xlink:href="#DejaVuSans-101"/>
     <use x="298.583984" xlink:href="#DejaVuSans-32"/>
     <use x="330.371094" xlink:href="#DejaVuSans-68"/>
     <use x="407.373047" xlink:href="#DejaVuSans-105"/>
     <use x="435.15625" xlink:href="#DejaVuSans-97"/>
     <use x="496.435547" xlink:href="#DejaVuSans-103"/>
     <use x="559.912109" xlink:href="#DejaVuSans-114"/>
     <use x="601.025391" xlink:href="#DejaVuSans-97"/>
     <use x="662.304688" xlink:href="#DejaVuSans-109"/>
     <use x="759.716797" xlink:href="#DejaVuSans-32"/>
     <use x="791.503906" xlink:href="#DejaVuSans-111"/>
     <use x="852.685547" xlink:href="#DejaVuSans-102"/>
     <use x="887.890625" xlink:href="#DejaVuSans-32"/>
     <use x="919.677734" xlink:href="#DejaVuSans-77"/>
     <use x="1005.957031" xlink:href="#DejaVuSans-117"/>
     <use x="1069.335938" xlink:href="#DejaVuSans-108"/>
     <use x="1097.119141" xlink:href="#DejaVuSans-116"/>
     <use x="1136.328125" xlink:href="#DejaVuSans-105"/>
     <use x="1164.111328" xlink:href="#DejaVuSans-45"/>
     <use x="1200.195312" xlink:href="#DejaVuSans-83"/>
     <use x="1263.671875" xlink:href="#DejaVuSans-116"/>
     <use x="1302.880859" xlink:href="#DejaVuSans-101"/>
     <use x="1364.404297" xlink:href="#DejaVuSans-112"/>
     <use x="1427.880859" xlink:href="#DejaVuSans-32"/>
     <use x="1459.667969" xlink:href="#DejaVuSans-80"/>
     <use x="1518.220703" xlink:href="#DejaVuSans-114"/>
     <use x="1557.083984" xlink:href="#DejaVuSans-101"/>
     <use x="1618.607422" xlink:href="#DejaVuSans-100"/>
     <use x="1682.083984" xlink:href="#DejaVuSans-105"/>
     <use x="1709.867188" xlink:href="#DejaVuSans-99"/>
     <use x="1764.847656" xlink:href="#DejaVuSans-116"/>
     <use x="1804.056641" xlink:href="#DejaVuSans-105"/>
     <use x="1831.839844" xlink:href="#DejaVuSans-111"/>
     <use x="1893.021484" xlink:href="#DejaVuSans-110"/>
    </g>
   </g>
   <g id="legend_1">
    <g id="patch_7">
     <path d="M 504.338938 61.316562 
L 542.338938 61.316562 
Q 544.338938 61.316562 544.338938 59.316562 
L 544.338938 29.318125 
Q 544.338938 27.318125 542.338938 27.318125 
L 504.338938 27.318125 
Q 502.338938 27.318125 502.338938 29.318125 
L 502.338938 59.316562 
Q 502.338938 61.316562 504.338938 61.316562 
z
" style="fill:#ffffff;opacity:0.8;stroke:#cccccc;stroke-linejoin:miter;"/>
    </g>
    <g id="PathCollection_3">
     <g>
      <use style="fill:#1f77b4;stroke:#1f77b4;" x="516.338938" xlink:href="#m778e9e9549" y="37.893125"/>
     </g>
    </g>
    <g id="text_18">
     <!-- $\hat{y}$ -->
     <defs>
      <path d="M -28.609375 79.984375 
L -21.390625 79.984375 
L -9.421875 61.625 
L -16.21875 61.625 
L -25 73.578125 
L -33.796875 61.625 
L -40.578125 61.625 
z
M -25 56 
z
" id="DejaVuSans-770"/>
     </defs>
     <g transform="translate(534.338938 40.518125)scale(0.1 -0.1)">
      <use transform="translate(62.373047 12.015625)" xlink:href="#DejaVuSans-770"/>
      <use transform="translate(0 0.828125)" xlink:href="#DejaVuSans-Oblique-121"/>
     </g>
    </g>
    <g id="PathCollection_4">
     <g>
      <use style="fill:#ff7f0e;stroke:#ff7f0e;" x="516.338938" xlink:href="#me42c653c74" y="52.591563"/>
     </g>
    </g>
    <g id="text_19">
     <!-- $y$ -->
     <g transform="translate(534.338938 55.216563)scale(0.1 -0.1)">
      <use transform="translate(0 0.3125)" xlink:href="#DejaVuSans-Oblique-121"/>
     </g>
    </g>
   </g>
  </g>
 </g>
 <defs>
  <clipPath id="pd8e5ca2e17">
   <rect height="309.9096" width="497.178" x="52.160938" y="22.318125"/>
  </clipPath>
 </defs>
</svg>
