<?xml version="1.0" encoding="utf-8" standalone="no"?>
<!DOCTYPE svg PUBLIC "-//W3C//DTD SVG 1.1//EN"
  "http://www.w3.org/Graphics/SVG/1.1/DTD/svg11.dtd">
<!-- Created with matplotlib (https://matplotlib.org/) -->
<svg height="415.799175pt" version="1.1" viewBox="0 0 614.570938 415.799175" width="614.570938pt" xmlns="http://www.w3.org/2000/svg" xmlns:xlink="http://www.w3.org/1999/xlink">
 <defs>
  <style type="text/css">
*{stroke-linecap:butt;stroke-linejoin:round;}
  </style>
 </defs>
 <g id="figure_1">
  <g id="patch_1">
   <path d="M 0 415.799175 
L 614.570938 415.799175 
L 614.570938 0 
L 0 0 
z
" style="fill:#ffffff;"/>
  </g>
  <g id="axes_1">
   <g id="patch_2">
    <path d="M 52.160938 378.242925 
L 607.370937 378.242925 
L 607.370937 22.318125 
L 52.160938 22.318125 
z
" style="fill:#ffffff;"/>
   </g>
   <g id="PathCollection_1">
    <defs>
     <path d="M 0 0.707107 
C 0.187527 0.707107 0.367398 0.632602 0.5 0.5 
C 0.632602 0.367398 0.707107 0.187527 0.707107 0 
C 0.707107 -0.187527 0.632602 -0.367398 0.5 -0.5 
C 0.367398 -0.632602 0.187527 -0.707107 0 -0.707107 
C -0.187527 -0.707107 -0.367398 -0.632602 -0.5 -0.5 
C -0.632602 -0.367398 -0.707107 -0.187527 -0.707107 0 
C -0.707107 0.187527 -0.632602 0.367398 -0.5 0.5 
C -0.367398 0.632602 -0.187527 0.707107 0 0.707107 
z
" id="m421b5fd97f" style="stroke:#1f77b4;"/>
    </defs>
    <g clip-path="url(#p338e5cd992)">
     <use style="fill:#1f77b4;stroke:#1f77b4;" x="431.86136" xlink:href="#m421b5fd97f" y="163.33105"/>
     <use style="fill:#1f77b4;stroke:#1f77b4;" x="413.028875" xlink:href="#m421b5fd97f" y="153.622539"/>
     <use style="fill:#1f77b4;stroke:#1f77b4;" x="434.573171" xlink:href="#m421b5fd97f" y="169.373496"/>
     <use style="fill:#1f77b4;stroke:#1f77b4;" x="399.619994" xlink:href="#m421b5fd97f" y="176.637964"/>
     <use style="fill:#1f77b4;stroke:#1f77b4;" x="383.499308" xlink:href="#m421b5fd97f" y="158.44297"/>
     <use style="fill:#1f77b4;stroke:#1f77b4;" x="423.876083" xlink:href="#m421b5fd97f" y="186.27882"/>
     <use style="fill:#1f77b4;stroke:#1f77b4;" x="362.105147" xlink:href="#m421b5fd97f" y="183.902433"/>
     <use style="fill:#1f77b4;stroke:#1f77b4;" x="367.378622" xlink:href="#m421b5fd97f" y="158.44297"/>
     <use style="fill:#1f77b4;stroke:#1f77b4;" x="423.876083" xlink:href="#m421b5fd97f" y="183.902433"/>
     <use style="fill:#1f77b4;stroke:#1f77b4;" x="367.378622" xlink:href="#m421b5fd97f" y="158.44297"/>
     <use style="fill:#1f77b4;stroke:#1f77b4;" x="423.876083" xlink:href="#m421b5fd97f" y="182.680413"/>
     <use style="fill:#1f77b4;stroke:#1f77b4;" x="370.090424" xlink:href="#m421b5fd97f" y="164.485417"/>
     <use style="fill:#1f77b4;stroke:#1f77b4;" x="410.467202" xlink:href="#m421b5fd97f" y="188.722859"/>
     <use style="fill:#1f77b4;stroke:#1f77b4;" x="356.681543" xlink:href="#m421b5fd97f" y="168.151478"/>
     <use style="fill:#1f77b4;stroke:#1f77b4;" x="402.331793" xlink:href="#m421b5fd97f" y="176.637964"/>
     <use style="fill:#1f77b4;stroke:#1f77b4;" x="383.499308" xlink:href="#m421b5fd97f" y="174.193925"/>
     <use style="fill:#1f77b4;stroke:#1f77b4;" x="388.922912" xlink:href="#m421b5fd97f" y="160.88701"/>
     <use style="fill:#1f77b4;stroke:#1f77b4;" x="418.452479" xlink:href="#m421b5fd97f" y="169.373496"/>
     <use style="fill:#1f77b4;stroke:#1f77b4;" x="399.619994" xlink:href="#m421b5fd97f" y="168.151478"/>
     <use style="fill:#1f77b4;stroke:#1f77b4;" x="402.331793" xlink:href="#m421b5fd97f" y="168.151478"/>
     <use style="fill:#1f77b4;stroke:#1f77b4;" x="402.331793" xlink:href="#m421b5fd97f" y="168.151478"/>
     <use style="fill:#1f77b4;stroke:#1f77b4;" x="402.331793" xlink:href="#m421b5fd97f" y="164.485417"/>
     <use style="fill:#1f77b4;stroke:#1f77b4;" x="410.467202" xlink:href="#m421b5fd97f" y="170.527864"/>
     <use style="fill:#1f77b4;stroke:#1f77b4;" x="397.058321" xlink:href="#m421b5fd97f" y="165.707438"/>
     <use style="fill:#1f77b4;stroke:#1f77b4;" x="407.755397" xlink:href="#m421b5fd97f" y="182.680413"/>
     <use style="fill:#1f77b4;stroke:#1f77b4;" x="370.090424" xlink:href="#m421b5fd97f" y="181.458393"/>
     <use style="fill:#1f77b4;stroke:#1f77b4;" x="372.802226" xlink:href="#m421b5fd97f" y="174.193925"/>
     <use style="fill:#1f77b4;stroke:#1f77b4;" x="388.922912" xlink:href="#m421b5fd97f" y="174.193925"/>
     <use style="fill:#1f77b4;stroke:#1f77b4;" x="388.922912" xlink:href="#m421b5fd97f" y="187.50084"/>
     <use style="fill:#1f77b4;stroke:#1f77b4;" x="359.393345" xlink:href="#m421b5fd97f" y="172.971903"/>
     <use style="fill:#1f77b4;stroke:#1f77b4;" x="391.634717" xlink:href="#m421b5fd97f" y="191.166901"/>
     <use style="fill:#1f77b4;stroke:#1f77b4;" x="351.257936" xlink:href="#m421b5fd97f" y="198.431369"/>
     <use style="fill:#1f77b4;stroke:#1f77b4;" x="335.13725" xlink:href="#m421b5fd97f" y="162.041377"/>
     <use style="fill:#1f77b4;stroke:#1f77b4;" x="415.890806" xlink:href="#m421b5fd97f" y="163.263396"/>
     <use style="fill:#1f77b4;stroke:#1f77b4;" x="413.179007" xlink:href="#m421b5fd97f" y="175.415946"/>
     <use style="fill:#1f77b4;stroke:#1f77b4;" x="386.211107" xlink:href="#m421b5fd97f" y="185.124452"/>
     <use style="fill:#1f77b4;stroke:#1f77b4;" x="364.66682" xlink:href="#m421b5fd97f" y="143.914034"/>
     <use style="fill:#1f77b4;stroke:#1f77b4;" x="456.117455" xlink:href="#m421b5fd97f" y="145.136058"/>
     <use style="fill:#1f77b4;stroke:#1f77b4;" x="453.405645" xlink:href="#m421b5fd97f" y="177.859986"/>
     <use style="fill:#1f77b4;stroke:#1f77b4;" x="380.787503" xlink:href="#m421b5fd97f" y="169.373496"/>
     <use style="fill:#1f77b4;stroke:#1f77b4;" x="399.619994" xlink:href="#m421b5fd97f" y="166.929457"/>
     <use style="fill:#1f77b4;stroke:#1f77b4;" x="405.043598" xlink:href="#m421b5fd97f" y="182.680413"/>
     <use style="fill:#1f77b4;stroke:#1f77b4;" x="370.090424" xlink:href="#m421b5fd97f" y="181.458393"/>
     <use style="fill:#1f77b4;stroke:#1f77b4;" x="372.802226" xlink:href="#m421b5fd97f" y="171.749885"/>
     <use style="fill:#1f77b4;stroke:#1f77b4;" x="394.346516" xlink:href="#m421b5fd97f" y="188.722859"/>
     <use style="fill:#1f77b4;stroke:#1f77b4;" x="356.681543" xlink:href="#m421b5fd97f" y="164.485417"/>
     <use style="fill:#1f77b4;stroke:#1f77b4;" x="410.467202" xlink:href="#m421b5fd97f" y="166.929457"/>
     <use style="fill:#1f77b4;stroke:#1f77b4;" x="405.043598" xlink:href="#m421b5fd97f" y="183.902433"/>
     <use style="fill:#1f77b4;stroke:#1f77b4;" x="367.378622" xlink:href="#m421b5fd97f" y="181.458393"/>
     <use style="fill:#1f77b4;stroke:#1f77b4;" x="372.802226" xlink:href="#m421b5fd97f" y="180.236372"/>
     <use style="fill:#1f77b4;stroke:#1f77b4;" x="375.514031" xlink:href="#m421b5fd97f" y="171.749885"/>
     <use style="fill:#1f77b4;stroke:#1f77b4;" x="394.346516" xlink:href="#m421b5fd97f" y="189.944879"/>
     <use style="fill:#1f77b4;stroke:#1f77b4;" x="353.969741" xlink:href="#m421b5fd97f" y="171.749885"/>
     <use style="fill:#1f77b4;stroke:#1f77b4;" x="394.346516" xlink:href="#m421b5fd97f" y="187.50084"/>
     <use style="fill:#1f77b4;stroke:#1f77b4;" x="359.393345" xlink:href="#m421b5fd97f" y="172.971903"/>
     <use style="fill:#1f77b4;stroke:#1f77b4;" x="391.634717" xlink:href="#m421b5fd97f" y="188.722859"/>
     <use style="fill:#1f77b4;stroke:#1f77b4;" x="356.681543" xlink:href="#m421b5fd97f" y="157.220949"/>
     <use style="fill:#1f77b4;stroke:#1f77b4;" x="426.587888" xlink:href="#m421b5fd97f" y="172.971903"/>
     <use style="fill:#1f77b4;stroke:#1f77b4;" x="391.634717" xlink:href="#m421b5fd97f" y="172.971903"/>
     <use style="fill:#1f77b4;stroke:#1f77b4;" x="391.634717" xlink:href="#m421b5fd97f" y="182.680413"/>
     <use style="fill:#1f77b4;stroke:#1f77b4;" x="370.090424" xlink:href="#m421b5fd97f" y="175.415946"/>
     <use style="fill:#1f77b4;stroke:#1f77b4;" x="386.211107" xlink:href="#m421b5fd97f" y="174.193925"/>
     <use style="fill:#1f77b4;stroke:#1f77b4;" x="388.922912" xlink:href="#m421b5fd97f" y="187.50084"/>
     <use style="fill:#1f77b4;stroke:#1f77b4;" x="359.393345" xlink:href="#m421b5fd97f" y="180.236372"/>
     <use style="fill:#1f77b4;stroke:#1f77b4;" x="375.514031" xlink:href="#m421b5fd97f" y="174.193925"/>
     <use style="fill:#1f77b4;stroke:#1f77b4;" x="388.922912" xlink:href="#m421b5fd97f" y="171.749885"/>
     <use style="fill:#1f77b4;stroke:#1f77b4;" x="394.346516" xlink:href="#m421b5fd97f" y="171.749885"/>
     <use style="fill:#1f77b4;stroke:#1f77b4;" x="394.346516" xlink:href="#m421b5fd97f" y="158.44297"/>
     <use style="fill:#1f77b4;stroke:#1f77b4;" x="423.876083" xlink:href="#m421b5fd97f" y="157.220949"/>
     <use style="fill:#1f77b4;stroke:#1f77b4;" x="426.587888" xlink:href="#m421b5fd97f" y="176.637964"/>
     <use style="fill:#1f77b4;stroke:#1f77b4;" x="383.499308" xlink:href="#m421b5fd97f" y="174.193925"/>
     <use style="fill:#1f77b4;stroke:#1f77b4;" x="388.922912" xlink:href="#m421b5fd97f" y="174.193925"/>
     <use style="fill:#1f77b4;stroke:#1f77b4;" x="388.922912" xlink:href="#m421b5fd97f" y="172.971903"/>
     <use style="fill:#1f77b4;stroke:#1f77b4;" x="391.634717" xlink:href="#m421b5fd97f" y="159.664989"/>
     <use style="fill:#1f77b4;stroke:#1f77b4;" x="421.164284" xlink:href="#m421b5fd97f" y="181.458393"/>
     <use style="fill:#1f77b4;stroke:#1f77b4;" x="372.802226" xlink:href="#m421b5fd97f" y="168.151478"/>
     <use style="fill:#1f77b4;stroke:#1f77b4;" x="402.331793" xlink:href="#m421b5fd97f" y="172.971903"/>
     <use style="fill:#1f77b4;stroke:#1f77b4;" x="391.634717" xlink:href="#m421b5fd97f" y="160.88701"/>
     <use style="fill:#1f77b4;stroke:#1f77b4;" x="418.452479" xlink:href="#m421b5fd97f" y="160.88701"/>
     <use style="fill:#1f77b4;stroke:#1f77b4;" x="418.452479" xlink:href="#m421b5fd97f" y="160.88701"/>
     <use style="fill:#1f77b4;stroke:#1f77b4;" x="418.452479" xlink:href="#m421b5fd97f" y="169.373496"/>
     <use style="fill:#1f77b4;stroke:#1f77b4;" x="399.619994" xlink:href="#m421b5fd97f" y="182.680413"/>
     <use style="fill:#1f77b4;stroke:#1f77b4;" x="370.090424" xlink:href="#m421b5fd97f" y="180.236372"/>
     <use style="fill:#1f77b4;stroke:#1f77b4;" x="375.514031" xlink:href="#m421b5fd97f" y="165.707438"/>
     <use style="fill:#1f77b4;stroke:#1f77b4;" x="407.755397" xlink:href="#m421b5fd97f" y="175.415946"/>
     <use style="fill:#1f77b4;stroke:#1f77b4;" x="386.211107" xlink:href="#m421b5fd97f" y="183.902433"/>
     <use style="fill:#1f77b4;stroke:#1f77b4;" x="367.378622" xlink:href="#m421b5fd97f" y="158.44297"/>
     <use style="fill:#1f77b4;stroke:#1f77b4;" x="423.876083" xlink:href="#m421b5fd97f" y="174.193925"/>
     <use style="fill:#1f77b4;stroke:#1f77b4;" x="388.922912" xlink:href="#m421b5fd97f" y="175.415946"/>
     <use style="fill:#1f77b4;stroke:#1f77b4;" x="386.211107" xlink:href="#m421b5fd97f" y="169.373496"/>
    </g>
   </g>
   <g id="PathCollection_2">
    <defs>
     <path d="M 0 0.707107 
C 0.187527 0.707107 0.367398 0.632602 0.5 0.5 
C 0.632602 0.367398 0.707107 0.187527 0.707107 0 
C 0.707107 -0.187527 0.632602 -0.367398 0.5 -0.5 
C 0.367398 -0.632602 0.187527 -0.707107 0 -0.707107 
C -0.187527 -0.707107 -0.367398 -0.632602 -0.5 -0.5 
C -0.632602 -0.367398 -0.707107 -0.187527 -0.707107 0 
C -0.707107 0.187527 -0.632602 0.367398 -0.5 0.5 
C -0.367398 0.632602 -0.187527 0.707107 0 0.707107 
z
" id="mdab01f6ea2" style="stroke:#ff7f0e;"/>
    </defs>
    <g clip-path="url(#p338e5cd992)">
     <use style="fill:#ff7f0e;stroke:#ff7f0e;" x="529.14095" xlink:href="#mdab01f6ea2" y="227.013807"/>
     <use style="fill:#ff7f0e;stroke:#ff7f0e;" x="271.709547" xlink:href="#mdab01f6ea2" y="95.761754"/>
     <use style="fill:#ff7f0e;stroke:#ff7f0e;" x="562.972877" xlink:href="#mdab01f6ea2" y="291.196555"/>
     <use style="fill:#ff7f0e;stroke:#ff7f0e;" x="129.280684" xlink:href="#mdab01f6ea2" y="209.993809"/>
     <use style="fill:#ff7f0e;stroke:#ff7f0e;" x="309.478871" xlink:href="#mdab01f6ea2" y="140.058573"/>
     <use style="fill:#ff7f0e;stroke:#ff7f0e;" x="464.673165" xlink:href="#mdab01f6ea2" y="171.274319"/>
     <use style="fill:#ff7f0e;stroke:#ff7f0e;" x="395.401852" xlink:href="#mdab01f6ea2" y="106.470408"/>
     <use style="fill:#ff7f0e;stroke:#ff7f0e;" x="539.209147" xlink:href="#mdab01f6ea2" y="241.05898"/>
     <use style="fill:#ff7f0e;stroke:#ff7f0e;" x="240.5417" xlink:href="#mdab01f6ea2" y="109.31952"/>
     <use style="fill:#ff7f0e;stroke:#ff7f0e;" x="532.886641" xlink:href="#mdab01f6ea2" y="253.711666"/>
     <use style="fill:#ff7f0e;stroke:#ff7f0e;" x="212.463942" xlink:href="#mdab01f6ea2" y="128.928848"/>
     <use style="fill:#ff7f0e;stroke:#ff7f0e;" x="489.371299" xlink:href="#mdab01f6ea2" y="207.429707"/>
     <use style="fill:#ff7f0e;stroke:#ff7f0e;" x="315.168908" xlink:href="#mdab01f6ea2" y="90.697979"/>
     <use style="fill:#ff7f0e;stroke:#ff7f0e;" x="574.209973" xlink:href="#mdab01f6ea2" y="302.379126"/>
     <use style="fill:#ff7f0e;stroke:#ff7f0e;" x="104.465279" xlink:href="#mdab01f6ea2" y="242.434201"/>
     <use style="fill:#ff7f0e;stroke:#ff7f0e;" x="237.489927" xlink:href="#mdab01f6ea2" y="169.886554"/>
     <use style="fill:#ff7f0e;stroke:#ff7f0e;" x="398.48146" xlink:href="#mdab01f6ea2" y="138.480077"/>
     <use style="fill:#ff7f0e;stroke:#ff7f0e;" x="468.176028" xlink:href="#mdab01f6ea2" y="162.272629"/>
     <use style="fill:#ff7f0e;stroke:#ff7f0e;" x="415.377632" xlink:href="#mdab01f6ea2" y="115.488044"/>
     <use style="fill:#ff7f0e;stroke:#ff7f0e;" x="519.197982" xlink:href="#mdab01f6ea2" y="213.018282"/>
     <use style="fill:#ff7f0e;stroke:#ff7f0e;" x="302.767219" xlink:href="#mdab01f6ea2" y="88.414378"/>
     <use style="fill:#ff7f0e;stroke:#ff7f0e;" x="579.277544" xlink:href="#mdab01f6ea2" y="312.012244"/>
     <use style="fill:#ff7f0e;stroke:#ff7f0e;" x="83.088286" xlink:href="#mdab01f6ea2" y="274.158139"/>
     <use style="fill:#ff7f0e;stroke:#ff7f0e;" x="167.090878" xlink:href="#mdab01f6ea2" y="230.691613"/>
     <use style="fill:#ff7f0e;stroke:#ff7f0e;" x="263.548074" xlink:href="#mdab01f6ea2" y="148.01364"/>
     <use style="fill:#ff7f0e;stroke:#ff7f0e;" x="447.01996" xlink:href="#mdab01f6ea2" y="163.404296"/>
     <use style="fill:#ff7f0e;stroke:#ff7f0e;" x="412.866333" xlink:href="#mdab01f6ea2" y="117.014775"/>
     <use style="fill:#ff7f0e;stroke:#ff7f0e;" x="515.809989" xlink:href="#mdab01f6ea2" y="209.32084"/>
     <use style="fill:#ff7f0e;stroke:#ff7f0e;" x="310.972265" xlink:href="#mdab01f6ea2" y="87.60547"/>
     <use style="fill:#ff7f0e;stroke:#ff7f0e;" x="581.072604" xlink:href="#mdab01f6ea2" y="313.760755"/>
     <use style="fill:#ff7f0e;stroke:#ff7f0e;" x="79.20814" xlink:href="#mdab01f6ea2" y="280.111147"/>
     <use style="fill:#ff7f0e;stroke:#ff7f0e;" x="153.880472" xlink:href="#mdab01f6ea2" y="245.612885"/>
     <use style="fill:#ff7f0e;stroke:#ff7f0e;" x="230.436065" xlink:href="#mdab01f6ea2" y="167.581548"/>
     <use style="fill:#ff7f0e;stroke:#ff7f0e;" x="403.596532" xlink:href="#mdab01f6ea2" y="141.721827"/>
     <use style="fill:#ff7f0e;stroke:#ff7f0e;" x="460.982214" xlink:href="#mdab01f6ea2" y="155.442257"/>
     <use style="fill:#ff7f0e;stroke:#ff7f0e;" x="430.535008" xlink:href="#mdab01f6ea2" y="125.363774"/>
     <use style="fill:#ff7f0e;stroke:#ff7f0e;" x="497.282605" xlink:href="#mdab01f6ea2" y="186.153329"/>
     <use style="fill:#ff7f0e;stroke:#ff7f0e;" x="362.383625" xlink:href="#mdab01f6ea2" y="91.964384"/>
     <use style="fill:#ff7f0e;stroke:#ff7f0e;" x="571.399675" xlink:href="#mdab01f6ea2" y="291.654539"/>
     <use style="fill:#ff7f0e;stroke:#ff7f0e;" x="128.264364" xlink:href="#mdab01f6ea2" y="210.168139"/>
     <use style="fill:#ff7f0e;stroke:#ff7f0e;" x="309.092014" xlink:href="#mdab01f6ea2" y="140.249728"/>
     <use style="fill:#ff7f0e;stroke:#ff7f0e;" x="464.248969" xlink:href="#mdab01f6ea2" y="170.964944"/>
     <use style="fill:#ff7f0e;stroke:#ff7f0e;" x="396.08839" xlink:href="#mdab01f6ea2" y="106.811648"/>
     <use style="fill:#ff7f0e;stroke:#ff7f0e;" x="538.451897" xlink:href="#mdab01f6ea2" y="239.960694"/>
     <use style="fill:#ff7f0e;stroke:#ff7f0e;" x="242.978923" xlink:href="#mdab01f6ea2" y="108.031561"/>
     <use style="fill:#ff7f0e;stroke:#ff7f0e;" x="535.744771" xlink:href="#mdab01f6ea2" y="257.094807"/>
     <use style="fill:#ff7f0e;stroke:#ff7f0e;" x="204.956365" xlink:href="#mdab01f6ea2" y="134.410734"/>
     <use style="fill:#ff7f0e;stroke:#ff7f0e;" x="477.206366" xlink:href="#mdab01f6ea2" y="196.609284"/>
     <use style="fill:#ff7f0e;stroke:#ff7f0e;" x="339.180665" xlink:href="#mdab01f6ea2" y="91.750444"/>
     <use style="fill:#ff7f0e;stroke:#ff7f0e;" x="571.874433" xlink:href="#mdab01f6ea2" y="295.521249"/>
     <use style="fill:#ff7f0e;stroke:#ff7f0e;" x="119.683691" xlink:href="#mdab01f6ea2" y="221.457124"/>
     <use style="fill:#ff7f0e;stroke:#ff7f0e;" x="284.040462" xlink:href="#mdab01f6ea2" y="146.927274"/>
     <use style="fill:#ff7f0e;stroke:#ff7f0e;" x="449.430731" xlink:href="#mdab01f6ea2" y="162.439258"/>
     <use style="fill:#ff7f0e;stroke:#ff7f0e;" x="415.007864" xlink:href="#mdab01f6ea2" y="117.82335"/>
     <use style="fill:#ff7f0e;stroke:#ff7f0e;" x="514.01567" xlink:href="#mdab01f6ea2" y="206.923031"/>
     <use style="fill:#ff7f0e;stroke:#ff7f0e;" x="316.293279" xlink:href="#mdab01f6ea2" y="87.256391"/>
     <use style="fill:#ff7f0e;stroke:#ff7f0e;" x="581.847249" xlink:href="#mdab01f6ea2" y="314.281026"/>
     <use style="fill:#ff7f0e;stroke:#ff7f0e;" x="78.053599" xlink:href="#mdab01f6ea2" y="281.868552"/>
     <use style="fill:#ff7f0e;stroke:#ff7f0e;" x="149.980589" xlink:href="#mdab01f6ea2" y="250.232253"/>
     <use style="fill:#ff7f0e;stroke:#ff7f0e;" x="220.185159" xlink:href="#mdab01f6ea2" y="175.033974"/>
     <use style="fill:#ff7f0e;stroke:#ff7f0e;" x="387.058746" xlink:href="#mdab01f6ea2" y="136.313296"/>
     <use style="fill:#ff7f0e;stroke:#ff7f0e;" x="472.984363" xlink:href="#mdab01f6ea2" y="168.104453"/>
     <use style="fill:#ff7f0e;stroke:#ff7f0e;" x="402.436147" xlink:href="#mdab01f6ea2" y="108.398205"/>
     <use style="fill:#ff7f0e;stroke:#ff7f0e;" x="534.931145" xlink:href="#mdab01f6ea2" y="234.475729"/>
     <use style="fill:#ff7f0e;stroke:#ff7f0e;" x="255.150688" xlink:href="#mdab01f6ea2" y="102.132189"/>
     <use style="fill:#ff7f0e;stroke:#ff7f0e;" x="548.836152" xlink:href="#mdab01f6ea2" y="273.12175"/>
     <use style="fill:#ff7f0e;stroke:#ff7f0e;" x="169.390745" xlink:href="#mdab01f6ea2" y="165.335175"/>
     <use style="fill:#ff7f0e;stroke:#ff7f0e;" x="408.581493" xlink:href="#mdab01f6ea2" y="152.365283"/>
     <use style="fill:#ff7f0e;stroke:#ff7f0e;" x="437.363167" xlink:href="#mdab01f6ea2" y="136.938166"/>
     <use style="fill:#ff7f0e;stroke:#ff7f0e;" x="471.597704" xlink:href="#mdab01f6ea2" y="160.052206"/>
     <use style="fill:#ff7f0e;stroke:#ff7f0e;" x="420.305005" xlink:href="#mdab01f6ea2" y="117.758677"/>
     <use style="fill:#ff7f0e;stroke:#ff7f0e;" x="514.159187" xlink:href="#mdab01f6ea2" y="206.37478"/>
     <use style="fill:#ff7f0e;stroke:#ff7f0e;" x="317.509911" xlink:href="#mdab01f6ea2" y="87.127119"/>
     <use style="fill:#ff7f0e;stroke:#ff7f0e;" x="582.134119" xlink:href="#mdab01f6ea2" y="314.576569"/>
     <use style="fill:#ff7f0e;stroke:#ff7f0e;" x="77.397756" xlink:href="#mdab01f6ea2" y="282.891327"/>
     <use style="fill:#ff7f0e;stroke:#ff7f0e;" x="147.710935" xlink:href="#mdab01f6ea2" y="252.963204"/>
     <use style="fill:#ff7f0e;stroke:#ff7f0e;" x="214.124866" xlink:href="#mdab01f6ea2" y="179.750784"/>
     <use style="fill:#ff7f0e;stroke:#ff7f0e;" x="376.591605" xlink:href="#mdab01f6ea2" y="133.735399"/>
     <use style="fill:#ff7f0e;stroke:#ff7f0e;" x="478.705012" xlink:href="#mdab01f6ea2" y="174.813046"/>
     <use style="fill:#ff7f0e;stroke:#ff7f0e;" x="387.549011" xlink:href="#mdab01f6ea2" y="101.54052"/>
     <use style="fill:#ff7f0e;stroke:#ff7f0e;" x="550.149134" xlink:href="#mdab01f6ea2" y="257.055798"/>
     <use style="fill:#ff7f0e;stroke:#ff7f0e;" x="205.04293" xlink:href="#mdab01f6ea2" y="132.393697"/>
     <use style="fill:#ff7f0e;stroke:#ff7f0e;" x="481.682401" xlink:href="#mdab01f6ea2" y="200.842388"/>
     <use style="fill:#ff7f0e;stroke:#ff7f0e;" x="329.786922" xlink:href="#mdab01f6ea2" y="90.938247"/>
     <use style="fill:#ff7f0e;stroke:#ff7f0e;" x="573.676791" xlink:href="#mdab01f6ea2" y="299.57535"/>
     <use style="fill:#ff7f0e;stroke:#ff7f0e;" x="110.687178" xlink:href="#mdab01f6ea2" y="233.622076"/>
     <use style="fill:#ff7f0e;stroke:#ff7f0e;" x="257.045042" xlink:href="#mdab01f6ea2" y="158.578238"/>
     <use style="fill:#ff7f0e;stroke:#ff7f0e;" x="423.575908" xlink:href="#mdab01f6ea2" y="148.663894"/>
     <use style="fill:#ff7f0e;stroke:#ff7f0e;" x="445.576972" xlink:href="#mdab01f6ea2" y="140.707464"/>
     <use style="fill:#ff7f0e;stroke:#ff7f0e;" x="463.233202" xlink:href="#mdab01f6ea2" y="151.652307"/>
    </g>
   </g>
   <g id="matplotlib.axis_1">
    <g id="xtick_1">
     <g id="line2d_1">
      <defs>
       <path d="M 0 0 
L 0 3.5 
" id="m5eb7a916e8" style="stroke:#000000;stroke-width:0.8;"/>
      </defs>
      <g>
       <use style="stroke:#000000;stroke-width:0.8;" x="133.574292" xlink:href="#m5eb7a916e8" y="378.242925"/>
      </g>
     </g>
     <g id="text_1">
      <!-- −1.0 -->
      <defs>
       <path d="M 10.59375 35.5 
L 73.1875 35.5 
L 73.1875 27.203125 
L 10.59375 27.203125 
z
" id="DejaVuSans-8722"/>
       <path d="M 12.40625 8.296875 
L 28.515625 8.296875 
L 28.515625 63.921875 
L 10.984375 60.40625 
L 10.984375 69.390625 
L 28.421875 72.90625 
L 38.28125 72.90625 
L 38.28125 8.296875 
L 54.390625 8.296875 
L 54.390625 0 
L 12.40625 0 
z
" id="DejaVuSans-49"/>
       <path d="M 10.6875 12.40625 
L 21 12.40625 
L 21 0 
L 10.6875 0 
z
" id="DejaVuSans-46"/>
       <path d="M 31.78125 66.40625 
Q 24.171875 66.40625 20.328125 58.90625 
Q 16.5 51.421875 16.5 36.375 
Q 16.5 21.390625 20.328125 13.890625 
Q 24.171875 6.390625 31.78125 6.390625 
Q 39.453125 6.390625 43.28125 13.890625 
Q 47.125 21.390625 47.125 36.375 
Q 47.125 51.421875 43.28125 58.90625 
Q 39.453125 66.40625 31.78125 66.40625 
z
M 31.78125 74.21875 
Q 44.046875 74.21875 50.515625 64.515625 
Q 56.984375 54.828125 56.984375 36.375 
Q 56.984375 17.96875 50.515625 8.265625 
Q 44.046875 -1.421875 31.78125 -1.421875 
Q 19.53125 -1.421875 13.0625 8.265625 
Q 6.59375 17.96875 6.59375 36.375 
Q 6.59375 54.828125 13.0625 64.515625 
Q 19.53125 74.21875 31.78125 74.21875 
z
" id="DejaVuSans-48"/>
      </defs>
      <g transform="translate(121.432886 392.841363)scale(0.1 -0.1)">
       <use xlink:href="#DejaVuSans-8722"/>
       <use x="83.789062" xlink:href="#DejaVuSans-49"/>
       <use x="147.412109" xlink:href="#DejaVuSans-46"/>
       <use x="179.199219" xlink:href="#DejaVuSans-48"/>
      </g>
     </g>
    </g>
    <g id="xtick_2">
     <g id="line2d_2">
      <g>
       <use style="stroke:#000000;stroke-width:0.8;" x="232.304026" xlink:href="#m5eb7a916e8" y="378.242925"/>
      </g>
     </g>
     <g id="text_2">
      <!-- −0.5 -->
      <defs>
       <path d="M 10.796875 72.90625 
L 49.515625 72.90625 
L 49.515625 64.59375 
L 19.828125 64.59375 
L 19.828125 46.734375 
Q 21.96875 47.46875 24.109375 47.828125 
Q 26.265625 48.1875 28.421875 48.1875 
Q 40.625 48.1875 47.75 41.5 
Q 54.890625 34.8125 54.890625 23.390625 
Q 54.890625 11.625 47.5625 5.09375 
Q 40.234375 -1.421875 26.90625 -1.421875 
Q 22.3125 -1.421875 17.546875 -0.640625 
Q 12.796875 0.140625 7.71875 1.703125 
L 7.71875 11.625 
Q 12.109375 9.234375 16.796875 8.0625 
Q 21.484375 6.890625 26.703125 6.890625 
Q 35.15625 6.890625 40.078125 11.328125 
Q 45.015625 15.765625 45.015625 23.390625 
Q 45.015625 31 40.078125 35.4375 
Q 35.15625 39.890625 26.703125 39.890625 
Q 22.75 39.890625 18.8125 39.015625 
Q 14.890625 38.140625 10.796875 36.28125 
z
" id="DejaVuSans-53"/>
      </defs>
      <g transform="translate(220.16262 392.841363)scale(0.1 -0.1)">
       <use xlink:href="#DejaVuSans-8722"/>
       <use x="83.789062" xlink:href="#DejaVuSans-48"/>
       <use x="147.412109" xlink:href="#DejaVuSans-46"/>
       <use x="179.199219" xlink:href="#DejaVuSans-53"/>
      </g>
     </g>
    </g>
    <g id="xtick_3">
     <g id="line2d_3">
      <g>
       <use style="stroke:#000000;stroke-width:0.8;" x="331.03376" xlink:href="#m5eb7a916e8" y="378.242925"/>
      </g>
     </g>
     <g id="text_3">
      <!-- 0.0 -->
      <g transform="translate(323.082197 392.841363)scale(0.1 -0.1)">
       <use xlink:href="#DejaVuSans-48"/>
       <use x="63.623047" xlink:href="#DejaVuSans-46"/>
       <use x="95.410156" xlink:href="#DejaVuSans-48"/>
      </g>
     </g>
    </g>
    <g id="xtick_4">
     <g id="line2d_4">
      <g>
       <use style="stroke:#000000;stroke-width:0.8;" x="429.763494" xlink:href="#m5eb7a916e8" y="378.242925"/>
      </g>
     </g>
     <g id="text_4">
      <!-- 0.5 -->
      <g transform="translate(421.811931 392.841363)scale(0.1 -0.1)">
       <use xlink:href="#DejaVuSans-48"/>
       <use x="63.623047" xlink:href="#DejaVuSans-46"/>
       <use x="95.410156" xlink:href="#DejaVuSans-53"/>
      </g>
     </g>
    </g>
    <g id="xtick_5">
     <g id="line2d_5">
      <g>
       <use style="stroke:#000000;stroke-width:0.8;" x="528.493228" xlink:href="#m5eb7a916e8" y="378.242925"/>
      </g>
     </g>
     <g id="text_5">
      <!-- 1.0 -->
      <g transform="translate(520.541665 392.841363)scale(0.1 -0.1)">
       <use xlink:href="#DejaVuSans-49"/>
       <use x="63.623047" xlink:href="#DejaVuSans-46"/>
       <use x="95.410156" xlink:href="#DejaVuSans-48"/>
      </g>
     </g>
    </g>
    <g id="text_6">
     <!-- $x_t$ -->
     <defs>
      <path d="M 60.015625 54.6875 
L 34.90625 27.875 
L 50.296875 0 
L 39.984375 0 
L 28.421875 21.6875 
L 8.296875 0 
L -2.59375 0 
L 24.3125 28.8125 
L 10.015625 54.6875 
L 20.3125 54.6875 
L 30.8125 34.90625 
L 49.125 54.6875 
z
" id="DejaVuSans-Oblique-120"/>
      <path d="M 42.28125 54.6875 
L 40.921875 47.703125 
L 23 47.703125 
L 17.1875 18.015625 
Q 16.890625 16.359375 16.75 15.234375 
Q 16.609375 14.109375 16.609375 13.484375 
Q 16.609375 10.359375 18.484375 8.9375 
Q 20.359375 7.515625 24.515625 7.515625 
L 33.59375 7.515625 
L 32.078125 0 
L 23.484375 0 
Q 15.484375 0 11.546875 3.125 
Q 7.625 6.25 7.625 12.59375 
Q 7.625 13.71875 7.765625 15.0625 
Q 7.90625 16.40625 8.203125 18.015625 
L 14.015625 47.703125 
L 6.390625 47.703125 
L 7.8125 54.6875 
L 15.28125 54.6875 
L 18.3125 70.21875 
L 27.296875 70.21875 
L 24.3125 54.6875 
z
" id="DejaVuSans-Oblique-116"/>
     </defs>
     <g transform="translate(325.265937 406.519487)scale(0.1 -0.1)">
      <use transform="translate(0 0.3125)" xlink:href="#DejaVuSans-Oblique-120"/>
      <use transform="translate(59.179688 -16.09375)scale(0.7)" xlink:href="#DejaVuSans-Oblique-116"/>
     </g>
    </g>
   </g>
   <g id="matplotlib.axis_2">
    <g id="ytick_1">
     <g id="line2d_6">
      <defs>
       <path d="M 0 0 
L -3.5 0 
" id="m9c44712eec" style="stroke:#000000;stroke-width:0.8;"/>
      </defs>
      <g>
       <use style="stroke:#000000;stroke-width:0.8;" x="52.160938" xlink:href="#m9c44712eec" y="378.242925"/>
      </g>
     </g>
     <g id="text_7">
      <!-- −2.0 -->
      <defs>
       <path d="M 19.1875 8.296875 
L 53.609375 8.296875 
L 53.609375 0 
L 7.328125 0 
L 7.328125 8.296875 
Q 12.9375 14.109375 22.625 23.890625 
Q 32.328125 33.6875 34.8125 36.53125 
Q 39.546875 41.84375 41.421875 45.53125 
Q 43.3125 49.21875 43.3125 52.78125 
Q 43.3125 58.59375 39.234375 62.25 
Q 35.15625 65.921875 28.609375 65.921875 
Q 23.96875 65.921875 18.8125 64.3125 
Q 13.671875 62.703125 7.8125 59.421875 
L 7.8125 69.390625 
Q 13.765625 71.78125 18.9375 73 
Q 24.125 74.21875 28.421875 74.21875 
Q 39.75 74.21875 46.484375 68.546875 
Q 53.21875 62.890625 53.21875 53.421875 
Q 53.21875 48.921875 51.53125 44.890625 
Q 49.859375 40.875 45.40625 35.40625 
Q 44.1875 33.984375 37.640625 27.21875 
Q 31.109375 20.453125 19.1875 8.296875 
z
" id="DejaVuSans-50"/>
      </defs>
      <g transform="translate(20.878125 382.042144)scale(0.1 -0.1)">
       <use xlink:href="#DejaVuSans-8722"/>
       <use x="83.789062" xlink:href="#DejaVuSans-50"/>
       <use x="147.412109" xlink:href="#DejaVuSans-46"/>
       <use x="179.199219" xlink:href="#DejaVuSans-48"/>
      </g>
     </g>
    </g>
    <g id="ytick_2">
     <g id="line2d_7">
      <g>
       <use style="stroke:#000000;stroke-width:0.8;" x="52.160938" xlink:href="#m9c44712eec" y="333.752325"/>
      </g>
     </g>
     <g id="text_8">
      <!-- −1.5 -->
      <g transform="translate(20.878125 337.551544)scale(0.1 -0.1)">
       <use xlink:href="#DejaVuSans-8722"/>
       <use x="83.789062" xlink:href="#DejaVuSans-49"/>
       <use x="147.412109" xlink:href="#DejaVuSans-46"/>
       <use x="179.199219" xlink:href="#DejaVuSans-53"/>
      </g>
     </g>
    </g>
    <g id="ytick_3">
     <g id="line2d_8">
      <g>
       <use style="stroke:#000000;stroke-width:0.8;" x="52.160938" xlink:href="#m9c44712eec" y="289.261725"/>
      </g>
     </g>
     <g id="text_9">
      <!-- −1.0 -->
      <g transform="translate(20.878125 293.060944)scale(0.1 -0.1)">
       <use xlink:href="#DejaVuSans-8722"/>
       <use x="83.789062" xlink:href="#DejaVuSans-49"/>
       <use x="147.412109" xlink:href="#DejaVuSans-46"/>
       <use x="179.199219" xlink:href="#DejaVuSans-48"/>
      </g>
     </g>
    </g>
    <g id="ytick_4">
     <g id="line2d_9">
      <g>
       <use style="stroke:#000000;stroke-width:0.8;" x="52.160938" xlink:href="#m9c44712eec" y="244.771125"/>
      </g>
     </g>
     <g id="text_10">
      <!-- −0.5 -->
      <g transform="translate(20.878125 248.570344)scale(0.1 -0.1)">
       <use xlink:href="#DejaVuSans-8722"/>
       <use x="83.789062" xlink:href="#DejaVuSans-48"/>
       <use x="147.412109" xlink:href="#DejaVuSans-46"/>
       <use x="179.199219" xlink:href="#DejaVuSans-53"/>
      </g>
     </g>
    </g>
    <g id="ytick_5">
     <g id="line2d_10">
      <g>
       <use style="stroke:#000000;stroke-width:0.8;" x="52.160938" xlink:href="#m9c44712eec" y="200.280525"/>
      </g>
     </g>
     <g id="text_11">
      <!-- 0.0 -->
      <g transform="translate(29.257813 204.079744)scale(0.1 -0.1)">
       <use xlink:href="#DejaVuSans-48"/>
       <use x="63.623047" xlink:href="#DejaVuSans-46"/>
       <use x="95.410156" xlink:href="#DejaVuSans-48"/>
      </g>
     </g>
    </g>
    <g id="ytick_6">
     <g id="line2d_11">
      <g>
       <use style="stroke:#000000;stroke-width:0.8;" x="52.160938" xlink:href="#m9c44712eec" y="155.789925"/>
      </g>
     </g>
     <g id="text_12">
      <!-- 0.5 -->
      <g transform="translate(29.257813 159.589144)scale(0.1 -0.1)">
       <use xlink:href="#DejaVuSans-48"/>
       <use x="63.623047" xlink:href="#DejaVuSans-46"/>
       <use x="95.410156" xlink:href="#DejaVuSans-53"/>
      </g>
     </g>
    </g>
    <g id="ytick_7">
     <g id="line2d_12">
      <g>
       <use style="stroke:#000000;stroke-width:0.8;" x="52.160938" xlink:href="#m9c44712eec" y="111.299325"/>
      </g>
     </g>
     <g id="text_13">
      <!-- 1.0 -->
      <g transform="translate(29.257813 115.098544)scale(0.1 -0.1)">
       <use xlink:href="#DejaVuSans-49"/>
       <use x="63.623047" xlink:href="#DejaVuSans-46"/>
       <use x="95.410156" xlink:href="#DejaVuSans-48"/>
      </g>
     </g>
    </g>
    <g id="ytick_8">
     <g id="line2d_13">
      <g>
       <use style="stroke:#000000;stroke-width:0.8;" x="52.160938" xlink:href="#m9c44712eec" y="66.808725"/>
      </g>
     </g>
     <g id="text_14">
      <!-- 1.5 -->
      <g transform="translate(29.257813 70.607944)scale(0.1 -0.1)">
       <use xlink:href="#DejaVuSans-49"/>
       <use x="63.623047" xlink:href="#DejaVuSans-46"/>
       <use x="95.410156" xlink:href="#DejaVuSans-53"/>
      </g>
     </g>
    </g>
    <g id="ytick_9">
     <g id="line2d_14">
      <g>
       <use style="stroke:#000000;stroke-width:0.8;" x="52.160938" xlink:href="#m9c44712eec" y="22.318125"/>
      </g>
     </g>
     <g id="text_15">
      <!-- 2.0 -->
      <g transform="translate(29.257813 26.117344)scale(0.1 -0.1)">
       <use xlink:href="#DejaVuSans-50"/>
       <use x="63.623047" xlink:href="#DejaVuSans-46"/>
       <use x="95.410156" xlink:href="#DejaVuSans-48"/>
      </g>
     </g>
    </g>
    <g id="text_16">
     <!-- $y_t$ -->
     <defs>
      <path d="M 24.8125 -5.078125 
Q 18.5625 -15.578125 14.625 -18.1875 
Q 10.6875 -20.796875 4.59375 -20.796875 
L -2.484375 -20.796875 
L -0.984375 -13.28125 
L 4.203125 -13.28125 
Q 7.953125 -13.28125 10.59375 -11.234375 
Q 13.234375 -9.1875 16.5 -3.21875 
L 19.28125 2 
L 7.171875 54.6875 
L 16.703125 54.6875 
L 25.78125 12.796875 
L 50.875 54.6875 
L 60.296875 54.6875 
z
" id="DejaVuSans-Oblique-121"/>
     </defs>
     <g transform="translate(14.778125 204.780525)rotate(-90)scale(0.1 -0.1)">
      <use transform="translate(0 0.3125)" xlink:href="#DejaVuSans-Oblique-121"/>
      <use transform="translate(59.179688 -16.09375)scale(0.7)" xlink:href="#DejaVuSans-Oblique-116"/>
     </g>
    </g>
   </g>
   <g id="patch_3">
    <path d="M 52.160938 378.242925 
L 52.160938 22.318125 
" style="fill:none;stroke:#000000;stroke-linecap:square;stroke-linejoin:miter;stroke-width:0.8;"/>
   </g>
   <g id="patch_4">
    <path d="M 607.370937 378.242925 
L 607.370937 22.318125 
" style="fill:none;stroke:#000000;stroke-linecap:square;stroke-linejoin:miter;stroke-width:0.8;"/>
   </g>
   <g id="patch_5">
    <path d="M 52.160937 378.242925 
L 607.370937 378.242925 
" style="fill:none;stroke:#000000;stroke-linecap:square;stroke-linejoin:miter;stroke-width:0.8;"/>
   </g>
   <g id="patch_6">
    <path d="M 52.160937 22.318125 
L 607.370937 22.318125 
" style="fill:none;stroke:#000000;stroke-linecap:square;stroke-linejoin:miter;stroke-width:0.8;"/>
   </g>
   <g id="text_17">
    <!-- Phase Diagram of single-Step Prediction -->
    <defs>
     <path d="M 19.671875 64.796875 
L 19.671875 37.40625 
L 32.078125 37.40625 
Q 38.96875 37.40625 42.71875 40.96875 
Q 46.484375 44.53125 46.484375 51.125 
Q 46.484375 57.671875 42.71875 61.234375 
Q 38.96875 64.796875 32.078125 64.796875 
z
M 9.8125 72.90625 
L 32.078125 72.90625 
Q 44.34375 72.90625 50.609375 67.359375 
Q 56.890625 61.8125 56.890625 51.125 
Q 56.890625 40.328125 50.609375 34.8125 
Q 44.34375 29.296875 32.078125 29.296875 
L 19.671875 29.296875 
L 19.671875 0 
L 9.8125 0 
z
" id="DejaVuSans-80"/>
     <path d="M 54.890625 33.015625 
L 54.890625 0 
L 45.90625 0 
L 45.90625 32.71875 
Q 45.90625 40.484375 42.875 44.328125 
Q 39.84375 48.1875 33.796875 48.1875 
Q 26.515625 48.1875 22.3125 43.546875 
Q 18.109375 38.921875 18.109375 30.90625 
L 18.109375 0 
L 9.078125 0 
L 9.078125 75.984375 
L 18.109375 75.984375 
L 18.109375 46.1875 
Q 21.34375 51.125 25.703125 53.5625 
Q 30.078125 56 35.796875 56 
Q 45.21875 56 50.046875 50.171875 
Q 54.890625 44.34375 54.890625 33.015625 
z
" id="DejaVuSans-104"/>
     <path d="M 34.28125 27.484375 
Q 23.390625 27.484375 19.1875 25 
Q 14.984375 22.515625 14.984375 16.5 
Q 14.984375 11.71875 18.140625 8.90625 
Q 21.296875 6.109375 26.703125 6.109375 
Q 34.1875 6.109375 38.703125 11.40625 
Q 43.21875 16.703125 43.21875 25.484375 
L 43.21875 27.484375 
z
M 52.203125 31.203125 
L 52.203125 0 
L 43.21875 0 
L 43.21875 8.296875 
Q 40.140625 3.328125 35.546875 0.953125 
Q 30.953125 -1.421875 24.3125 -1.421875 
Q 15.921875 -1.421875 10.953125 3.296875 
Q 6 8.015625 6 15.921875 
Q 6 25.140625 12.171875 29.828125 
Q 18.359375 34.515625 30.609375 34.515625 
L 43.21875 34.515625 
L 43.21875 35.40625 
Q 43.21875 41.609375 39.140625 45 
Q 35.0625 48.390625 27.6875 48.390625 
Q 23 48.390625 18.546875 47.265625 
Q 14.109375 46.140625 10.015625 43.890625 
L 10.015625 52.203125 
Q 14.9375 54.109375 19.578125 55.046875 
Q 24.21875 56 28.609375 56 
Q 40.484375 56 46.34375 49.84375 
Q 52.203125 43.703125 52.203125 31.203125 
z
" id="DejaVuSans-97"/>
     <path d="M 44.28125 53.078125 
L 44.28125 44.578125 
Q 40.484375 46.53125 36.375 47.5 
Q 32.28125 48.484375 27.875 48.484375 
Q 21.1875 48.484375 17.84375 46.4375 
Q 14.5 44.390625 14.5 40.28125 
Q 14.5 37.15625 16.890625 35.375 
Q 19.28125 33.59375 26.515625 31.984375 
L 29.59375 31.296875 
Q 39.15625 29.25 43.1875 25.515625 
Q 47.21875 21.78125 47.21875 15.09375 
Q 47.21875 7.46875 41.1875 3.015625 
Q 35.15625 -1.421875 24.609375 -1.421875 
Q 20.21875 -1.421875 15.453125 -0.5625 
Q 10.6875 0.296875 5.421875 2 
L 5.421875 11.28125 
Q 10.40625 8.6875 15.234375 7.390625 
Q 20.0625 6.109375 24.8125 6.109375 
Q 31.15625 6.109375 34.5625 8.28125 
Q 37.984375 10.453125 37.984375 14.40625 
Q 37.984375 18.0625 35.515625 20.015625 
Q 33.0625 21.96875 24.703125 23.78125 
L 21.578125 24.515625 
Q 13.234375 26.265625 9.515625 29.90625 
Q 5.8125 33.546875 5.8125 39.890625 
Q 5.8125 47.609375 11.28125 51.796875 
Q 16.75 56 26.8125 56 
Q 31.78125 56 36.171875 55.265625 
Q 40.578125 54.546875 44.28125 53.078125 
z
" id="DejaVuSans-115"/>
     <path d="M 56.203125 29.59375 
L 56.203125 25.203125 
L 14.890625 25.203125 
Q 15.484375 15.921875 20.484375 11.0625 
Q 25.484375 6.203125 34.421875 6.203125 
Q 39.59375 6.203125 44.453125 7.46875 
Q 49.3125 8.734375 54.109375 11.28125 
L 54.109375 2.78125 
Q 49.265625 0.734375 44.1875 -0.34375 
Q 39.109375 -1.421875 33.890625 -1.421875 
Q 20.796875 -1.421875 13.15625 6.1875 
Q 5.515625 13.8125 5.515625 26.8125 
Q 5.515625 40.234375 12.765625 48.109375 
Q 20.015625 56 32.328125 56 
Q 43.359375 56 49.78125 48.890625 
Q 56.203125 41.796875 56.203125 29.59375 
z
M 47.21875 32.234375 
Q 47.125 39.59375 43.09375 43.984375 
Q 39.0625 48.390625 32.421875 48.390625 
Q 24.90625 48.390625 20.390625 44.140625 
Q 15.875 39.890625 15.1875 32.171875 
z
" id="DejaVuSans-101"/>
     <path id="DejaVuSans-32"/>
     <path d="M 19.671875 64.796875 
L 19.671875 8.109375 
L 31.59375 8.109375 
Q 46.6875 8.109375 53.6875 14.9375 
Q 60.6875 21.78125 60.6875 36.53125 
Q 60.6875 51.171875 53.6875 57.984375 
Q 46.6875 64.796875 31.59375 64.796875 
z
M 9.8125 72.90625 
L 30.078125 72.90625 
Q 51.265625 72.90625 61.171875 64.09375 
Q 71.09375 55.28125 71.09375 36.53125 
Q 71.09375 17.671875 61.125 8.828125 
Q 51.171875 0 30.078125 0 
L 9.8125 0 
z
" id="DejaVuSans-68"/>
     <path d="M 9.421875 54.6875 
L 18.40625 54.6875 
L 18.40625 0 
L 9.421875 0 
z
M 9.421875 75.984375 
L 18.40625 75.984375 
L 18.40625 64.59375 
L 9.421875 64.59375 
z
" id="DejaVuSans-105"/>
     <path d="M 45.40625 27.984375 
Q 45.40625 37.75 41.375 43.109375 
Q 37.359375 48.484375 30.078125 48.484375 
Q 22.859375 48.484375 18.828125 43.109375 
Q 14.796875 37.75 14.796875 27.984375 
Q 14.796875 18.265625 18.828125 12.890625 
Q 22.859375 7.515625 30.078125 7.515625 
Q 37.359375 7.515625 41.375 12.890625 
Q 45.40625 18.265625 45.40625 27.984375 
z
M 54.390625 6.78125 
Q 54.390625 -7.171875 48.1875 -13.984375 
Q 42 -20.796875 29.203125 -20.796875 
Q 24.46875 -20.796875 20.265625 -20.09375 
Q 16.0625 -19.390625 12.109375 -17.921875 
L 12.109375 -9.1875 
Q 16.0625 -11.328125 19.921875 -12.34375 
Q 23.78125 -13.375 27.78125 -13.375 
Q 36.625 -13.375 41.015625 -8.765625 
Q 45.40625 -4.15625 45.40625 5.171875 
L 45.40625 9.625 
Q 42.625 4.78125 38.28125 2.390625 
Q 33.9375 0 27.875 0 
Q 17.828125 0 11.671875 7.65625 
Q 5.515625 15.328125 5.515625 27.984375 
Q 5.515625 40.671875 11.671875 48.328125 
Q 17.828125 56 27.875 56 
Q 33.9375 56 38.28125 53.609375 
Q 42.625 51.21875 45.40625 46.390625 
L 45.40625 54.6875 
L 54.390625 54.6875 
z
" id="DejaVuSans-103"/>
     <path d="M 41.109375 46.296875 
Q 39.59375 47.171875 37.8125 47.578125 
Q 36.03125 48 33.890625 48 
Q 26.265625 48 22.1875 43.046875 
Q 18.109375 38.09375 18.109375 28.8125 
L 18.109375 0 
L 9.078125 0 
L 9.078125 54.6875 
L 18.109375 54.6875 
L 18.109375 46.1875 
Q 20.953125 51.171875 25.484375 53.578125 
Q 30.03125 56 36.53125 56 
Q 37.453125 56 38.578125 55.875 
Q 39.703125 55.765625 41.0625 55.515625 
z
" id="DejaVuSans-114"/>
     <path d="M 52 44.1875 
Q 55.375 50.25 60.0625 53.125 
Q 64.75 56 71.09375 56 
Q 79.640625 56 84.28125 50.015625 
Q 88.921875 44.046875 88.921875 33.015625 
L 88.921875 0 
L 79.890625 0 
L 79.890625 32.71875 
Q 79.890625 40.578125 77.09375 44.375 
Q 74.3125 48.1875 68.609375 48.1875 
Q 61.625 48.1875 57.5625 43.546875 
Q 53.515625 38.921875 53.515625 30.90625 
L 53.515625 0 
L 44.484375 0 
L 44.484375 32.71875 
Q 44.484375 40.625 41.703125 44.40625 
Q 38.921875 48.1875 33.109375 48.1875 
Q 26.21875 48.1875 22.15625 43.53125 
Q 18.109375 38.875 18.109375 30.90625 
L 18.109375 0 
L 9.078125 0 
L 9.078125 54.6875 
L 18.109375 54.6875 
L 18.109375 46.1875 
Q 21.1875 51.21875 25.484375 53.609375 
Q 29.78125 56 35.6875 56 
Q 41.65625 56 45.828125 52.96875 
Q 50 49.953125 52 44.1875 
z
" id="DejaVuSans-109"/>
     <path d="M 30.609375 48.390625 
Q 23.390625 48.390625 19.1875 42.75 
Q 14.984375 37.109375 14.984375 27.296875 
Q 14.984375 17.484375 19.15625 11.84375 
Q 23.34375 6.203125 30.609375 6.203125 
Q 37.796875 6.203125 41.984375 11.859375 
Q 46.1875 17.53125 46.1875 27.296875 
Q 46.1875 37.015625 41.984375 42.703125 
Q 37.796875 48.390625 30.609375 48.390625 
z
M 30.609375 56 
Q 42.328125 56 49.015625 48.375 
Q 55.71875 40.765625 55.71875 27.296875 
Q 55.71875 13.875 49.015625 6.21875 
Q 42.328125 -1.421875 30.609375 -1.421875 
Q 18.84375 -1.421875 12.171875 6.21875 
Q 5.515625 13.875 5.515625 27.296875 
Q 5.515625 40.765625 12.171875 48.375 
Q 18.84375 56 30.609375 56 
z
" id="DejaVuSans-111"/>
     <path d="M 37.109375 75.984375 
L 37.109375 68.5 
L 28.515625 68.5 
Q 23.6875 68.5 21.796875 66.546875 
Q 19.921875 64.59375 19.921875 59.515625 
L 19.921875 54.6875 
L 34.71875 54.6875 
L 34.71875 47.703125 
L 19.921875 47.703125 
L 19.921875 0 
L 10.890625 0 
L 10.890625 47.703125 
L 2.296875 47.703125 
L 2.296875 54.6875 
L 10.890625 54.6875 
L 10.890625 58.5 
Q 10.890625 67.625 15.140625 71.796875 
Q 19.390625 75.984375 28.609375 75.984375 
z
" id="DejaVuSans-102"/>
     <path d="M 54.890625 33.015625 
L 54.890625 0 
L 45.90625 0 
L 45.90625 32.71875 
Q 45.90625 40.484375 42.875 44.328125 
Q 39.84375 48.1875 33.796875 48.1875 
Q 26.515625 48.1875 22.3125 43.546875 
Q 18.109375 38.921875 18.109375 30.90625 
L 18.109375 0 
L 9.078125 0 
L 9.078125 54.6875 
L 18.109375 54.6875 
L 18.109375 46.1875 
Q 21.34375 51.125 25.703125 53.5625 
Q 30.078125 56 35.796875 56 
Q 45.21875 56 50.046875 50.171875 
Q 54.890625 44.34375 54.890625 33.015625 
z
" id="DejaVuSans-110"/>
     <path d="M 9.421875 75.984375 
L 18.40625 75.984375 
L 18.40625 0 
L 9.421875 0 
z
" id="DejaVuSans-108"/>
     <path d="M 4.890625 31.390625 
L 31.203125 31.390625 
L 31.203125 23.390625 
L 4.890625 23.390625 
z
" id="DejaVuSans-45"/>
     <path d="M 53.515625 70.515625 
L 53.515625 60.890625 
Q 47.90625 63.578125 42.921875 64.890625 
Q 37.9375 66.21875 33.296875 66.21875 
Q 25.25 66.21875 20.875 63.09375 
Q 16.5 59.96875 16.5 54.203125 
Q 16.5 49.359375 19.40625 46.890625 
Q 22.3125 44.4375 30.421875 42.921875 
L 36.375 41.703125 
Q 47.40625 39.59375 52.65625 34.296875 
Q 57.90625 29 57.90625 20.125 
Q 57.90625 9.515625 50.796875 4.046875 
Q 43.703125 -1.421875 29.984375 -1.421875 
Q 24.8125 -1.421875 18.96875 -0.25 
Q 13.140625 0.921875 6.890625 3.21875 
L 6.890625 13.375 
Q 12.890625 10.015625 18.65625 8.296875 
Q 24.421875 6.59375 29.984375 6.59375 
Q 38.421875 6.59375 43.015625 9.90625 
Q 47.609375 13.234375 47.609375 19.390625 
Q 47.609375 24.75 44.3125 27.78125 
Q 41.015625 30.8125 33.5 32.328125 
L 27.484375 33.5 
Q 16.453125 35.6875 11.515625 40.375 
Q 6.59375 45.0625 6.59375 53.421875 
Q 6.59375 63.09375 13.40625 68.65625 
Q 20.21875 74.21875 32.171875 74.21875 
Q 37.3125 74.21875 42.625 73.28125 
Q 47.953125 72.359375 53.515625 70.515625 
z
" id="DejaVuSans-83"/>
     <path d="M 18.3125 70.21875 
L 18.3125 54.6875 
L 36.8125 54.6875 
L 36.8125 47.703125 
L 18.3125 47.703125 
L 18.3125 18.015625 
Q 18.3125 11.328125 20.140625 9.421875 
Q 21.96875 7.515625 27.59375 7.515625 
L 36.8125 7.515625 
L 36.8125 0 
L 27.59375 0 
Q 17.1875 0 13.234375 3.875 
Q 9.28125 7.765625 9.28125 18.015625 
L 9.28125 47.703125 
L 2.6875 47.703125 
L 2.6875 54.6875 
L 9.28125 54.6875 
L 9.28125 70.21875 
z
" id="DejaVuSans-116"/>
     <path d="M 18.109375 8.203125 
L 18.109375 -20.796875 
L 9.078125 -20.796875 
L 9.078125 54.6875 
L 18.109375 54.6875 
L 18.109375 46.390625 
Q 20.953125 51.265625 25.265625 53.625 
Q 29.59375 56 35.59375 56 
Q 45.5625 56 51.78125 48.09375 
Q 58.015625 40.1875 58.015625 27.296875 
Q 58.015625 14.40625 51.78125 6.484375 
Q 45.5625 -1.421875 35.59375 -1.421875 
Q 29.59375 -1.421875 25.265625 0.953125 
Q 20.953125 3.328125 18.109375 8.203125 
z
M 48.6875 27.296875 
Q 48.6875 37.203125 44.609375 42.84375 
Q 40.53125 48.484375 33.40625 48.484375 
Q 26.265625 48.484375 22.1875 42.84375 
Q 18.109375 37.203125 18.109375 27.296875 
Q 18.109375 17.390625 22.1875 11.75 
Q 26.265625 6.109375 33.40625 6.109375 
Q 40.53125 6.109375 44.609375 11.75 
Q 48.6875 17.390625 48.6875 27.296875 
z
" id="DejaVuSans-112"/>
     <path d="M 45.40625 46.390625 
L 45.40625 75.984375 
L 54.390625 75.984375 
L 54.390625 0 
L 45.40625 0 
L 45.40625 8.203125 
Q 42.578125 3.328125 38.25 0.953125 
Q 33.9375 -1.421875 27.875 -1.421875 
Q 17.96875 -1.421875 11.734375 6.484375 
Q 5.515625 14.40625 5.515625 27.296875 
Q 5.515625 40.1875 11.734375 48.09375 
Q 17.96875 56 27.875 56 
Q 33.9375 56 38.25 53.625 
Q 42.578125 51.265625 45.40625 46.390625 
z
M 14.796875 27.296875 
Q 14.796875 17.390625 18.875 11.75 
Q 22.953125 6.109375 30.078125 6.109375 
Q 37.203125 6.109375 41.296875 11.75 
Q 45.40625 17.390625 45.40625 27.296875 
Q 45.40625 37.203125 41.296875 42.84375 
Q 37.203125 48.484375 30.078125 48.484375 
Q 22.953125 48.484375 18.875 42.84375 
Q 14.796875 37.203125 14.796875 27.296875 
z
" id="DejaVuSans-100"/>
     <path d="M 48.78125 52.59375 
L 48.78125 44.1875 
Q 44.96875 46.296875 41.140625 47.34375 
Q 37.3125 48.390625 33.40625 48.390625 
Q 24.65625 48.390625 19.8125 42.84375 
Q 14.984375 37.3125 14.984375 27.296875 
Q 14.984375 17.28125 19.8125 11.734375 
Q 24.65625 6.203125 33.40625 6.203125 
Q 37.3125 6.203125 41.140625 7.25 
Q 44.96875 8.296875 48.78125 10.40625 
L 48.78125 2.09375 
Q 45.015625 0.34375 40.984375 -0.53125 
Q 36.96875 -1.421875 32.421875 -1.421875 
Q 20.0625 -1.421875 12.78125 6.34375 
Q 5.515625 14.109375 5.515625 27.296875 
Q 5.515625 40.671875 12.859375 48.328125 
Q 20.21875 56 33.015625 56 
Q 37.15625 56 41.109375 55.140625 
Q 45.0625 54.296875 48.78125 52.59375 
z
" id="DejaVuSans-99"/>
    </defs>
    <g transform="translate(209.285937 16.318125)scale(0.12 -0.12)">
     <use xlink:href="#DejaVuSans-80"/>
     <use x="60.302734" xlink:href="#DejaVuSans-104"/>
     <use x="123.681641" xlink:href="#DejaVuSans-97"/>
     <use x="184.960938" xlink:href="#DejaVuSans-115"/>
     <use x="237.060547" xlink:href="#DejaVuSans-101"/>
     <use x="298.583984" xlink:href="#DejaVuSans-32"/>
     <use x="330.371094" xlink:href="#DejaVuSans-68"/>
     <use x="407.373047" xlink:href="#DejaVuSans-105"/>
     <use x="435.15625" xlink:href="#DejaVuSans-97"/>
     <use x="496.435547" xlink:href="#DejaVuSans-103"/>
     <use x="559.912109" xlink:href="#DejaVuSans-114"/>
     <use x="601.025391" xlink:href="#DejaVuSans-97"/>
     <use x="662.304688" xlink:href="#DejaVuSans-109"/>
     <use x="759.716797" xlink:href="#DejaVuSans-32"/>
     <use x="791.503906" xlink:href="#DejaVuSans-111"/>
     <use x="852.685547" xlink:href="#DejaVuSans-102"/>
     <use x="887.890625" xlink:href="#DejaVuSans-32"/>
     <use x="919.677734" xlink:href="#DejaVuSans-115"/>
     <use x="971.777344" xlink:href="#DejaVuSans-105"/>
     <use x="999.560547" xlink:href="#DejaVuSans-110"/>
     <use x="1062.939453" xlink:href="#DejaVuSans-103"/>
     <use x="1126.416016" xlink:href="#DejaVuSans-108"/>
     <use x="1154.199219" xlink:href="#DejaVuSans-101"/>
     <use x="1215.722656" xlink:href="#DejaVuSans-45"/>
     <use x="1251.806641" xlink:href="#DejaVuSans-83"/>
     <use x="1315.283203" xlink:href="#DejaVuSans-116"/>
     <use x="1354.492188" xlink:href="#DejaVuSans-101"/>
     <use x="1416.015625" xlink:href="#DejaVuSans-112"/>
     <use x="1479.492188" xlink:href="#DejaVuSans-32"/>
     <use x="1511.279297" xlink:href="#DejaVuSans-80"/>
     <use x="1569.832031" xlink:href="#DejaVuSans-114"/>
     <use x="1608.695312" xlink:href="#DejaVuSans-101"/>
     <use x="1670.21875" xlink:href="#DejaVuSans-100"/>
     <use x="1733.695312" xlink:href="#DejaVuSans-105"/>
     <use x="1761.478516" xlink:href="#DejaVuSans-99"/>
     <use x="1816.458984" xlink:href="#DejaVuSans-116"/>
     <use x="1855.667969" xlink:href="#DejaVuSans-105"/>
     <use x="1883.451172" xlink:href="#DejaVuSans-111"/>
     <use x="1944.632812" xlink:href="#DejaVuSans-110"/>
    </g>
   </g>
  </g>
 </g>
 <defs>
  <clipPath id="p338e5cd992">
   <rect height="355.9248" width="555.21" x="52.160938" y="22.318125"/>
  </clipPath>
 </defs>
</svg>
