<?xml version="1.0" encoding="utf-8" standalone="no"?>
<!DOCTYPE svg PUBLIC "-//W3C//DTD SVG 1.1//EN"
  "http://www.w3.org/Graphics/SVG/1.1/DTD/svg11.dtd">
<!-- Created with matplotlib (https://matplotlib.org/) -->
<svg height="401.384775pt" version="1.1" viewBox="0 0 446.612937 401.384775" width="446.612937pt" xmlns="http://www.w3.org/2000/svg" xmlns:xlink="http://www.w3.org/1999/xlink">
 <defs>
  <style type="text/css">
*{stroke-linecap:butt;stroke-linejoin:round;}
  </style>
 </defs>
 <g id="figure_1">
  <g id="patch_1">
   <path d="M 0 401.384775 
L 446.612937 401.384775 
L 446.612937 0 
L 0 0 
z
" style="fill:#ffffff;"/>
  </g>
  <g id="axes_1">
   <g id="patch_2">
    <path d="M 52.160938 363.828525 
L 439.412937 363.828525 
L 439.412937 22.318125 
L 52.160938 22.318125 
z
" style="fill:#ffffff;"/>
   </g>
   <g id="PathCollection_1">
    <defs>
     <path d="M 0 0.707107 
C 0.187527 0.707107 0.367398 0.632602 0.5 0.5 
C 0.632602 0.367398 0.707107 0.187527 0.707107 0 
C 0.707107 -0.187527 0.632602 -0.367398 0.5 -0.5 
C 0.367398 -0.632602 0.187527 -0.707107 0 -0.707107 
C -0.187527 -0.707107 -0.367398 -0.632602 -0.5 -0.5 
C -0.632602 -0.367398 -0.707107 -0.187527 -0.707107 0 
C -0.707107 0.187527 -0.632602 0.367398 -0.5 0.5 
C -0.367398 0.632602 -0.187527 0.707107 0 0.707107 
z
" id="m73b60256c8" style="stroke:#1f77b4;"/>
    </defs>
    <g clip-path="url(#pf769509bf4)">
     <use style="fill:#1f77b4;stroke:#1f77b4;" x="298.352842" xlink:href="#m73b60256c8" y="187.539675"/>
     <use style="fill:#1f77b4;stroke:#1f77b4;" x="255.597746" xlink:href="#m73b60256c8" y="178.93485"/>
     <use style="fill:#1f77b4;stroke:#1f77b4;" x="269.47848" xlink:href="#m73b60256c8" y="222.87883"/>
     <use style="fill:#1f77b4;stroke:#1f77b4;" x="198.590958" xlink:href="#m73b60256c8" y="183.294754"/>
     <use style="fill:#1f77b4;stroke:#1f77b4;" x="262.445372" xlink:href="#m73b60256c8" y="165.855142"/>
     <use style="fill:#1f77b4;stroke:#1f77b4;" x="290.577801" xlink:href="#m73b60256c8" y="209.569157"/>
     <use style="fill:#1f77b4;stroke:#1f77b4;" x="220.061242" xlink:href="#m73b60256c8" y="174.229999"/>
     <use style="fill:#1f77b4;stroke:#1f77b4;" x="277.068035" xlink:href="#m73b60256c8" y="174.68993"/>
     <use style="fill:#1f77b4;stroke:#1f77b4;" x="276.326104" xlink:href="#m73b60256c8" y="183.409736"/>
     <use style="fill:#1f77b4;stroke:#1f77b4;" x="262.25989" xlink:href="#m73b60256c8" y="161.15029"/>
     <use style="fill:#1f77b4;stroke:#1f77b4;" x="298.167357" xlink:href="#m73b60256c8" y="169.985081"/>
     <use style="fill:#1f77b4;stroke:#1f77b4;" x="283.915657" xlink:href="#m73b60256c8" y="179.049834"/>
     <use style="fill:#1f77b4;stroke:#1f77b4;" x="269.292996" xlink:href="#m73b60256c8" y="161.035306"/>
     <use style="fill:#1f77b4;stroke:#1f77b4;" x="298.352842" xlink:href="#m73b60256c8" y="165.855142"/>
     <use style="fill:#1f77b4;stroke:#1f77b4;" x="290.577801" xlink:href="#m73b60256c8" y="183.639703"/>
     <use style="fill:#1f77b4;stroke:#1f77b4;" x="261.888924" xlink:href="#m73b60256c8" y="112.961384"/>
     <use style="fill:#1f77b4;stroke:#1f77b4;" x="375.902512" xlink:href="#m73b60256c8" y="157.020351"/>
     <use style="fill:#1f77b4;stroke:#1f77b4;" x="304.829501" xlink:href="#m73b60256c8" y="148.070581"/>
     <use style="fill:#1f77b4;stroke:#1f77b4;" x="319.266678" xlink:href="#m73b60256c8" y="121.681197"/>
     <use style="fill:#1f77b4;stroke:#1f77b4;" x="361.836288" xlink:href="#m73b60256c8" y="170.215043"/>
     <use style="fill:#1f77b4;stroke:#1f77b4;" x="283.544697" xlink:href="#m73b60256c8" y="130.28602"/>
     <use style="fill:#1f77b4;stroke:#1f77b4;" x="347.955555" xlink:href="#m73b60256c8" y="192.474491"/>
     <use style="fill:#1f77b4;stroke:#1f77b4;" x="247.637227" xlink:href="#m73b60256c8" y="192.35951"/>
     <use style="fill:#1f77b4;stroke:#1f77b4;" x="247.822707" xlink:href="#m73b60256c8" y="214.274007"/>
     <use style="fill:#1f77b4;stroke:#1f77b4;" x="212.47169" xlink:href="#m73b60256c8" y="169.985081"/>
     <use style="fill:#1f77b4;stroke:#1f77b4;" x="283.915657" xlink:href="#m73b60256c8" y="126.156082"/>
     <use style="fill:#1f77b4;stroke:#1f77b4;" x="354.617699" xlink:href="#m73b60256c8" y="126.041103"/>
     <use style="fill:#1f77b4;stroke:#1f77b4;" x="354.803175" xlink:href="#m73b60256c8" y="183.294754"/>
     <use style="fill:#1f77b4;stroke:#1f77b4;" x="262.445372" xlink:href="#m73b60256c8" y="121.681197"/>
     <use style="fill:#1f77b4;stroke:#1f77b4;" x="361.836288" xlink:href="#m73b60256c8" y="170.330027"/>
     <use style="fill:#1f77b4;stroke:#1f77b4;" x="283.359213" xlink:href="#m73b60256c8" y="214.274007"/>
     <use style="fill:#1f77b4;stroke:#1f77b4;" x="212.47169" xlink:href="#m73b60256c8" y="192.35951"/>
     <use style="fill:#1f77b4;stroke:#1f77b4;" x="247.822707" xlink:href="#m73b60256c8" y="143.710675"/>
     <use style="fill:#1f77b4;stroke:#1f77b4;" x="326.29979" xlink:href="#m73b60256c8" y="143.825659"/>
     <use style="fill:#1f77b4;stroke:#1f77b4;" x="326.114306" xlink:href="#m73b60256c8" y="161.035306"/>
     <use style="fill:#1f77b4;stroke:#1f77b4;" x="298.352842" xlink:href="#m73b60256c8" y="121.681197"/>
     <use style="fill:#1f77b4;stroke:#1f77b4;" x="361.836288" xlink:href="#m73b60256c8" y="143.825659"/>
     <use style="fill:#1f77b4;stroke:#1f77b4;" x="326.114306" xlink:href="#m73b60256c8" y="112.846406"/>
     <use style="fill:#1f77b4;stroke:#1f77b4;" x="376.087988" xlink:href="#m73b60256c8" y="218.403946"/>
     <use style="fill:#1f77b4;stroke:#1f77b4;" x="205.809546" xlink:href="#m73b60256c8" y="209.684141"/>
     <use style="fill:#1f77b4;stroke:#1f77b4;" x="219.875758" xlink:href="#m73b60256c8" y="183.294754"/>
     <use style="fill:#1f77b4;stroke:#1f77b4;" x="262.445372" xlink:href="#m73b60256c8" y="165.740158"/>
     <use style="fill:#1f77b4;stroke:#1f77b4;" x="290.763285" xlink:href="#m73b60256c8" y="169.985081"/>
     <use style="fill:#1f77b4;stroke:#1f77b4;" x="283.915657" xlink:href="#m73b60256c8" y="148.18556"/>
     <use style="fill:#1f77b4;stroke:#1f77b4;" x="319.081202" xlink:href="#m73b60256c8" y="139.23579"/>
     <use style="fill:#1f77b4;stroke:#1f77b4;" x="333.518379" xlink:href="#m73b60256c8" y="183.294754"/>
     <use style="fill:#1f77b4;stroke:#1f77b4;" x="262.445372" xlink:href="#m73b60256c8" y="227.353715"/>
     <use style="fill:#1f77b4;stroke:#1f77b4;" x="191.372369" xlink:href="#m73b60256c8" y="174.804914"/>
     <use style="fill:#1f77b4;stroke:#1f77b4;" x="276.14062" xlink:href="#m73b60256c8" y="170.330027"/>
     <use style="fill:#1f77b4;stroke:#1f77b4;" x="283.359213" xlink:href="#m73b60256c8" y="183.179771"/>
     <use style="fill:#1f77b4;stroke:#1f77b4;" x="262.630854" xlink:href="#m73b60256c8" y="161.035306"/>
     <use style="fill:#1f77b4;stroke:#1f77b4;" x="298.352842" xlink:href="#m73b60256c8" y="134.760905"/>
     <use style="fill:#1f77b4;stroke:#1f77b4;" x="340.736967" xlink:href="#m73b60256c8" y="134.760905"/>
     <use style="fill:#1f77b4;stroke:#1f77b4;" x="340.736967" xlink:href="#m73b60256c8" y="183.064788"/>
     <use style="fill:#1f77b4;stroke:#1f77b4;" x="262.816338" xlink:href="#m73b60256c8" y="139.120811"/>
     <use style="fill:#1f77b4;stroke:#1f77b4;" x="333.703855" xlink:href="#m73b60256c8" y="183.294754"/>
     <use style="fill:#1f77b4;stroke:#1f77b4;" x="262.445372" xlink:href="#m73b60256c8" y="156.790388"/>
     <use style="fill:#1f77b4;stroke:#1f77b4;" x="305.200462" xlink:href="#m73b60256c8" y="152.20052"/>
     <use style="fill:#1f77b4;stroke:#1f77b4;" x="312.604534" xlink:href="#m73b60256c8" y="156.790388"/>
     <use style="fill:#1f77b4;stroke:#1f77b4;" x="305.200462" xlink:href="#m73b60256c8" y="218.518929"/>
     <use style="fill:#1f77b4;stroke:#1f77b4;" x="205.624062" xlink:href="#m73b60256c8" y="200.964333"/>
     <use style="fill:#1f77b4;stroke:#1f77b4;" x="233.941975" xlink:href="#m73b60256c8" y="236.073525"/>
     <use style="fill:#1f77b4;stroke:#1f77b4;" x="177.306149" xlink:href="#m73b60256c8" y="214.159023"/>
     <use style="fill:#1f77b4;stroke:#1f77b4;" x="212.657174" xlink:href="#m73b60256c8" y="148.300549"/>
     <use style="fill:#1f77b4;stroke:#1f77b4;" x="318.89571" xlink:href="#m73b60256c8" y="156.790388"/>
     <use style="fill:#1f77b4;stroke:#1f77b4;" x="305.200462" xlink:href="#m73b60256c8" y="174.574948"/>
     <use style="fill:#1f77b4;stroke:#1f77b4;" x="276.511586" xlink:href="#m73b60256c8" y="205.439218"/>
     <use style="fill:#1f77b4;stroke:#1f77b4;" x="226.723386" xlink:href="#m73b60256c8" y="152.545466"/>
     <use style="fill:#1f77b4;stroke:#1f77b4;" x="312.04809" xlink:href="#m73b60256c8" y="178.704885"/>
     <use style="fill:#1f77b4;stroke:#1f77b4;" x="269.849444" xlink:href="#m73b60256c8" y="196.834392"/>
     <use style="fill:#1f77b4;stroke:#1f77b4;" x="240.604123" xlink:href="#m73b60256c8" y="227.353715"/>
     <use style="fill:#1f77b4;stroke:#1f77b4;" x="191.372369" xlink:href="#m73b60256c8" y="174.459965"/>
     <use style="fill:#1f77b4;stroke:#1f77b4;" x="276.697068" xlink:href="#m73b60256c8" y="209.684141"/>
     <use style="fill:#1f77b4;stroke:#1f77b4;" x="219.875758" xlink:href="#m73b60256c8" y="161.035306"/>
     <use style="fill:#1f77b4;stroke:#1f77b4;" x="298.352842" xlink:href="#m73b60256c8" y="170.100062"/>
     <use style="fill:#1f77b4;stroke:#1f77b4;" x="283.730177" xlink:href="#m73b60256c8" y="156.90537"/>
     <use style="fill:#1f77b4;stroke:#1f77b4;" x="305.014982" xlink:href="#m73b60256c8" y="147.955597"/>
     <use style="fill:#1f77b4;stroke:#1f77b4;" x="319.452162" xlink:href="#m73b60256c8" y="126.041103"/>
     <use style="fill:#1f77b4;stroke:#1f77b4;" x="354.803175" xlink:href="#m73b60256c8" y="121.566218"/>
     <use style="fill:#1f77b4;stroke:#1f77b4;" x="362.021764" xlink:href="#m73b60256c8" y="121.566218"/>
     <use style="fill:#1f77b4;stroke:#1f77b4;" x="362.021764" xlink:href="#m73b60256c8" y="192.244526"/>
     <use style="fill:#1f77b4;stroke:#1f77b4;" x="248.008191" xlink:href="#m73b60256c8" y="209.684141"/>
     <use style="fill:#1f77b4;stroke:#1f77b4;" x="219.875758" xlink:href="#m73b60256c8" y="227.238737"/>
     <use style="fill:#1f77b4;stroke:#1f77b4;" x="191.557845" xlink:href="#m73b60256c8" y="148.300549"/>
     <use style="fill:#1f77b4;stroke:#1f77b4;" x="318.89571" xlink:href="#m73b60256c8" y="161.380254"/>
     <use style="fill:#1f77b4;stroke:#1f77b4;" x="297.796393" xlink:href="#m73b60256c8" y="174.459965"/>
     <use style="fill:#1f77b4;stroke:#1f77b4;" x="276.697068" xlink:href="#m73b60256c8" y="126.156082"/>
     <use style="fill:#1f77b4;stroke:#1f77b4;" x="354.617699" xlink:href="#m73b60256c8" y="139.350774"/>
     <use style="fill:#1f77b4;stroke:#1f77b4;" x="333.332895" xlink:href="#m73b60256c8" y="147.955597"/>
     <use style="fill:#1f77b4;stroke:#1f77b4;" x="319.452162" xlink:href="#m73b60256c8" y="147.955597"/>
    </g>
   </g>
   <g id="PathCollection_2">
    <defs>
     <path d="M 0 0.707107 
C 0.187527 0.707107 0.367398 0.632602 0.5 0.5 
C 0.632602 0.367398 0.707107 0.187527 0.707107 0 
C 0.707107 -0.187527 0.632602 -0.367398 0.5 -0.5 
C 0.367398 -0.632602 0.187527 -0.707107 0 -0.707107 
C -0.187527 -0.707107 -0.367398 -0.632602 -0.5 -0.5 
C -0.632602 -0.367398 -0.707107 -0.187527 -0.707107 0 
C -0.707107 0.187527 -0.632602 0.367398 -0.5 0.5 
C -0.367398 0.632602 -0.187527 0.707107 0 0.707107 
z
" id="mc90776e58f" style="stroke:#ff7f0e;"/>
    </defs>
    <g clip-path="url(#pf769509bf4)">
     <use style="fill:#ff7f0e;stroke:#ff7f0e;" x="384.848504" xlink:href="#mc90776e58f" y="218.723951"/>
     <use style="fill:#ff7f0e;stroke:#ff7f0e;" x="205.293334" xlink:href="#mc90776e58f" y="92.787401"/>
     <use style="fill:#ff7f0e;stroke:#ff7f0e;" x="408.445848" xlink:href="#mc90776e58f" y="280.307397"/>
     <use style="fill:#ff7f0e;stroke:#ff7f0e;" x="105.950992" xlink:href="#mc90776e58f" y="202.393236"/>
     <use style="fill:#ff7f0e;stroke:#ff7f0e;" x="231.636964" xlink:href="#mc90776e58f" y="135.290268"/>
     <use style="fill:#ff7f0e;stroke:#ff7f0e;" x="339.883034" xlink:href="#mc90776e58f" y="165.241825"/>
     <use style="fill:#ff7f0e;stroke:#ff7f0e;" x="291.567163" xlink:href="#mc90776e58f" y="103.062372"/>
     <use style="fill:#ff7f0e;stroke:#ff7f0e;" x="391.870945" xlink:href="#mc90776e58f" y="232.200316"/>
     <use style="fill:#ff7f0e;stroke:#ff7f0e;" x="183.554153" xlink:href="#mc90776e58f" y="105.796099"/>
     <use style="fill:#ff7f0e;stroke:#ff7f0e;" x="387.461077" xlink:href="#mc90776e58f" y="244.340588"/>
     <use style="fill:#ff7f0e;stroke:#ff7f0e;" x="163.970269" xlink:href="#mc90776e58f" y="124.611279"/>
     <use style="fill:#ff7f0e;stroke:#ff7f0e;" x="357.109672" xlink:href="#mc90776e58f" y="199.932976"/>
     <use style="fill:#ff7f0e;stroke:#ff7f0e;" x="235.605692" xlink:href="#mc90776e58f" y="87.928701"/>
     <use style="fill:#ff7f0e;stroke:#ff7f0e;" x="416.283581" xlink:href="#mc90776e58f" y="291.037091"/>
     <use style="fill:#ff7f0e;stroke:#ff7f0e;" x="88.642558" xlink:href="#mc90776e58f" y="233.519843"/>
     <use style="fill:#ff7f0e;stroke:#ff7f0e;" x="181.42558" xlink:href="#mc90776e58f" y="163.910263"/>
     <use style="fill:#ff7f0e;stroke:#ff7f0e;" x="293.715151" xlink:href="#mc90776e58f" y="133.775699"/>
     <use style="fill:#ff7f0e;stroke:#ff7f0e;" x="342.326237" xlink:href="#mc90776e58f" y="156.604689"/>
     <use style="fill:#ff7f0e;stroke:#ff7f0e;" x="305.500019" xlink:href="#mc90776e58f" y="111.714807"/>
     <use style="fill:#ff7f0e;stroke:#ff7f0e;" x="377.913408" xlink:href="#mc90776e58f" y="205.295223"/>
     <use style="fill:#ff7f0e;stroke:#ff7f0e;" x="226.955671" xlink:href="#mc90776e58f" y="85.737583"/>
     <use style="fill:#ff7f0e;stroke:#ff7f0e;" x="419.818148" xlink:href="#mc90776e58f" y="300.280084"/>
     <use style="fill:#ff7f0e;stroke:#ff7f0e;" x="73.732375" xlink:href="#mc90776e58f" y="263.959011"/>
     <use style="fill:#ff7f0e;stroke:#ff7f0e;" x="132.323127" xlink:href="#mc90776e58f" y="222.252812"/>
     <use style="fill:#ff7f0e;stroke:#ff7f0e;" x="199.60081" xlink:href="#mc90776e58f" y="142.923167"/>
     <use style="fill:#ff7f0e;stroke:#ff7f0e;" x="327.570145" xlink:href="#mc90776e58f" y="157.690526"/>
     <use style="fill:#ff7f0e;stroke:#ff7f0e;" x="303.748419" xlink:href="#mc90776e58f" y="113.179708"/>
     <use style="fill:#ff7f0e;stroke:#ff7f0e;" x="375.550326" xlink:href="#mc90776e58f" y="201.747522"/>
     <use style="fill:#ff7f0e;stroke:#ff7f0e;" x="232.678587" xlink:href="#mc90776e58f" y="84.961434"/>
     <use style="fill:#ff7f0e;stroke:#ff7f0e;" x="421.070181" xlink:href="#mc90776e58f" y="301.957782"/>
     <use style="fill:#ff7f0e;stroke:#ff7f0e;" x="71.026022" xlink:href="#mc90776e58f" y="269.670931"/>
     <use style="fill:#ff7f0e;stroke:#ff7f0e;" x="123.109035" xlink:href="#mc90776e58f" y="236.569795"/>
     <use style="fill:#ff7f0e;stroke:#ff7f0e;" x="176.505599" xlink:href="#mc90776e58f" y="161.698606"/>
     <use style="fill:#ff7f0e;stroke:#ff7f0e;" x="297.28285" xlink:href="#mc90776e58f" y="136.886163"/>
     <use style="fill:#ff7f0e;stroke:#ff7f0e;" x="337.308642" xlink:href="#mc90776e58f" y="150.050937"/>
     <use style="fill:#ff7f0e;stroke:#ff7f0e;" x="316.072098" xlink:href="#mc90776e58f" y="121.190586"/>
     <use style="fill:#ff7f0e;stroke:#ff7f0e;" x="362.627709" xlink:href="#mc90776e58f" y="179.518258"/>
     <use style="fill:#ff7f0e;stroke:#ff7f0e;" x="268.537365" xlink:href="#mc90776e58f" y="89.143819"/>
     <use style="fill:#ff7f0e;stroke:#ff7f0e;" x="414.323434" xlink:href="#mc90776e58f" y="280.746834"/>
     <use style="fill:#ff7f0e;stroke:#ff7f0e;" x="105.242121" xlink:href="#mc90776e58f" y="202.560506"/>
     <use style="fill:#ff7f0e;stroke:#ff7f0e;" x="231.367135" xlink:href="#mc90776e58f" y="135.473682"/>
     <use style="fill:#ff7f0e;stroke:#ff7f0e;" x="339.587162" xlink:href="#mc90776e58f" y="164.944979"/>
     <use style="fill:#ff7f0e;stroke:#ff7f0e;" x="292.046015" xlink:href="#mc90776e58f" y="103.389792"/>
     <use style="fill:#ff7f0e;stroke:#ff7f0e;" x="391.342773" xlink:href="#mc90776e58f" y="231.146509"/>
     <use style="fill:#ff7f0e;stroke:#ff7f0e;" x="185.254085" xlink:href="#mc90776e58f" y="104.5603"/>
     <use style="fill:#ff7f0e;stroke:#ff7f0e;" x="389.454586" xlink:href="#mc90776e58f" y="247.586717"/>
     <use style="fill:#ff7f0e;stroke:#ff7f0e;" x="158.733829" xlink:href="#mc90776e58f" y="129.871158"/>
     <use style="fill:#ff7f0e;stroke:#ff7f0e;" x="348.624784" xlink:href="#mc90776e58f" y="189.550763"/>
     <use style="fill:#ff7f0e;stroke:#ff7f0e;" x="252.353591" xlink:href="#mc90776e58f" y="88.938543"/>
     <use style="fill:#ff7f0e;stroke:#ff7f0e;" x="414.654572" xlink:href="#mc90776e58f" y="284.456948"/>
     <use style="fill:#ff7f0e;stroke:#ff7f0e;" x="99.25721" xlink:href="#mc90776e58f" y="213.392305"/>
     <use style="fill:#ff7f0e;stroke:#ff7f0e;" x="213.893993" xlink:href="#mc90776e58f" y="141.880798"/>
     <use style="fill:#ff7f0e;stroke:#ff7f0e;" x="329.251628" xlink:href="#mc90776e58f" y="156.76457"/>
     <use style="fill:#ff7f0e;stroke:#ff7f0e;" x="305.24211" xlink:href="#mc90776e58f" y="113.955537"/>
     <use style="fill:#ff7f0e;stroke:#ff7f0e;" x="374.298811" xlink:href="#mc90776e58f" y="199.44682"/>
     <use style="fill:#ff7f0e;stroke:#ff7f0e;" x="236.389927" xlink:href="#mc90776e58f" y="84.626493"/>
     <use style="fill:#ff7f0e;stroke:#ff7f0e;" x="421.610486" xlink:href="#mc90776e58f" y="302.456983"/>
     <use style="fill:#ff7f0e;stroke:#ff7f0e;" x="70.220744" xlink:href="#mc90776e58f" y="271.357164"/>
     <use style="fill:#ff7f0e;stroke:#ff7f0e;" x="120.388915" xlink:href="#mc90776e58f" y="241.002085"/>
     <use style="fill:#ff7f0e;stroke:#ff7f0e;" x="169.355721" xlink:href="#mc90776e58f" y="168.84922"/>
     <use style="fill:#ff7f0e;stroke:#ff7f0e;" x="285.747952" xlink:href="#mc90776e58f" y="131.696669"/>
     <use style="fill:#ff7f0e;stroke:#ff7f0e;" x="345.67999" xlink:href="#mc90776e58f" y="162.200333"/>
     <use style="fill:#ff7f0e;stroke:#ff7f0e;" x="296.473496" xlink:href="#mc90776e58f" y="104.912096"/>
     <use style="fill:#ff7f0e;stroke:#ff7f0e;" x="388.887092" xlink:href="#mc90776e58f" y="225.883677"/>
     <use style="fill:#ff7f0e;stroke:#ff7f0e;" x="193.743738" xlink:href="#mc90776e58f" y="98.899844"/>
     <use style="fill:#ff7f0e;stroke:#ff7f0e;" x="398.58566" xlink:href="#mc90776e58f" y="262.964594"/>
     <use style="fill:#ff7f0e;stroke:#ff7f0e;" x="133.927255" xlink:href="#mc90776e58f" y="159.543207"/>
     <use style="fill:#ff7f0e;stroke:#ff7f0e;" x="300.759797" xlink:href="#mc90776e58f" y="147.098575"/>
     <use style="fill:#ff7f0e;stroke:#ff7f0e;" x="320.834653" xlink:href="#mc90776e58f" y="132.296233"/>
     <use style="fill:#ff7f0e;stroke:#ff7f0e;" x="344.712813" xlink:href="#mc90776e58f" y="154.47419"/>
     <use style="fill:#ff7f0e;stroke:#ff7f0e;" x="308.936799" xlink:href="#mc90776e58f" y="113.893483"/>
     <use style="fill:#ff7f0e;stroke:#ff7f0e;" x="374.398913" xlink:href="#mc90776e58f" y="198.920772"/>
     <use style="fill:#ff7f0e;stroke:#ff7f0e;" x="237.238513" xlink:href="#mc90776e58f" y="84.502456"/>
     <use style="fill:#ff7f0e;stroke:#ff7f0e;" x="421.810574" xlink:href="#mc90776e58f" y="302.740557"/>
     <use style="fill:#ff7f0e;stroke:#ff7f0e;" x="69.763301" xlink:href="#mc90776e58f" y="272.338518"/>
     <use style="fill:#ff7f0e;stroke:#ff7f0e;" x="118.80586" xlink:href="#mc90776e58f" y="243.622437"/>
     <use style="fill:#ff7f0e;stroke:#ff7f0e;" x="165.128743" xlink:href="#mc90776e58f" y="173.375007"/>
     <use style="fill:#ff7f0e;stroke:#ff7f0e;" x="278.447252" xlink:href="#mc90776e58f" y="129.223173"/>
     <use style="fill:#ff7f0e;stroke:#ff7f0e;" x="349.670071" xlink:href="#mc90776e58f" y="168.637239"/>
     <use style="fill:#ff7f0e;stroke:#ff7f0e;" x="286.089905" xlink:href="#mc90776e58f" y="98.332136"/>
     <use style="fill:#ff7f0e;stroke:#ff7f0e;" x="399.501448" xlink:href="#mc90776e58f" y="247.549288"/>
     <use style="fill:#ff7f0e;stroke:#ff7f0e;" x="158.794207" xlink:href="#mc90776e58f" y="127.935808"/>
     <use style="fill:#ff7f0e;stroke:#ff7f0e;" x="351.746763" xlink:href="#mc90776e58f" y="193.612433"/>
     <use style="fill:#ff7f0e;stroke:#ff7f0e;" x="245.801574" xlink:href="#mc90776e58f" y="88.159239"/>
     <use style="fill:#ff7f0e;stroke:#ff7f0e;" x="415.911694" xlink:href="#mc90776e58f" y="288.346864"/>
     <use style="fill:#ff7f0e;stroke:#ff7f0e;" x="92.982255" xlink:href="#mc90776e58f" y="225.064595"/>
     <use style="fill:#ff7f0e;stroke:#ff7f0e;" x="195.065027" xlink:href="#mc90776e58f" y="153.059916"/>
     <use style="fill:#ff7f0e;stroke:#ff7f0e;" x="311.218213" xlink:href="#mc90776e58f" y="143.547087"/>
     <use style="fill:#ff7f0e;stroke:#ff7f0e;" x="326.563679" xlink:href="#mc90776e58f" y="135.91288"/>
     <use style="fill:#ff7f0e;stroke:#ff7f0e;" x="338.878678" xlink:href="#mc90776e58f" y="146.414474"/>
    </g>
   </g>
   <g id="matplotlib.axis_1">
    <g id="xtick_1">
     <g id="line2d_1">
      <defs>
       <path d="M 0 0 
L 0 3.5 
" id="m2d7507ed51" style="stroke:#000000;stroke-width:0.8;"/>
      </defs>
      <g>
       <use style="stroke:#000000;stroke-width:0.8;" x="108.94573" xlink:href="#m2d7507ed51" y="363.828525"/>
      </g>
     </g>
     <g id="text_1">
      <!-- −1.0 -->
      <defs>
       <path d="M 10.59375 35.5 
L 73.1875 35.5 
L 73.1875 27.203125 
L 10.59375 27.203125 
z
" id="DejaVuSans-8722"/>
       <path d="M 12.40625 8.296875 
L 28.515625 8.296875 
L 28.515625 63.921875 
L 10.984375 60.40625 
L 10.984375 69.390625 
L 28.421875 72.90625 
L 38.28125 72.90625 
L 38.28125 8.296875 
L 54.390625 8.296875 
L 54.390625 0 
L 12.40625 0 
z
" id="DejaVuSans-49"/>
       <path d="M 10.6875 12.40625 
L 21 12.40625 
L 21 0 
L 10.6875 0 
z
" id="DejaVuSans-46"/>
       <path d="M 31.78125 66.40625 
Q 24.171875 66.40625 20.328125 58.90625 
Q 16.5 51.421875 16.5 36.375 
Q 16.5 21.390625 20.328125 13.890625 
Q 24.171875 6.390625 31.78125 6.390625 
Q 39.453125 6.390625 43.28125 13.890625 
Q 47.125 21.390625 47.125 36.375 
Q 47.125 51.421875 43.28125 58.90625 
Q 39.453125 66.40625 31.78125 66.40625 
z
M 31.78125 74.21875 
Q 44.046875 74.21875 50.515625 64.515625 
Q 56.984375 54.828125 56.984375 36.375 
Q 56.984375 17.96875 50.515625 8.265625 
Q 44.046875 -1.421875 31.78125 -1.421875 
Q 19.53125 -1.421875 13.0625 8.265625 
Q 6.59375 17.96875 6.59375 36.375 
Q 6.59375 54.828125 13.0625 64.515625 
Q 19.53125 74.21875 31.78125 74.21875 
z
" id="DejaVuSans-48"/>
      </defs>
      <g transform="translate(96.804323 378.426962)scale(0.1 -0.1)">
       <use xlink:href="#DejaVuSans-8722"/>
       <use x="83.789062" xlink:href="#DejaVuSans-49"/>
       <use x="147.412109" xlink:href="#DejaVuSans-46"/>
       <use x="179.199219" xlink:href="#DejaVuSans-48"/>
      </g>
     </g>
    </g>
    <g id="xtick_2">
     <g id="line2d_2">
      <g>
       <use style="stroke:#000000;stroke-width:0.8;" x="177.808479" xlink:href="#m2d7507ed51" y="363.828525"/>
      </g>
     </g>
     <g id="text_2">
      <!-- −0.5 -->
      <defs>
       <path d="M 10.796875 72.90625 
L 49.515625 72.90625 
L 49.515625 64.59375 
L 19.828125 64.59375 
L 19.828125 46.734375 
Q 21.96875 47.46875 24.109375 47.828125 
Q 26.265625 48.1875 28.421875 48.1875 
Q 40.625 48.1875 47.75 41.5 
Q 54.890625 34.8125 54.890625 23.390625 
Q 54.890625 11.625 47.5625 5.09375 
Q 40.234375 -1.421875 26.90625 -1.421875 
Q 22.3125 -1.421875 17.546875 -0.640625 
Q 12.796875 0.140625 7.71875 1.703125 
L 7.71875 11.625 
Q 12.109375 9.234375 16.796875 8.0625 
Q 21.484375 6.890625 26.703125 6.890625 
Q 35.15625 6.890625 40.078125 11.328125 
Q 45.015625 15.765625 45.015625 23.390625 
Q 45.015625 31 40.078125 35.4375 
Q 35.15625 39.890625 26.703125 39.890625 
Q 22.75 39.890625 18.8125 39.015625 
Q 14.890625 38.140625 10.796875 36.28125 
z
" id="DejaVuSans-53"/>
      </defs>
      <g transform="translate(165.667072 378.426962)scale(0.1 -0.1)">
       <use xlink:href="#DejaVuSans-8722"/>
       <use x="83.789062" xlink:href="#DejaVuSans-48"/>
       <use x="147.412109" xlink:href="#DejaVuSans-46"/>
       <use x="179.199219" xlink:href="#DejaVuSans-53"/>
      </g>
     </g>
    </g>
    <g id="xtick_3">
     <g id="line2d_3">
      <g>
       <use style="stroke:#000000;stroke-width:0.8;" x="246.671228" xlink:href="#m2d7507ed51" y="363.828525"/>
      </g>
     </g>
     <g id="text_3">
      <!-- 0.0 -->
      <g transform="translate(238.719665 378.426962)scale(0.1 -0.1)">
       <use xlink:href="#DejaVuSans-48"/>
       <use x="63.623047" xlink:href="#DejaVuSans-46"/>
       <use x="95.410156" xlink:href="#DejaVuSans-48"/>
      </g>
     </g>
    </g>
    <g id="xtick_4">
     <g id="line2d_4">
      <g>
       <use style="stroke:#000000;stroke-width:0.8;" x="315.533977" xlink:href="#m2d7507ed51" y="363.828525"/>
      </g>
     </g>
     <g id="text_4">
      <!-- 0.5 -->
      <g transform="translate(307.582414 378.426962)scale(0.1 -0.1)">
       <use xlink:href="#DejaVuSans-48"/>
       <use x="63.623047" xlink:href="#DejaVuSans-46"/>
       <use x="95.410156" xlink:href="#DejaVuSans-53"/>
      </g>
     </g>
    </g>
    <g id="xtick_5">
     <g id="line2d_5">
      <g>
       <use style="stroke:#000000;stroke-width:0.8;" x="384.396726" xlink:href="#m2d7507ed51" y="363.828525"/>
      </g>
     </g>
     <g id="text_5">
      <!-- 1.0 -->
      <g transform="translate(376.445163 378.426962)scale(0.1 -0.1)">
       <use xlink:href="#DejaVuSans-49"/>
       <use x="63.623047" xlink:href="#DejaVuSans-46"/>
       <use x="95.410156" xlink:href="#DejaVuSans-48"/>
      </g>
     </g>
    </g>
    <g id="text_6">
     <!-- $x_t$ -->
     <defs>
      <path d="M 60.015625 54.6875 
L 34.90625 27.875 
L 50.296875 0 
L 39.984375 0 
L 28.421875 21.6875 
L 8.296875 0 
L -2.59375 0 
L 24.3125 28.8125 
L 10.015625 54.6875 
L 20.3125 54.6875 
L 30.8125 34.90625 
L 49.125 54.6875 
z
" id="DejaVuSans-Oblique-120"/>
      <path d="M 42.28125 54.6875 
L 40.921875 47.703125 
L 23 47.703125 
L 17.1875 18.015625 
Q 16.890625 16.359375 16.75 15.234375 
Q 16.609375 14.109375 16.609375 13.484375 
Q 16.609375 10.359375 18.484375 8.9375 
Q 20.359375 7.515625 24.515625 7.515625 
L 33.59375 7.515625 
L 32.078125 0 
L 23.484375 0 
Q 15.484375 0 11.546875 3.125 
Q 7.625 6.25 7.625 12.59375 
Q 7.625 13.71875 7.765625 15.0625 
Q 7.90625 16.40625 8.203125 18.015625 
L 14.015625 47.703125 
L 6.390625 47.703125 
L 7.8125 54.6875 
L 15.28125 54.6875 
L 18.3125 70.21875 
L 27.296875 70.21875 
L 24.3125 54.6875 
z
" id="DejaVuSans-Oblique-116"/>
     </defs>
     <g transform="translate(241.286938 392.105087)scale(0.1 -0.1)">
      <use transform="translate(0 0.3125)" xlink:href="#DejaVuSans-Oblique-120"/>
      <use transform="translate(59.179688 -16.09375)scale(0.7)" xlink:href="#DejaVuSans-Oblique-116"/>
     </g>
    </g>
   </g>
   <g id="matplotlib.axis_2">
    <g id="ytick_1">
     <g id="line2d_6">
      <defs>
       <path d="M 0 0 
L -3.5 0 
" id="m1f90a29d90" style="stroke:#000000;stroke-width:0.8;"/>
      </defs>
      <g>
       <use style="stroke:#000000;stroke-width:0.8;" x="52.160938" xlink:href="#m1f90a29d90" y="363.828525"/>
      </g>
     </g>
     <g id="text_7">
      <!-- −2.0 -->
      <defs>
       <path d="M 19.1875 8.296875 
L 53.609375 8.296875 
L 53.609375 0 
L 7.328125 0 
L 7.328125 8.296875 
Q 12.9375 14.109375 22.625 23.890625 
Q 32.328125 33.6875 34.8125 36.53125 
Q 39.546875 41.84375 41.421875 45.53125 
Q 43.3125 49.21875 43.3125 52.78125 
Q 43.3125 58.59375 39.234375 62.25 
Q 35.15625 65.921875 28.609375 65.921875 
Q 23.96875 65.921875 18.8125 64.3125 
Q 13.671875 62.703125 7.8125 59.421875 
L 7.8125 69.390625 
Q 13.765625 71.78125 18.9375 73 
Q 24.125 74.21875 28.421875 74.21875 
Q 39.75 74.21875 46.484375 68.546875 
Q 53.21875 62.890625 53.21875 53.421875 
Q 53.21875 48.921875 51.53125 44.890625 
Q 49.859375 40.875 45.40625 35.40625 
Q 44.1875 33.984375 37.640625 27.21875 
Q 31.109375 20.453125 19.1875 8.296875 
z
" id="DejaVuSans-50"/>
      </defs>
      <g transform="translate(20.878125 367.627744)scale(0.1 -0.1)">
       <use xlink:href="#DejaVuSans-8722"/>
       <use x="83.789062" xlink:href="#DejaVuSans-50"/>
       <use x="147.412109" xlink:href="#DejaVuSans-46"/>
       <use x="179.199219" xlink:href="#DejaVuSans-48"/>
      </g>
     </g>
    </g>
    <g id="ytick_2">
     <g id="line2d_7">
      <g>
       <use style="stroke:#000000;stroke-width:0.8;" x="52.160938" xlink:href="#m1f90a29d90" y="321.139725"/>
      </g>
     </g>
     <g id="text_8">
      <!-- −1.5 -->
      <g transform="translate(20.878125 324.938944)scale(0.1 -0.1)">
       <use xlink:href="#DejaVuSans-8722"/>
       <use x="83.789062" xlink:href="#DejaVuSans-49"/>
       <use x="147.412109" xlink:href="#DejaVuSans-46"/>
       <use x="179.199219" xlink:href="#DejaVuSans-53"/>
      </g>
     </g>
    </g>
    <g id="ytick_3">
     <g id="line2d_8">
      <g>
       <use style="stroke:#000000;stroke-width:0.8;" x="52.160938" xlink:href="#m1f90a29d90" y="278.450925"/>
      </g>
     </g>
     <g id="text_9">
      <!-- −1.0 -->
      <g transform="translate(20.878125 282.250144)scale(0.1 -0.1)">
       <use xlink:href="#DejaVuSans-8722"/>
       <use x="83.789062" xlink:href="#DejaVuSans-49"/>
       <use x="147.412109" xlink:href="#DejaVuSans-46"/>
       <use x="179.199219" xlink:href="#DejaVuSans-48"/>
      </g>
     </g>
    </g>
    <g id="ytick_4">
     <g id="line2d_9">
      <g>
       <use style="stroke:#000000;stroke-width:0.8;" x="52.160938" xlink:href="#m1f90a29d90" y="235.762125"/>
      </g>
     </g>
     <g id="text_10">
      <!-- −0.5 -->
      <g transform="translate(20.878125 239.561344)scale(0.1 -0.1)">
       <use xlink:href="#DejaVuSans-8722"/>
       <use x="83.789062" xlink:href="#DejaVuSans-48"/>
       <use x="147.412109" xlink:href="#DejaVuSans-46"/>
       <use x="179.199219" xlink:href="#DejaVuSans-53"/>
      </g>
     </g>
    </g>
    <g id="ytick_5">
     <g id="line2d_10">
      <g>
       <use style="stroke:#000000;stroke-width:0.8;" x="52.160938" xlink:href="#m1f90a29d90" y="193.073325"/>
      </g>
     </g>
     <g id="text_11">
      <!-- 0.0 -->
      <g transform="translate(29.257812 196.872544)scale(0.1 -0.1)">
       <use xlink:href="#DejaVuSans-48"/>
       <use x="63.623047" xlink:href="#DejaVuSans-46"/>
       <use x="95.410156" xlink:href="#DejaVuSans-48"/>
      </g>
     </g>
    </g>
    <g id="ytick_6">
     <g id="line2d_11">
      <g>
       <use style="stroke:#000000;stroke-width:0.8;" x="52.160938" xlink:href="#m1f90a29d90" y="150.384525"/>
      </g>
     </g>
     <g id="text_12">
      <!-- 0.5 -->
      <g transform="translate(29.257812 154.183744)scale(0.1 -0.1)">
       <use xlink:href="#DejaVuSans-48"/>
       <use x="63.623047" xlink:href="#DejaVuSans-46"/>
       <use x="95.410156" xlink:href="#DejaVuSans-53"/>
      </g>
     </g>
    </g>
    <g id="ytick_7">
     <g id="line2d_12">
      <g>
       <use style="stroke:#000000;stroke-width:0.8;" x="52.160938" xlink:href="#m1f90a29d90" y="107.695725"/>
      </g>
     </g>
     <g id="text_13">
      <!-- 1.0 -->
      <g transform="translate(29.257812 111.494944)scale(0.1 -0.1)">
       <use xlink:href="#DejaVuSans-49"/>
       <use x="63.623047" xlink:href="#DejaVuSans-46"/>
       <use x="95.410156" xlink:href="#DejaVuSans-48"/>
      </g>
     </g>
    </g>
    <g id="ytick_8">
     <g id="line2d_13">
      <g>
       <use style="stroke:#000000;stroke-width:0.8;" x="52.160938" xlink:href="#m1f90a29d90" y="65.006925"/>
      </g>
     </g>
     <g id="text_14">
      <!-- 1.5 -->
      <g transform="translate(29.257812 68.806144)scale(0.1 -0.1)">
       <use xlink:href="#DejaVuSans-49"/>
       <use x="63.623047" xlink:href="#DejaVuSans-46"/>
       <use x="95.410156" xlink:href="#DejaVuSans-53"/>
      </g>
     </g>
    </g>
    <g id="ytick_9">
     <g id="line2d_14">
      <g>
       <use style="stroke:#000000;stroke-width:0.8;" x="52.160938" xlink:href="#m1f90a29d90" y="22.318125"/>
      </g>
     </g>
     <g id="text_15">
      <!-- 2.0 -->
      <g transform="translate(29.257812 26.117344)scale(0.1 -0.1)">
       <use xlink:href="#DejaVuSans-50"/>
       <use x="63.623047" xlink:href="#DejaVuSans-46"/>
       <use x="95.410156" xlink:href="#DejaVuSans-48"/>
      </g>
     </g>
    </g>
    <g id="text_16">
     <!-- $y_t$ -->
     <defs>
      <path d="M 24.8125 -5.078125 
Q 18.5625 -15.578125 14.625 -18.1875 
Q 10.6875 -20.796875 4.59375 -20.796875 
L -2.484375 -20.796875 
L -0.984375 -13.28125 
L 4.203125 -13.28125 
Q 7.953125 -13.28125 10.59375 -11.234375 
Q 13.234375 -9.1875 16.5 -3.21875 
L 19.28125 2 
L 7.171875 54.6875 
L 16.703125 54.6875 
L 25.78125 12.796875 
L 50.875 54.6875 
L 60.296875 54.6875 
z
" id="DejaVuSans-Oblique-121"/>
     </defs>
     <g transform="translate(14.778125 197.573325)rotate(-90)scale(0.1 -0.1)">
      <use transform="translate(0 0.3125)" xlink:href="#DejaVuSans-Oblique-121"/>
      <use transform="translate(59.179688 -16.09375)scale(0.7)" xlink:href="#DejaVuSans-Oblique-116"/>
     </g>
    </g>
   </g>
   <g id="patch_3">
    <path d="M 52.160938 363.828525 
L 52.160938 22.318125 
" style="fill:none;stroke:#000000;stroke-linecap:square;stroke-linejoin:miter;stroke-width:0.8;"/>
   </g>
   <g id="patch_4">
    <path d="M 439.412937 363.828525 
L 439.412937 22.318125 
" style="fill:none;stroke:#000000;stroke-linecap:square;stroke-linejoin:miter;stroke-width:0.8;"/>
   </g>
   <g id="patch_5">
    <path d="M 52.160938 363.828525 
L 439.412938 363.828525 
" style="fill:none;stroke:#000000;stroke-linecap:square;stroke-linejoin:miter;stroke-width:0.8;"/>
   </g>
   <g id="patch_6">
    <path d="M 52.160938 22.318125 
L 439.412938 22.318125 
" style="fill:none;stroke:#000000;stroke-linecap:square;stroke-linejoin:miter;stroke-width:0.8;"/>
   </g>
   <g id="text_17">
    <!-- Phase Diagram of single-Step Prediction -->
    <defs>
     <path d="M 19.671875 64.796875 
L 19.671875 37.40625 
L 32.078125 37.40625 
Q 38.96875 37.40625 42.71875 40.96875 
Q 46.484375 44.53125 46.484375 51.125 
Q 46.484375 57.671875 42.71875 61.234375 
Q 38.96875 64.796875 32.078125 64.796875 
z
M 9.8125 72.90625 
L 32.078125 72.90625 
Q 44.34375 72.90625 50.609375 67.359375 
Q 56.890625 61.8125 56.890625 51.125 
Q 56.890625 40.328125 50.609375 34.8125 
Q 44.34375 29.296875 32.078125 29.296875 
L 19.671875 29.296875 
L 19.671875 0 
L 9.8125 0 
z
" id="DejaVuSans-80"/>
     <path d="M 54.890625 33.015625 
L 54.890625 0 
L 45.90625 0 
L 45.90625 32.71875 
Q 45.90625 40.484375 42.875 44.328125 
Q 39.84375 48.1875 33.796875 48.1875 
Q 26.515625 48.1875 22.3125 43.546875 
Q 18.109375 38.921875 18.109375 30.90625 
L 18.109375 0 
L 9.078125 0 
L 9.078125 75.984375 
L 18.109375 75.984375 
L 18.109375 46.1875 
Q 21.34375 51.125 25.703125 53.5625 
Q 30.078125 56 35.796875 56 
Q 45.21875 56 50.046875 50.171875 
Q 54.890625 44.34375 54.890625 33.015625 
z
" id="DejaVuSans-104"/>
     <path d="M 34.28125 27.484375 
Q 23.390625 27.484375 19.1875 25 
Q 14.984375 22.515625 14.984375 16.5 
Q 14.984375 11.71875 18.140625 8.90625 
Q 21.296875 6.109375 26.703125 6.109375 
Q 34.1875 6.109375 38.703125 11.40625 
Q 43.21875 16.703125 43.21875 25.484375 
L 43.21875 27.484375 
z
M 52.203125 31.203125 
L 52.203125 0 
L 43.21875 0 
L 43.21875 8.296875 
Q 40.140625 3.328125 35.546875 0.953125 
Q 30.953125 -1.421875 24.3125 -1.421875 
Q 15.921875 -1.421875 10.953125 3.296875 
Q 6 8.015625 6 15.921875 
Q 6 25.140625 12.171875 29.828125 
Q 18.359375 34.515625 30.609375 34.515625 
L 43.21875 34.515625 
L 43.21875 35.40625 
Q 43.21875 41.609375 39.140625 45 
Q 35.0625 48.390625 27.6875 48.390625 
Q 23 48.390625 18.546875 47.265625 
Q 14.109375 46.140625 10.015625 43.890625 
L 10.015625 52.203125 
Q 14.9375 54.109375 19.578125 55.046875 
Q 24.21875 56 28.609375 56 
Q 40.484375 56 46.34375 49.84375 
Q 52.203125 43.703125 52.203125 31.203125 
z
" id="DejaVuSans-97"/>
     <path d="M 44.28125 53.078125 
L 44.28125 44.578125 
Q 40.484375 46.53125 36.375 47.5 
Q 32.28125 48.484375 27.875 48.484375 
Q 21.1875 48.484375 17.84375 46.4375 
Q 14.5 44.390625 14.5 40.28125 
Q 14.5 37.15625 16.890625 35.375 
Q 19.28125 33.59375 26.515625 31.984375 
L 29.59375 31.296875 
Q 39.15625 29.25 43.1875 25.515625 
Q 47.21875 21.78125 47.21875 15.09375 
Q 47.21875 7.46875 41.1875 3.015625 
Q 35.15625 -1.421875 24.609375 -1.421875 
Q 20.21875 -1.421875 15.453125 -0.5625 
Q 10.6875 0.296875 5.421875 2 
L 5.421875 11.28125 
Q 10.40625 8.6875 15.234375 7.390625 
Q 20.0625 6.109375 24.8125 6.109375 
Q 31.15625 6.109375 34.5625 8.28125 
Q 37.984375 10.453125 37.984375 14.40625 
Q 37.984375 18.0625 35.515625 20.015625 
Q 33.0625 21.96875 24.703125 23.78125 
L 21.578125 24.515625 
Q 13.234375 26.265625 9.515625 29.90625 
Q 5.8125 33.546875 5.8125 39.890625 
Q 5.8125 47.609375 11.28125 51.796875 
Q 16.75 56 26.8125 56 
Q 31.78125 56 36.171875 55.265625 
Q 40.578125 54.546875 44.28125 53.078125 
z
" id="DejaVuSans-115"/>
     <path d="M 56.203125 29.59375 
L 56.203125 25.203125 
L 14.890625 25.203125 
Q 15.484375 15.921875 20.484375 11.0625 
Q 25.484375 6.203125 34.421875 6.203125 
Q 39.59375 6.203125 44.453125 7.46875 
Q 49.3125 8.734375 54.109375 11.28125 
L 54.109375 2.78125 
Q 49.265625 0.734375 44.1875 -0.34375 
Q 39.109375 -1.421875 33.890625 -1.421875 
Q 20.796875 -1.421875 13.15625 6.1875 
Q 5.515625 13.8125 5.515625 26.8125 
Q 5.515625 40.234375 12.765625 48.109375 
Q 20.015625 56 32.328125 56 
Q 43.359375 56 49.78125 48.890625 
Q 56.203125 41.796875 56.203125 29.59375 
z
M 47.21875 32.234375 
Q 47.125 39.59375 43.09375 43.984375 
Q 39.0625 48.390625 32.421875 48.390625 
Q 24.90625 48.390625 20.390625 44.140625 
Q 15.875 39.890625 15.1875 32.171875 
z
" id="DejaVuSans-101"/>
     <path id="DejaVuSans-32"/>
     <path d="M 19.671875 64.796875 
L 19.671875 8.109375 
L 31.59375 8.109375 
Q 46.6875 8.109375 53.6875 14.9375 
Q 60.6875 21.78125 60.6875 36.53125 
Q 60.6875 51.171875 53.6875 57.984375 
Q 46.6875 64.796875 31.59375 64.796875 
z
M 9.8125 72.90625 
L 30.078125 72.90625 
Q 51.265625 72.90625 61.171875 64.09375 
Q 71.09375 55.28125 71.09375 36.53125 
Q 71.09375 17.671875 61.125 8.828125 
Q 51.171875 0 30.078125 0 
L 9.8125 0 
z
" id="DejaVuSans-68"/>
     <path d="M 9.421875 54.6875 
L 18.40625 54.6875 
L 18.40625 0 
L 9.421875 0 
z
M 9.421875 75.984375 
L 18.40625 75.984375 
L 18.40625 64.59375 
L 9.421875 64.59375 
z
" id="DejaVuSans-105"/>
     <path d="M 45.40625 27.984375 
Q 45.40625 37.75 41.375 43.109375 
Q 37.359375 48.484375 30.078125 48.484375 
Q 22.859375 48.484375 18.828125 43.109375 
Q 14.796875 37.75 14.796875 27.984375 
Q 14.796875 18.265625 18.828125 12.890625 
Q 22.859375 7.515625 30.078125 7.515625 
Q 37.359375 7.515625 41.375 12.890625 
Q 45.40625 18.265625 45.40625 27.984375 
z
M 54.390625 6.78125 
Q 54.390625 -7.171875 48.1875 -13.984375 
Q 42 -20.796875 29.203125 -20.796875 
Q 24.46875 -20.796875 20.265625 -20.09375 
Q 16.0625 -19.390625 12.109375 -17.921875 
L 12.109375 -9.1875 
Q 16.0625 -11.328125 19.921875 -12.34375 
Q 23.78125 -13.375 27.78125 -13.375 
Q 36.625 -13.375 41.015625 -8.765625 
Q 45.40625 -4.15625 45.40625 5.171875 
L 45.40625 9.625 
Q 42.625 4.78125 38.28125 2.390625 
Q 33.9375 0 27.875 0 
Q 17.828125 0 11.671875 7.65625 
Q 5.515625 15.328125 5.515625 27.984375 
Q 5.515625 40.671875 11.671875 48.328125 
Q 17.828125 56 27.875 56 
Q 33.9375 56 38.28125 53.609375 
Q 42.625 51.21875 45.40625 46.390625 
L 45.40625 54.6875 
L 54.390625 54.6875 
z
" id="DejaVuSans-103"/>
     <path d="M 41.109375 46.296875 
Q 39.59375 47.171875 37.8125 47.578125 
Q 36.03125 48 33.890625 48 
Q 26.265625 48 22.1875 43.046875 
Q 18.109375 38.09375 18.109375 28.8125 
L 18.109375 0 
L 9.078125 0 
L 9.078125 54.6875 
L 18.109375 54.6875 
L 18.109375 46.1875 
Q 20.953125 51.171875 25.484375 53.578125 
Q 30.03125 56 36.53125 56 
Q 37.453125 56 38.578125 55.875 
Q 39.703125 55.765625 41.0625 55.515625 
z
" id="DejaVuSans-114"/>
     <path d="M 52 44.1875 
Q 55.375 50.25 60.0625 53.125 
Q 64.75 56 71.09375 56 
Q 79.640625 56 84.28125 50.015625 
Q 88.921875 44.046875 88.921875 33.015625 
L 88.921875 0 
L 79.890625 0 
L 79.890625 32.71875 
Q 79.890625 40.578125 77.09375 44.375 
Q 74.3125 48.1875 68.609375 48.1875 
Q 61.625 48.1875 57.5625 43.546875 
Q 53.515625 38.921875 53.515625 30.90625 
L 53.515625 0 
L 44.484375 0 
L 44.484375 32.71875 
Q 44.484375 40.625 41.703125 44.40625 
Q 38.921875 48.1875 33.109375 48.1875 
Q 26.21875 48.1875 22.15625 43.53125 
Q 18.109375 38.875 18.109375 30.90625 
L 18.109375 0 
L 9.078125 0 
L 9.078125 54.6875 
L 18.109375 54.6875 
L 18.109375 46.1875 
Q 21.1875 51.21875 25.484375 53.609375 
Q 29.78125 56 35.6875 56 
Q 41.65625 56 45.828125 52.96875 
Q 50 49.953125 52 44.1875 
z
" id="DejaVuSans-109"/>
     <path d="M 30.609375 48.390625 
Q 23.390625 48.390625 19.1875 42.75 
Q 14.984375 37.109375 14.984375 27.296875 
Q 14.984375 17.484375 19.15625 11.84375 
Q 23.34375 6.203125 30.609375 6.203125 
Q 37.796875 6.203125 41.984375 11.859375 
Q 46.1875 17.53125 46.1875 27.296875 
Q 46.1875 37.015625 41.984375 42.703125 
Q 37.796875 48.390625 30.609375 48.390625 
z
M 30.609375 56 
Q 42.328125 56 49.015625 48.375 
Q 55.71875 40.765625 55.71875 27.296875 
Q 55.71875 13.875 49.015625 6.21875 
Q 42.328125 -1.421875 30.609375 -1.421875 
Q 18.84375 -1.421875 12.171875 6.21875 
Q 5.515625 13.875 5.515625 27.296875 
Q 5.515625 40.765625 12.171875 48.375 
Q 18.84375 56 30.609375 56 
z
" id="DejaVuSans-111"/>
     <path d="M 37.109375 75.984375 
L 37.109375 68.5 
L 28.515625 68.5 
Q 23.6875 68.5 21.796875 66.546875 
Q 19.921875 64.59375 19.921875 59.515625 
L 19.921875 54.6875 
L 34.71875 54.6875 
L 34.71875 47.703125 
L 19.921875 47.703125 
L 19.921875 0 
L 10.890625 0 
L 10.890625 47.703125 
L 2.296875 47.703125 
L 2.296875 54.6875 
L 10.890625 54.6875 
L 10.890625 58.5 
Q 10.890625 67.625 15.140625 71.796875 
Q 19.390625 75.984375 28.609375 75.984375 
z
" id="DejaVuSans-102"/>
     <path d="M 54.890625 33.015625 
L 54.890625 0 
L 45.90625 0 
L 45.90625 32.71875 
Q 45.90625 40.484375 42.875 44.328125 
Q 39.84375 48.1875 33.796875 48.1875 
Q 26.515625 48.1875 22.3125 43.546875 
Q 18.109375 38.921875 18.109375 30.90625 
L 18.109375 0 
L 9.078125 0 
L 9.078125 54.6875 
L 18.109375 54.6875 
L 18.109375 46.1875 
Q 21.34375 51.125 25.703125 53.5625 
Q 30.078125 56 35.796875 56 
Q 45.21875 56 50.046875 50.171875 
Q 54.890625 44.34375 54.890625 33.015625 
z
" id="DejaVuSans-110"/>
     <path d="M 9.421875 75.984375 
L 18.40625 75.984375 
L 18.40625 0 
L 9.421875 0 
z
" id="DejaVuSans-108"/>
     <path d="M 4.890625 31.390625 
L 31.203125 31.390625 
L 31.203125 23.390625 
L 4.890625 23.390625 
z
" id="DejaVuSans-45"/>
     <path d="M 53.515625 70.515625 
L 53.515625 60.890625 
Q 47.90625 63.578125 42.921875 64.890625 
Q 37.9375 66.21875 33.296875 66.21875 
Q 25.25 66.21875 20.875 63.09375 
Q 16.5 59.96875 16.5 54.203125 
Q 16.5 49.359375 19.40625 46.890625 
Q 22.3125 44.4375 30.421875 42.921875 
L 36.375 41.703125 
Q 47.40625 39.59375 52.65625 34.296875 
Q 57.90625 29 57.90625 20.125 
Q 57.90625 9.515625 50.796875 4.046875 
Q 43.703125 -1.421875 29.984375 -1.421875 
Q 24.8125 -1.421875 18.96875 -0.25 
Q 13.140625 0.921875 6.890625 3.21875 
L 6.890625 13.375 
Q 12.890625 10.015625 18.65625 8.296875 
Q 24.421875 6.59375 29.984375 6.59375 
Q 38.421875 6.59375 43.015625 9.90625 
Q 47.609375 13.234375 47.609375 19.390625 
Q 47.609375 24.75 44.3125 27.78125 
Q 41.015625 30.8125 33.5 32.328125 
L 27.484375 33.5 
Q 16.453125 35.6875 11.515625 40.375 
Q 6.59375 45.0625 6.59375 53.421875 
Q 6.59375 63.09375 13.40625 68.65625 
Q 20.21875 74.21875 32.171875 74.21875 
Q 37.3125 74.21875 42.625 73.28125 
Q 47.953125 72.359375 53.515625 70.515625 
z
" id="DejaVuSans-83"/>
     <path d="M 18.3125 70.21875 
L 18.3125 54.6875 
L 36.8125 54.6875 
L 36.8125 47.703125 
L 18.3125 47.703125 
L 18.3125 18.015625 
Q 18.3125 11.328125 20.140625 9.421875 
Q 21.96875 7.515625 27.59375 7.515625 
L 36.8125 7.515625 
L 36.8125 0 
L 27.59375 0 
Q 17.1875 0 13.234375 3.875 
Q 9.28125 7.765625 9.28125 18.015625 
L 9.28125 47.703125 
L 2.6875 47.703125 
L 2.6875 54.6875 
L 9.28125 54.6875 
L 9.28125 70.21875 
z
" id="DejaVuSans-116"/>
     <path d="M 18.109375 8.203125 
L 18.109375 -20.796875 
L 9.078125 -20.796875 
L 9.078125 54.6875 
L 18.109375 54.6875 
L 18.109375 46.390625 
Q 20.953125 51.265625 25.265625 53.625 
Q 29.59375 56 35.59375 56 
Q 45.5625 56 51.78125 48.09375 
Q 58.015625 40.1875 58.015625 27.296875 
Q 58.015625 14.40625 51.78125 6.484375 
Q 45.5625 -1.421875 35.59375 -1.421875 
Q 29.59375 -1.421875 25.265625 0.953125 
Q 20.953125 3.328125 18.109375 8.203125 
z
M 48.6875 27.296875 
Q 48.6875 37.203125 44.609375 42.84375 
Q 40.53125 48.484375 33.40625 48.484375 
Q 26.265625 48.484375 22.1875 42.84375 
Q 18.109375 37.203125 18.109375 27.296875 
Q 18.109375 17.390625 22.1875 11.75 
Q 26.265625 6.109375 33.40625 6.109375 
Q 40.53125 6.109375 44.609375 11.75 
Q 48.6875 17.390625 48.6875 27.296875 
z
" id="DejaVuSans-112"/>
     <path d="M 45.40625 46.390625 
L 45.40625 75.984375 
L 54.390625 75.984375 
L 54.390625 0 
L 45.40625 0 
L 45.40625 8.203125 
Q 42.578125 3.328125 38.25 0.953125 
Q 33.9375 -1.421875 27.875 -1.421875 
Q 17.96875 -1.421875 11.734375 6.484375 
Q 5.515625 14.40625 5.515625 27.296875 
Q 5.515625 40.1875 11.734375 48.09375 
Q 17.96875 56 27.875 56 
Q 33.9375 56 38.25 53.625 
Q 42.578125 51.265625 45.40625 46.390625 
z
M 14.796875 27.296875 
Q 14.796875 17.390625 18.875 11.75 
Q 22.953125 6.109375 30.078125 6.109375 
Q 37.203125 6.109375 41.296875 11.75 
Q 45.40625 17.390625 45.40625 27.296875 
Q 45.40625 37.203125 41.296875 42.84375 
Q 37.203125 48.484375 30.078125 48.484375 
Q 22.953125 48.484375 18.875 42.84375 
Q 14.796875 37.203125 14.796875 27.296875 
z
" id="DejaVuSans-100"/>
     <path d="M 48.78125 52.59375 
L 48.78125 44.1875 
Q 44.96875 46.296875 41.140625 47.34375 
Q 37.3125 48.390625 33.40625 48.390625 
Q 24.65625 48.390625 19.8125 42.84375 
Q 14.984375 37.3125 14.984375 27.296875 
Q 14.984375 17.28125 19.8125 11.734375 
Q 24.65625 6.203125 33.40625 6.203125 
Q 37.3125 6.203125 41.140625 7.25 
Q 44.96875 8.296875 48.78125 10.40625 
L 48.78125 2.09375 
Q 45.015625 0.34375 40.984375 -0.53125 
Q 36.96875 -1.421875 32.421875 -1.421875 
Q 20.0625 -1.421875 12.78125 6.34375 
Q 5.515625 14.109375 5.515625 27.296875 
Q 5.515625 40.671875 12.859375 48.328125 
Q 20.21875 56 33.015625 56 
Q 37.15625 56 41.109375 55.140625 
Q 45.0625 54.296875 48.78125 52.59375 
z
" id="DejaVuSans-99"/>
    </defs>
    <g transform="translate(125.306938 16.318125)scale(0.12 -0.12)">
     <use xlink:href="#DejaVuSans-80"/>
     <use x="60.302734" xlink:href="#DejaVuSans-104"/>
     <use x="123.681641" xlink:href="#DejaVuSans-97"/>
     <use x="184.960938" xlink:href="#DejaVuSans-115"/>
     <use x="237.060547" xlink:href="#DejaVuSans-101"/>
     <use x="298.583984" xlink:href="#DejaVuSans-32"/>
     <use x="330.371094" xlink:href="#DejaVuSans-68"/>
     <use x="407.373047" xlink:href="#DejaVuSans-105"/>
     <use x="435.15625" xlink:href="#DejaVuSans-97"/>
     <use x="496.435547" xlink:href="#DejaVuSans-103"/>
     <use x="559.912109" xlink:href="#DejaVuSans-114"/>
     <use x="601.025391" xlink:href="#DejaVuSans-97"/>
     <use x="662.304688" xlink:href="#DejaVuSans-109"/>
     <use x="759.716797" xlink:href="#DejaVuSans-32"/>
     <use x="791.503906" xlink:href="#DejaVuSans-111"/>
     <use x="852.685547" xlink:href="#DejaVuSans-102"/>
     <use x="887.890625" xlink:href="#DejaVuSans-32"/>
     <use x="919.677734" xlink:href="#DejaVuSans-115"/>
     <use x="971.777344" xlink:href="#DejaVuSans-105"/>
     <use x="999.560547" xlink:href="#DejaVuSans-110"/>
     <use x="1062.939453" xlink:href="#DejaVuSans-103"/>
     <use x="1126.416016" xlink:href="#DejaVuSans-108"/>
     <use x="1154.199219" xlink:href="#DejaVuSans-101"/>
     <use x="1215.722656" xlink:href="#DejaVuSans-45"/>
     <use x="1251.806641" xlink:href="#DejaVuSans-83"/>
     <use x="1315.283203" xlink:href="#DejaVuSans-116"/>
     <use x="1354.492188" xlink:href="#DejaVuSans-101"/>
     <use x="1416.015625" xlink:href="#DejaVuSans-112"/>
     <use x="1479.492188" xlink:href="#DejaVuSans-32"/>
     <use x="1511.279297" xlink:href="#DejaVuSans-80"/>
     <use x="1569.832031" xlink:href="#DejaVuSans-114"/>
     <use x="1608.695312" xlink:href="#DejaVuSans-101"/>
     <use x="1670.21875" xlink:href="#DejaVuSans-100"/>
     <use x="1733.695312" xlink:href="#DejaVuSans-105"/>
     <use x="1761.478516" xlink:href="#DejaVuSans-99"/>
     <use x="1816.458984" xlink:href="#DejaVuSans-116"/>
     <use x="1855.667969" xlink:href="#DejaVuSans-105"/>
     <use x="1883.451172" xlink:href="#DejaVuSans-111"/>
     <use x="1944.632812" xlink:href="#DejaVuSans-110"/>
    </g>
   </g>
  </g>
 </g>
 <defs>
  <clipPath id="pf769509bf4">
   <rect height="341.5104" width="387.252" x="52.160938" y="22.318125"/>
  </clipPath>
 </defs>
</svg>
