<?xml version="1.0" encoding="utf-8" standalone="no"?>
<!DOCTYPE svg PUBLIC "-//W3C//DTD SVG 1.1//EN"
  "http://www.w3.org/Graphics/SVG/1.1/DTD/svg11.dtd">
<!-- Created with matplotlib (https://matplotlib.org/) -->
<svg height="349.825575pt" version="1.1" viewBox="0 0 549.842937 349.825575" width="549.842937pt" xmlns="http://www.w3.org/2000/svg" xmlns:xlink="http://www.w3.org/1999/xlink">
 <defs>
  <style type="text/css">
*{stroke-linecap:butt;stroke-linejoin:round;}
  </style>
 </defs>
 <g id="figure_1">
  <g id="patch_1">
   <path d="M -0 349.825575 
L 549.842937 349.825575 
L 549.842937 0 
L -0 0 
z
" style="fill:#ffffff;"/>
  </g>
  <g id="axes_1">
   <g id="patch_2">
    <path d="M 52.160938 312.269325 
L 542.642937 312.269325 
L 542.642937 22.318125 
L 52.160938 22.318125 
z
" style="fill:#ffffff;"/>
   </g>
   <g id="PathCollection_1">
    <defs>
     <path d="M 0 0.707107 
C 0.187527 0.707107 0.367398 0.632602 0.5 0.5 
C 0.632602 0.367398 0.707107 0.187527 0.707107 0 
C 0.707107 -0.187527 0.632602 -0.367398 0.5 -0.5 
C 0.367398 -0.632602 0.187527 -0.707107 0 -0.707107 
C -0.187527 -0.707107 -0.367398 -0.632602 -0.5 -0.5 
C -0.632602 -0.367398 -0.707107 -0.187527 -0.707107 0 
C -0.707107 0.187527 -0.632602 0.367398 -0.5 0.5 
C -0.367398 0.632602 -0.187527 0.707107 0 0.707107 
z
" id="md88d7884cd" style="stroke:#1f77b4;"/>
    </defs>
    <g clip-path="url(#pe7a1d8c614)">
     <use style="fill:#1f77b4;stroke:#1f77b4;" x="349.723767" xlink:href="#md88d7884cd" y="146.064678"/>
     <use style="fill:#1f77b4;stroke:#1f77b4;" x="349.608829" xlink:href="#md88d7884cd" y="146.023081"/>
     <use style="fill:#1f77b4;stroke:#1f77b4;" x="349.70893" xlink:href="#md88d7884cd" y="146.052975"/>
     <use style="fill:#1f77b4;stroke:#1f77b4;" x="349.63699" xlink:href="#md88d7884cd" y="146.047678"/>
     <use style="fill:#1f77b4;stroke:#1f77b4;" x="349.649737" xlink:href="#md88d7884cd" y="146.040789"/>
     <use style="fill:#1f77b4;stroke:#1f77b4;" x="349.666316" xlink:href="#md88d7884cd" y="146.044051"/>
     <use style="fill:#1f77b4;stroke:#1f77b4;" x="349.658466" xlink:href="#md88d7884cd" y="146.04323"/>
     <use style="fill:#1f77b4;stroke:#1f77b4;" x="349.660441" xlink:href="#md88d7884cd" y="146.042023"/>
     <use style="fill:#1f77b4;stroke:#1f77b4;" x="349.663348" xlink:href="#md88d7884cd" y="146.04293"/>
     <use style="fill:#1f77b4;stroke:#1f77b4;" x="349.661164" xlink:href="#md88d7884cd" y="146.04209"/>
     <use style="fill:#1f77b4;stroke:#1f77b4;" x="349.663186" xlink:href="#md88d7884cd" y="146.042673"/>
     <use style="fill:#1f77b4;stroke:#1f77b4;" x="349.661783" xlink:href="#md88d7884cd" y="146.042401"/>
     <use style="fill:#1f77b4;stroke:#1f77b4;" x="349.662438" xlink:href="#md88d7884cd" y="146.042535"/>
     <use style="fill:#1f77b4;stroke:#1f77b4;" x="349.662115" xlink:href="#md88d7884cd" y="146.042468"/>
     <use style="fill:#1f77b4;stroke:#1f77b4;" x="349.662277" xlink:href="#md88d7884cd" y="146.042478"/>
     <use style="fill:#1f77b4;stroke:#1f77b4;" x="349.662251" xlink:href="#md88d7884cd" y="146.042498"/>
     <use style="fill:#1f77b4;stroke:#1f77b4;" x="349.662204" xlink:href="#md88d7884cd" y="146.042491"/>
     <use style="fill:#1f77b4;stroke:#1f77b4;" x="349.662219" xlink:href="#md88d7884cd" y="146.042491"/>
     <use style="fill:#1f77b4;stroke:#1f77b4;" x="349.662219" xlink:href="#md88d7884cd" y="146.042491"/>
     <use style="fill:#1f77b4;stroke:#1f77b4;" x="349.662219" xlink:href="#md88d7884cd" y="146.042491"/>
     <use style="fill:#1f77b4;stroke:#1f77b4;" x="349.662219" xlink:href="#md88d7884cd" y="146.042491"/>
     <use style="fill:#1f77b4;stroke:#1f77b4;" x="349.662219" xlink:href="#md88d7884cd" y="146.042491"/>
     <use style="fill:#1f77b4;stroke:#1f77b4;" x="349.662219" xlink:href="#md88d7884cd" y="146.042491"/>
     <use style="fill:#1f77b4;stroke:#1f77b4;" x="349.662219" xlink:href="#md88d7884cd" y="146.042491"/>
     <use style="fill:#1f77b4;stroke:#1f77b4;" x="349.662219" xlink:href="#md88d7884cd" y="146.042491"/>
     <use style="fill:#1f77b4;stroke:#1f77b4;" x="349.662219" xlink:href="#md88d7884cd" y="146.042491"/>
     <use style="fill:#1f77b4;stroke:#1f77b4;" x="349.662219" xlink:href="#md88d7884cd" y="146.042491"/>
     <use style="fill:#1f77b4;stroke:#1f77b4;" x="349.662219" xlink:href="#md88d7884cd" y="146.042491"/>
     <use style="fill:#1f77b4;stroke:#1f77b4;" x="349.662219" xlink:href="#md88d7884cd" y="146.042491"/>
     <use style="fill:#1f77b4;stroke:#1f77b4;" x="349.662219" xlink:href="#md88d7884cd" y="146.042491"/>
     <use style="fill:#1f77b4;stroke:#1f77b4;" x="349.662219" xlink:href="#md88d7884cd" y="146.042491"/>
     <use style="fill:#1f77b4;stroke:#1f77b4;" x="349.662219" xlink:href="#md88d7884cd" y="146.042491"/>
     <use style="fill:#1f77b4;stroke:#1f77b4;" x="349.662219" xlink:href="#md88d7884cd" y="146.042491"/>
     <use style="fill:#1f77b4;stroke:#1f77b4;" x="349.662219" xlink:href="#md88d7884cd" y="146.042491"/>
     <use style="fill:#1f77b4;stroke:#1f77b4;" x="349.662219" xlink:href="#md88d7884cd" y="146.042491"/>
     <use style="fill:#1f77b4;stroke:#1f77b4;" x="349.662219" xlink:href="#md88d7884cd" y="146.042491"/>
     <use style="fill:#1f77b4;stroke:#1f77b4;" x="349.662219" xlink:href="#md88d7884cd" y="146.042491"/>
     <use style="fill:#1f77b4;stroke:#1f77b4;" x="349.662219" xlink:href="#md88d7884cd" y="146.042491"/>
     <use style="fill:#1f77b4;stroke:#1f77b4;" x="349.662219" xlink:href="#md88d7884cd" y="146.042491"/>
     <use style="fill:#1f77b4;stroke:#1f77b4;" x="349.662219" xlink:href="#md88d7884cd" y="146.042491"/>
     <use style="fill:#1f77b4;stroke:#1f77b4;" x="349.662219" xlink:href="#md88d7884cd" y="146.042491"/>
     <use style="fill:#1f77b4;stroke:#1f77b4;" x="349.662219" xlink:href="#md88d7884cd" y="146.042491"/>
     <use style="fill:#1f77b4;stroke:#1f77b4;" x="349.662219" xlink:href="#md88d7884cd" y="146.042491"/>
     <use style="fill:#1f77b4;stroke:#1f77b4;" x="349.662219" xlink:href="#md88d7884cd" y="146.042491"/>
     <use style="fill:#1f77b4;stroke:#1f77b4;" x="349.662219" xlink:href="#md88d7884cd" y="146.042491"/>
     <use style="fill:#1f77b4;stroke:#1f77b4;" x="349.662219" xlink:href="#md88d7884cd" y="146.042491"/>
     <use style="fill:#1f77b4;stroke:#1f77b4;" x="349.662219" xlink:href="#md88d7884cd" y="146.042491"/>
     <use style="fill:#1f77b4;stroke:#1f77b4;" x="349.662219" xlink:href="#md88d7884cd" y="146.042491"/>
     <use style="fill:#1f77b4;stroke:#1f77b4;" x="349.662219" xlink:href="#md88d7884cd" y="146.042491"/>
     <use style="fill:#1f77b4;stroke:#1f77b4;" x="349.662219" xlink:href="#md88d7884cd" y="146.042491"/>
     <use style="fill:#1f77b4;stroke:#1f77b4;" x="349.662219" xlink:href="#md88d7884cd" y="146.042491"/>
     <use style="fill:#1f77b4;stroke:#1f77b4;" x="349.662219" xlink:href="#md88d7884cd" y="146.042491"/>
     <use style="fill:#1f77b4;stroke:#1f77b4;" x="349.662219" xlink:href="#md88d7884cd" y="146.042491"/>
     <use style="fill:#1f77b4;stroke:#1f77b4;" x="349.662219" xlink:href="#md88d7884cd" y="146.042491"/>
     <use style="fill:#1f77b4;stroke:#1f77b4;" x="349.662219" xlink:href="#md88d7884cd" y="146.042491"/>
     <use style="fill:#1f77b4;stroke:#1f77b4;" x="349.662219" xlink:href="#md88d7884cd" y="146.042491"/>
     <use style="fill:#1f77b4;stroke:#1f77b4;" x="349.662219" xlink:href="#md88d7884cd" y="146.042491"/>
     <use style="fill:#1f77b4;stroke:#1f77b4;" x="349.662219" xlink:href="#md88d7884cd" y="146.042491"/>
     <use style="fill:#1f77b4;stroke:#1f77b4;" x="349.662219" xlink:href="#md88d7884cd" y="146.042491"/>
     <use style="fill:#1f77b4;stroke:#1f77b4;" x="349.662219" xlink:href="#md88d7884cd" y="146.042491"/>
     <use style="fill:#1f77b4;stroke:#1f77b4;" x="349.662219" xlink:href="#md88d7884cd" y="146.042491"/>
     <use style="fill:#1f77b4;stroke:#1f77b4;" x="349.662219" xlink:href="#md88d7884cd" y="146.042491"/>
     <use style="fill:#1f77b4;stroke:#1f77b4;" x="349.662219" xlink:href="#md88d7884cd" y="146.042491"/>
     <use style="fill:#1f77b4;stroke:#1f77b4;" x="349.662219" xlink:href="#md88d7884cd" y="146.042491"/>
     <use style="fill:#1f77b4;stroke:#1f77b4;" x="349.662219" xlink:href="#md88d7884cd" y="146.042491"/>
     <use style="fill:#1f77b4;stroke:#1f77b4;" x="349.662219" xlink:href="#md88d7884cd" y="146.042491"/>
     <use style="fill:#1f77b4;stroke:#1f77b4;" x="349.662219" xlink:href="#md88d7884cd" y="146.042491"/>
     <use style="fill:#1f77b4;stroke:#1f77b4;" x="349.662219" xlink:href="#md88d7884cd" y="146.042491"/>
     <use style="fill:#1f77b4;stroke:#1f77b4;" x="349.662219" xlink:href="#md88d7884cd" y="146.042491"/>
     <use style="fill:#1f77b4;stroke:#1f77b4;" x="349.662219" xlink:href="#md88d7884cd" y="146.042491"/>
     <use style="fill:#1f77b4;stroke:#1f77b4;" x="349.662219" xlink:href="#md88d7884cd" y="146.042491"/>
     <use style="fill:#1f77b4;stroke:#1f77b4;" x="349.662219" xlink:href="#md88d7884cd" y="146.042491"/>
     <use style="fill:#1f77b4;stroke:#1f77b4;" x="349.662219" xlink:href="#md88d7884cd" y="146.042491"/>
     <use style="fill:#1f77b4;stroke:#1f77b4;" x="349.662219" xlink:href="#md88d7884cd" y="146.042491"/>
     <use style="fill:#1f77b4;stroke:#1f77b4;" x="349.662219" xlink:href="#md88d7884cd" y="146.042491"/>
     <use style="fill:#1f77b4;stroke:#1f77b4;" x="349.662219" xlink:href="#md88d7884cd" y="146.042491"/>
     <use style="fill:#1f77b4;stroke:#1f77b4;" x="349.662219" xlink:href="#md88d7884cd" y="146.042491"/>
     <use style="fill:#1f77b4;stroke:#1f77b4;" x="349.662219" xlink:href="#md88d7884cd" y="146.042491"/>
     <use style="fill:#1f77b4;stroke:#1f77b4;" x="349.662219" xlink:href="#md88d7884cd" y="146.042491"/>
     <use style="fill:#1f77b4;stroke:#1f77b4;" x="349.662219" xlink:href="#md88d7884cd" y="146.042491"/>
     <use style="fill:#1f77b4;stroke:#1f77b4;" x="349.662219" xlink:href="#md88d7884cd" y="146.042491"/>
     <use style="fill:#1f77b4;stroke:#1f77b4;" x="349.662219" xlink:href="#md88d7884cd" y="146.042491"/>
     <use style="fill:#1f77b4;stroke:#1f77b4;" x="349.662219" xlink:href="#md88d7884cd" y="146.042491"/>
     <use style="fill:#1f77b4;stroke:#1f77b4;" x="349.662219" xlink:href="#md88d7884cd" y="146.042491"/>
     <use style="fill:#1f77b4;stroke:#1f77b4;" x="349.662219" xlink:href="#md88d7884cd" y="146.042491"/>
     <use style="fill:#1f77b4;stroke:#1f77b4;" x="349.662219" xlink:href="#md88d7884cd" y="146.042491"/>
     <use style="fill:#1f77b4;stroke:#1f77b4;" x="349.662219" xlink:href="#md88d7884cd" y="146.042491"/>
     <use style="fill:#1f77b4;stroke:#1f77b4;" x="349.662219" xlink:href="#md88d7884cd" y="146.042491"/>
     <use style="fill:#1f77b4;stroke:#1f77b4;" x="349.662219" xlink:href="#md88d7884cd" y="146.042491"/>
     <use style="fill:#1f77b4;stroke:#1f77b4;" x="349.662219" xlink:href="#md88d7884cd" y="146.042491"/>
    </g>
   </g>
   <g id="PathCollection_2">
    <defs>
     <path d="M 0 0.707107 
C 0.187527 0.707107 0.367398 0.632602 0.5 0.5 
C 0.632602 0.367398 0.707107 0.187527 0.707107 0 
C 0.707107 -0.187527 0.632602 -0.367398 0.5 -0.5 
C 0.367398 -0.632602 0.187527 -0.707107 0 -0.707107 
C -0.187527 -0.707107 -0.367398 -0.632602 -0.5 -0.5 
C -0.632602 -0.367398 -0.707107 -0.187527 -0.707107 0 
C -0.707107 0.187527 -0.632602 0.367398 -0.5 0.5 
C -0.367398 0.632602 -0.187527 0.707107 0 0.707107 
z
" id="mfb2f6ae503" style="stroke:#ff7f0e;"/>
    </defs>
    <g clip-path="url(#pe7a1d8c614)">
     <use style="fill:#ff7f0e;stroke:#ff7f0e;" x="473.53323" xlink:href="#mfb2f6ae503" y="189.071773"/>
     <use style="fill:#ff7f0e;stroke:#ff7f0e;" x="246.11393" xlink:href="#mfb2f6ae503" y="82.148371"/>
     <use style="fill:#ff7f0e;stroke:#ff7f0e;" x="503.420932" xlink:href="#mfb2f6ae503" y="241.357718"/>
     <use style="fill:#ff7f0e;stroke:#ff7f0e;" x="120.289839" xlink:href="#mfb2f6ae503" y="175.206571"/>
     <use style="fill:#ff7f0e;stroke:#ff7f0e;" x="279.479997" xlink:href="#mfb2f6ae503" y="118.234409"/>
     <use style="fill:#ff7f0e;stroke:#ff7f0e;" x="416.581287" xlink:href="#mfb2f6ae503" y="143.664059"/>
     <use style="fill:#ff7f0e;stroke:#ff7f0e;" x="355.385826" xlink:href="#mfb2f6ae503" y="90.872088"/>
     <use style="fill:#ff7f0e;stroke:#ff7f0e;" x="482.427647" xlink:href="#mfb2f6ae503" y="200.513557"/>
     <use style="fill:#ff7f0e;stroke:#ff7f0e;" x="218.579722" xlink:href="#mfb2f6ae503" y="93.193093"/>
     <use style="fill:#ff7f0e;stroke:#ff7f0e;" x="476.842238" xlink:href="#mfb2f6ae503" y="210.820963"/>
     <use style="fill:#ff7f0e;stroke:#ff7f0e;" x="193.775351" xlink:href="#mfb2f6ae503" y="109.16767"/>
     <use style="fill:#ff7f0e;stroke:#ff7f0e;" x="438.400041" xlink:href="#mfb2f6ae503" y="173.117747"/>
     <use style="fill:#ff7f0e;stroke:#ff7f0e;" x="284.506672" xlink:href="#mfb2f6ae503" y="78.023208"/>
     <use style="fill:#ff7f0e;stroke:#ff7f0e;" x="513.347975" xlink:href="#mfb2f6ae503" y="250.467507"/>
     <use style="fill:#ff7f0e;stroke:#ff7f0e;" x="98.367486" xlink:href="#mfb2f6ae503" y="201.633869"/>
     <use style="fill:#ff7f0e;stroke:#ff7f0e;" x="215.883734" xlink:href="#mfb2f6ae503" y="142.533528"/>
     <use style="fill:#ff7f0e;stroke:#ff7f0e;" x="358.106404" xlink:href="#mfb2f6ae503" y="116.9485"/>
     <use style="fill:#ff7f0e;stroke:#ff7f0e;" x="419.675776" xlink:href="#mfb2f6ae503" y="136.330906"/>
     <use style="fill:#ff7f0e;stroke:#ff7f0e;" x="373.032771" xlink:href="#mfb2f6ae503" y="98.21823"/>
     <use style="fill:#ff7f0e;stroke:#ff7f0e;" x="464.749442" xlink:href="#mfb2f6ae503" y="177.670434"/>
     <use style="fill:#ff7f0e;stroke:#ff7f0e;" x="273.550808" xlink:href="#mfb2f6ae503" y="76.162892"/>
     <use style="fill:#ff7f0e;stroke:#ff7f0e;" x="517.824753" xlink:href="#mfb2f6ae503" y="258.315048"/>
     <use style="fill:#ff7f0e;stroke:#ff7f0e;" x="79.482686" xlink:href="#mfb2f6ae503" y="227.477513"/>
     <use style="fill:#ff7f0e;stroke:#ff7f0e;" x="153.692011" xlink:href="#mfb2f6ae503" y="192.067867"/>
     <use style="fill:#ff7f0e;stroke:#ff7f0e;" x="238.903946" xlink:href="#mfb2f6ae503" y="124.714939"/>
     <use style="fill:#ff7f0e;stroke:#ff7f0e;" x="400.986145" xlink:href="#mfb2f6ae503" y="137.25281"/>
     <use style="fill:#ff7f0e;stroke:#ff7f0e;" x="370.814246" xlink:href="#mfb2f6ae503" y="99.461969"/>
     <use style="fill:#ff7f0e;stroke:#ff7f0e;" x="461.756431" xlink:href="#mfb2f6ae503" y="174.658343"/>
     <use style="fill:#ff7f0e;stroke:#ff7f0e;" x="280.799286" xlink:href="#mfb2f6ae503" y="75.503921"/>
     <use style="fill:#ff7f0e;stroke:#ff7f0e;" x="519.410541" xlink:href="#mfb2f6ae503" y="259.739458"/>
     <use style="fill:#ff7f0e;stroke:#ff7f0e;" x="76.054899" xlink:href="#mfb2f6ae503" y="232.327082"/>
     <use style="fill:#ff7f0e;stroke:#ff7f0e;" x="142.021712" xlink:href="#mfb2f6ae503" y="204.223358"/>
     <use style="fill:#ff7f0e;stroke:#ff7f0e;" x="209.652231" xlink:href="#mfb2f6ae503" y="140.655774"/>
     <use style="fill:#ff7f0e;stroke:#ff7f0e;" x="362.625146" xlink:href="#mfb2f6ae503" y="119.589365"/>
     <use style="fill:#ff7f0e;stroke:#ff7f0e;" x="413.320638" xlink:href="#mfb2f6ae503" y="130.7666"/>
     <use style="fill:#ff7f0e;stroke:#ff7f0e;" x="386.423056" xlink:href="#mfb2f6ae503" y="106.263413"/>
     <use style="fill:#ff7f0e;stroke:#ff7f0e;" x="445.389024" xlink:href="#mfb2f6ae503" y="155.785121"/>
     <use style="fill:#ff7f0e;stroke:#ff7f0e;" x="326.21696" xlink:href="#mfb2f6ae503" y="79.054875"/>
     <use style="fill:#ff7f0e;stroke:#ff7f0e;" x="510.86531" xlink:href="#mfb2f6ae503" y="241.730811"/>
     <use style="fill:#ff7f0e;stroke:#ff7f0e;" x="119.392005" xlink:href="#mfb2f6ae503" y="175.348588"/>
     <use style="fill:#ff7f0e;stroke:#ff7f0e;" x="279.13824" xlink:href="#mfb2f6ae503" y="118.390132"/>
     <use style="fill:#ff7f0e;stroke:#ff7f0e;" x="416.206545" xlink:href="#mfb2f6ae503" y="143.412029"/>
     <use style="fill:#ff7f0e;stroke:#ff7f0e;" x="355.992326" xlink:href="#mfb2f6ae503" y="91.150076"/>
     <use style="fill:#ff7f0e;stroke:#ff7f0e;" x="481.75868" xlink:href="#mfb2f6ae503" y="199.618847"/>
     <use style="fill:#ff7f0e;stroke:#ff7f0e;" x="220.732806" xlink:href="#mfb2f6ae503" y="92.143868"/>
     <use style="fill:#ff7f0e;stroke:#ff7f0e;" x="479.367158" xlink:href="#mfb2f6ae503" y="213.577011"/>
     <use style="fill:#ff7f0e;stroke:#ff7f0e;" x="187.143029" xlink:href="#mfb2f6ae503" y="113.633444"/>
     <use style="fill:#ff7f0e;stroke:#ff7f0e;" x="427.653331" xlink:href="#mfb2f6ae503" y="164.302979"/>
     <use style="fill:#ff7f0e;stroke:#ff7f0e;" x="305.719068" xlink:href="#mfb2f6ae503" y="78.88059"/>
     <use style="fill:#ff7f0e;stroke:#ff7f0e;" x="511.284719" xlink:href="#mfb2f6ae503" y="244.880795"/>
     <use style="fill:#ff7f0e;stroke:#ff7f0e;" x="111.811692" xlink:href="#mfb2f6ae503" y="184.545067"/>
     <use style="fill:#ff7f0e;stroke:#ff7f0e;" x="257.007271" xlink:href="#mfb2f6ae503" y="123.82994"/>
     <use style="fill:#ff7f0e;stroke:#ff7f0e;" x="403.115861" xlink:href="#mfb2f6ae503" y="136.466649"/>
     <use style="fill:#ff7f0e;stroke:#ff7f0e;" x="372.706112" xlink:href="#mfb2f6ae503" y="100.120668"/>
     <use style="fill:#ff7f0e;stroke:#ff7f0e;" x="460.171299" xlink:href="#mfb2f6ae503" y="172.704988"/>
     <use style="fill:#ff7f0e;stroke:#ff7f0e;" x="285.499961" xlink:href="#mfb2f6ae503" y="75.219548"/>
     <use style="fill:#ff7f0e;stroke:#ff7f0e;" x="520.094875" xlink:href="#mfb2f6ae503" y="260.163292"/>
     <use style="fill:#ff7f0e;stroke:#ff7f0e;" x="75.034957" xlink:href="#mfb2f6ae503" y="233.758738"/>
     <use style="fill:#ff7f0e;stroke:#ff7f0e;" x="138.576489" xlink:href="#mfb2f6ae503" y="207.986488"/>
     <use style="fill:#ff7f0e;stroke:#ff7f0e;" x="200.596405" xlink:href="#mfb2f6ae503" y="146.726831"/>
     <use style="fill:#ff7f0e;stroke:#ff7f0e;" x="348.015384" xlink:href="#mfb2f6ae503" y="115.18335"/>
     <use style="fill:#ff7f0e;stroke:#ff7f0e;" x="423.923542" xlink:href="#mfb2f6ae503" y="141.081753"/>
     <use style="fill:#ff7f0e;stroke:#ff7f0e;" x="361.600043" xlink:href="#mfb2f6ae503" y="92.442552"/>
     <use style="fill:#ff7f0e;stroke:#ff7f0e;" x="478.648387" xlink:href="#mfb2f6ae503" y="195.150566"/>
     <use style="fill:#ff7f0e;stroke:#ff7f0e;" x="231.485551" xlink:href="#mfb2f6ae503" y="87.337993"/>
     <use style="fill:#ff7f0e;stroke:#ff7f0e;" x="490.932308" xlink:href="#mfb2f6ae503" y="226.633227"/>
     <use style="fill:#ff7f0e;stroke:#ff7f0e;" x="155.723752" xlink:href="#mfb2f6ae503" y="138.825784"/>
     <use style="fill:#ff7f0e;stroke:#ff7f0e;" x="367.028945" xlink:href="#mfb2f6ae503" y="128.259969"/>
     <use style="fill:#ff7f0e;stroke:#ff7f0e;" x="392.455168" xlink:href="#mfb2f6ae503" y="115.692395"/>
     <use style="fill:#ff7f0e;stroke:#ff7f0e;" x="422.698543" xlink:href="#mfb2f6ae503" y="134.522057"/>
     <use style="fill:#ff7f0e;stroke:#ff7f0e;" x="377.385696" xlink:href="#mfb2f6ae503" y="100.067982"/>
     <use style="fill:#ff7f0e;stroke:#ff7f0e;" x="460.298085" xlink:href="#mfb2f6ae503" y="172.258359"/>
     <use style="fill:#ff7f0e;stroke:#ff7f0e;" x="286.574755" xlink:href="#mfb2f6ae503" y="75.114237"/>
     <use style="fill:#ff7f0e;stroke:#ff7f0e;" x="520.348301" xlink:href="#mfb2f6ae503" y="260.404054"/>
     <use style="fill:#ff7f0e;stroke:#ff7f0e;" x="74.455574" xlink:href="#mfb2f6ae503" y="234.591933"/>
     <use style="fill:#ff7f0e;stroke:#ff7f0e;" x="136.571437" xlink:href="#mfb2f6ae503" y="210.211234"/>
     <use style="fill:#ff7f0e;stroke:#ff7f0e;" x="195.242639" xlink:href="#mfb2f6ae503" y="150.569341"/>
     <use style="fill:#ff7f0e;stroke:#ff7f0e;" x="338.768532" xlink:href="#mfb2f6ae503" y="113.083287"/>
     <use style="fill:#ff7f0e;stroke:#ff7f0e;" x="428.97726" xlink:href="#mfb2f6ae503" y="146.546853"/>
     <use style="fill:#ff7f0e;stroke:#ff7f0e;" x="348.448492" xlink:href="#mfb2f6ae503" y="86.855995"/>
     <use style="fill:#ff7f0e;stroke:#ff7f0e;" x="492.092219" xlink:href="#mfb2f6ae503" y="213.545233"/>
     <use style="fill:#ff7f0e;stroke:#ff7f0e;" x="187.219502" xlink:href="#mfb2f6ae503" y="111.990281"/>
     <use style="fill:#ff7f0e;stroke:#ff7f0e;" x="431.607537" xlink:href="#mfb2f6ae503" y="167.751442"/>
     <use style="fill:#ff7f0e;stroke:#ff7f0e;" x="297.420476" xlink:href="#mfb2f6ae503" y="78.218941"/>
     <use style="fill:#ff7f0e;stroke:#ff7f0e;" x="512.876953" xlink:href="#mfb2f6ae503" y="248.183434"/>
     <use style="fill:#ff7f0e;stroke:#ff7f0e;" x="103.864019" xlink:href="#mfb2f6ae503" y="194.455144"/>
     <use style="fill:#ff7f0e;stroke:#ff7f0e;" x="233.159056" xlink:href="#mfb2f6ae503" y="133.321301"/>
     <use style="fill:#ff7f0e;stroke:#ff7f0e;" x="380.275268" xlink:href="#mfb2f6ae503" y="125.244663"/>
     <use style="fill:#ff7f0e;stroke:#ff7f0e;" x="399.711384" xlink:href="#mfb2f6ae503" y="118.763022"/>
     <use style="fill:#ff7f0e;stroke:#ff7f0e;" x="415.309199" xlink:href="#mfb2f6ae503" y="127.679149"/>
    </g>
   </g>
   <g id="matplotlib.axis_1">
    <g id="xtick_1">
     <g id="line2d_1">
      <defs>
       <path d="M 0 0 
L 0 3.5 
" id="m0a99a7ec86" style="stroke:#000000;stroke-width:0.8;"/>
      </defs>
      <g>
       <use style="stroke:#000000;stroke-width:0.8;" x="124.082886" xlink:href="#m0a99a7ec86" y="312.269325"/>
      </g>
     </g>
     <g id="text_1">
      <!-- −1.0 -->
      <defs>
       <path d="M 10.59375 35.5 
L 73.1875 35.5 
L 73.1875 27.203125 
L 10.59375 27.203125 
z
" id="DejaVuSans-8722"/>
       <path d="M 12.40625 8.296875 
L 28.515625 8.296875 
L 28.515625 63.921875 
L 10.984375 60.40625 
L 10.984375 69.390625 
L 28.421875 72.90625 
L 38.28125 72.90625 
L 38.28125 8.296875 
L 54.390625 8.296875 
L 54.390625 0 
L 12.40625 0 
z
" id="DejaVuSans-49"/>
       <path d="M 10.6875 12.40625 
L 21 12.40625 
L 21 0 
L 10.6875 0 
z
" id="DejaVuSans-46"/>
       <path d="M 31.78125 66.40625 
Q 24.171875 66.40625 20.328125 58.90625 
Q 16.5 51.421875 16.5 36.375 
Q 16.5 21.390625 20.328125 13.890625 
Q 24.171875 6.390625 31.78125 6.390625 
Q 39.453125 6.390625 43.28125 13.890625 
Q 47.125 21.390625 47.125 36.375 
Q 47.125 51.421875 43.28125 58.90625 
Q 39.453125 66.40625 31.78125 66.40625 
z
M 31.78125 74.21875 
Q 44.046875 74.21875 50.515625 64.515625 
Q 56.984375 54.828125 56.984375 36.375 
Q 56.984375 17.96875 50.515625 8.265625 
Q 44.046875 -1.421875 31.78125 -1.421875 
Q 19.53125 -1.421875 13.0625 8.265625 
Q 6.59375 17.96875 6.59375 36.375 
Q 6.59375 54.828125 13.0625 64.515625 
Q 19.53125 74.21875 31.78125 74.21875 
z
" id="DejaVuSans-48"/>
      </defs>
      <g transform="translate(111.94148 326.867763)scale(0.1 -0.1)">
       <use xlink:href="#DejaVuSans-8722"/>
       <use x="83.789062" xlink:href="#DejaVuSans-49"/>
       <use x="147.412109" xlink:href="#DejaVuSans-46"/>
       <use x="179.199219" xlink:href="#DejaVuSans-48"/>
      </g>
     </g>
    </g>
    <g id="xtick_2">
     <g id="line2d_2">
      <g>
       <use style="stroke:#000000;stroke-width:0.8;" x="211.30242" xlink:href="#m0a99a7ec86" y="312.269325"/>
      </g>
     </g>
     <g id="text_2">
      <!-- −0.5 -->
      <defs>
       <path d="M 10.796875 72.90625 
L 49.515625 72.90625 
L 49.515625 64.59375 
L 19.828125 64.59375 
L 19.828125 46.734375 
Q 21.96875 47.46875 24.109375 47.828125 
Q 26.265625 48.1875 28.421875 48.1875 
Q 40.625 48.1875 47.75 41.5 
Q 54.890625 34.8125 54.890625 23.390625 
Q 54.890625 11.625 47.5625 5.09375 
Q 40.234375 -1.421875 26.90625 -1.421875 
Q 22.3125 -1.421875 17.546875 -0.640625 
Q 12.796875 0.140625 7.71875 1.703125 
L 7.71875 11.625 
Q 12.109375 9.234375 16.796875 8.0625 
Q 21.484375 6.890625 26.703125 6.890625 
Q 35.15625 6.890625 40.078125 11.328125 
Q 45.015625 15.765625 45.015625 23.390625 
Q 45.015625 31 40.078125 35.4375 
Q 35.15625 39.890625 26.703125 39.890625 
Q 22.75 39.890625 18.8125 39.015625 
Q 14.890625 38.140625 10.796875 36.28125 
z
" id="DejaVuSans-53"/>
      </defs>
      <g transform="translate(199.161014 326.867763)scale(0.1 -0.1)">
       <use xlink:href="#DejaVuSans-8722"/>
       <use x="83.789062" xlink:href="#DejaVuSans-48"/>
       <use x="147.412109" xlink:href="#DejaVuSans-46"/>
       <use x="179.199219" xlink:href="#DejaVuSans-53"/>
      </g>
     </g>
    </g>
    <g id="xtick_3">
     <g id="line2d_3">
      <g>
       <use style="stroke:#000000;stroke-width:0.8;" x="298.521954" xlink:href="#m0a99a7ec86" y="312.269325"/>
      </g>
     </g>
     <g id="text_3">
      <!-- 0.0 -->
      <g transform="translate(290.570391 326.867763)scale(0.1 -0.1)">
       <use xlink:href="#DejaVuSans-48"/>
       <use x="63.623047" xlink:href="#DejaVuSans-46"/>
       <use x="95.410156" xlink:href="#DejaVuSans-48"/>
      </g>
     </g>
    </g>
    <g id="xtick_4">
     <g id="line2d_4">
      <g>
       <use style="stroke:#000000;stroke-width:0.8;" x="385.741487" xlink:href="#m0a99a7ec86" y="312.269325"/>
      </g>
     </g>
     <g id="text_4">
      <!-- 0.5 -->
      <g transform="translate(377.789925 326.867763)scale(0.1 -0.1)">
       <use xlink:href="#DejaVuSans-48"/>
       <use x="63.623047" xlink:href="#DejaVuSans-46"/>
       <use x="95.410156" xlink:href="#DejaVuSans-53"/>
      </g>
     </g>
    </g>
    <g id="xtick_5">
     <g id="line2d_5">
      <g>
       <use style="stroke:#000000;stroke-width:0.8;" x="472.961021" xlink:href="#m0a99a7ec86" y="312.269325"/>
      </g>
     </g>
     <g id="text_5">
      <!-- 1.0 -->
      <g transform="translate(465.009459 326.867763)scale(0.1 -0.1)">
       <use xlink:href="#DejaVuSans-49"/>
       <use x="63.623047" xlink:href="#DejaVuSans-46"/>
       <use x="95.410156" xlink:href="#DejaVuSans-48"/>
      </g>
     </g>
    </g>
    <g id="text_6">
     <!-- $x_t$ -->
     <defs>
      <path d="M 60.015625 54.6875 
L 34.90625 27.875 
L 50.296875 0 
L 39.984375 0 
L 28.421875 21.6875 
L 8.296875 0 
L -2.59375 0 
L 24.3125 28.8125 
L 10.015625 54.6875 
L 20.3125 54.6875 
L 30.8125 34.90625 
L 49.125 54.6875 
z
" id="DejaVuSans-Oblique-120"/>
      <path d="M 42.28125 54.6875 
L 40.921875 47.703125 
L 23 47.703125 
L 17.1875 18.015625 
Q 16.890625 16.359375 16.75 15.234375 
Q 16.609375 14.109375 16.609375 13.484375 
Q 16.609375 10.359375 18.484375 8.9375 
Q 20.359375 7.515625 24.515625 7.515625 
L 33.59375 7.515625 
L 32.078125 0 
L 23.484375 0 
Q 15.484375 0 11.546875 3.125 
Q 7.625 6.25 7.625 12.59375 
Q 7.625 13.71875 7.765625 15.0625 
Q 7.90625 16.40625 8.203125 18.015625 
L 14.015625 47.703125 
L 6.390625 47.703125 
L 7.8125 54.6875 
L 15.28125 54.6875 
L 18.3125 70.21875 
L 27.296875 70.21875 
L 24.3125 54.6875 
z
" id="DejaVuSans-Oblique-116"/>
     </defs>
     <g transform="translate(292.901937 340.545887)scale(0.1 -0.1)">
      <use transform="translate(0 0.3125)" xlink:href="#DejaVuSans-Oblique-120"/>
      <use transform="translate(59.179688 -16.09375)scale(0.7)" xlink:href="#DejaVuSans-Oblique-116"/>
     </g>
    </g>
   </g>
   <g id="matplotlib.axis_2">
    <g id="ytick_1">
     <g id="line2d_6">
      <defs>
       <path d="M 0 0 
L -3.5 0 
" id="maae303ea68" style="stroke:#000000;stroke-width:0.8;"/>
      </defs>
      <g>
       <use style="stroke:#000000;stroke-width:0.8;" x="52.160938" xlink:href="#maae303ea68" y="312.269325"/>
      </g>
     </g>
     <g id="text_7">
      <!-- −2.0 -->
      <defs>
       <path d="M 19.1875 8.296875 
L 53.609375 8.296875 
L 53.609375 0 
L 7.328125 0 
L 7.328125 8.296875 
Q 12.9375 14.109375 22.625 23.890625 
Q 32.328125 33.6875 34.8125 36.53125 
Q 39.546875 41.84375 41.421875 45.53125 
Q 43.3125 49.21875 43.3125 52.78125 
Q 43.3125 58.59375 39.234375 62.25 
Q 35.15625 65.921875 28.609375 65.921875 
Q 23.96875 65.921875 18.8125 64.3125 
Q 13.671875 62.703125 7.8125 59.421875 
L 7.8125 69.390625 
Q 13.765625 71.78125 18.9375 73 
Q 24.125 74.21875 28.421875 74.21875 
Q 39.75 74.21875 46.484375 68.546875 
Q 53.21875 62.890625 53.21875 53.421875 
Q 53.21875 48.921875 51.53125 44.890625 
Q 49.859375 40.875 45.40625 35.40625 
Q 44.1875 33.984375 37.640625 27.21875 
Q 31.109375 20.453125 19.1875 8.296875 
z
" id="DejaVuSans-50"/>
      </defs>
      <g transform="translate(20.878125 316.068544)scale(0.1 -0.1)">
       <use xlink:href="#DejaVuSans-8722"/>
       <use x="83.789062" xlink:href="#DejaVuSans-50"/>
       <use x="147.412109" xlink:href="#DejaVuSans-46"/>
       <use x="179.199219" xlink:href="#DejaVuSans-48"/>
      </g>
     </g>
    </g>
    <g id="ytick_2">
     <g id="line2d_7">
      <g>
       <use style="stroke:#000000;stroke-width:0.8;" x="52.160938" xlink:href="#maae303ea68" y="276.025425"/>
      </g>
     </g>
     <g id="text_8">
      <!-- −1.5 -->
      <g transform="translate(20.878125 279.824644)scale(0.1 -0.1)">
       <use xlink:href="#DejaVuSans-8722"/>
       <use x="83.789062" xlink:href="#DejaVuSans-49"/>
       <use x="147.412109" xlink:href="#DejaVuSans-46"/>
       <use x="179.199219" xlink:href="#DejaVuSans-53"/>
      </g>
     </g>
    </g>
    <g id="ytick_3">
     <g id="line2d_8">
      <g>
       <use style="stroke:#000000;stroke-width:0.8;" x="52.160938" xlink:href="#maae303ea68" y="239.781525"/>
      </g>
     </g>
     <g id="text_9">
      <!-- −1.0 -->
      <g transform="translate(20.878125 243.580744)scale(0.1 -0.1)">
       <use xlink:href="#DejaVuSans-8722"/>
       <use x="83.789062" xlink:href="#DejaVuSans-49"/>
       <use x="147.412109" xlink:href="#DejaVuSans-46"/>
       <use x="179.199219" xlink:href="#DejaVuSans-48"/>
      </g>
     </g>
    </g>
    <g id="ytick_4">
     <g id="line2d_9">
      <g>
       <use style="stroke:#000000;stroke-width:0.8;" x="52.160938" xlink:href="#maae303ea68" y="203.537625"/>
      </g>
     </g>
     <g id="text_10">
      <!-- −0.5 -->
      <g transform="translate(20.878125 207.336844)scale(0.1 -0.1)">
       <use xlink:href="#DejaVuSans-8722"/>
       <use x="83.789062" xlink:href="#DejaVuSans-48"/>
       <use x="147.412109" xlink:href="#DejaVuSans-46"/>
       <use x="179.199219" xlink:href="#DejaVuSans-53"/>
      </g>
     </g>
    </g>
    <g id="ytick_5">
     <g id="line2d_10">
      <g>
       <use style="stroke:#000000;stroke-width:0.8;" x="52.160938" xlink:href="#maae303ea68" y="167.293725"/>
      </g>
     </g>
     <g id="text_11">
      <!-- 0.0 -->
      <g transform="translate(29.257813 171.092944)scale(0.1 -0.1)">
       <use xlink:href="#DejaVuSans-48"/>
       <use x="63.623047" xlink:href="#DejaVuSans-46"/>
       <use x="95.410156" xlink:href="#DejaVuSans-48"/>
      </g>
     </g>
    </g>
    <g id="ytick_6">
     <g id="line2d_11">
      <g>
       <use style="stroke:#000000;stroke-width:0.8;" x="52.160938" xlink:href="#maae303ea68" y="131.049825"/>
      </g>
     </g>
     <g id="text_12">
      <!-- 0.5 -->
      <g transform="translate(29.257813 134.849044)scale(0.1 -0.1)">
       <use xlink:href="#DejaVuSans-48"/>
       <use x="63.623047" xlink:href="#DejaVuSans-46"/>
       <use x="95.410156" xlink:href="#DejaVuSans-53"/>
      </g>
     </g>
    </g>
    <g id="ytick_7">
     <g id="line2d_12">
      <g>
       <use style="stroke:#000000;stroke-width:0.8;" x="52.160938" xlink:href="#maae303ea68" y="94.805925"/>
      </g>
     </g>
     <g id="text_13">
      <!-- 1.0 -->
      <g transform="translate(29.257813 98.605144)scale(0.1 -0.1)">
       <use xlink:href="#DejaVuSans-49"/>
       <use x="63.623047" xlink:href="#DejaVuSans-46"/>
       <use x="95.410156" xlink:href="#DejaVuSans-48"/>
      </g>
     </g>
    </g>
    <g id="ytick_8">
     <g id="line2d_13">
      <g>
       <use style="stroke:#000000;stroke-width:0.8;" x="52.160938" xlink:href="#maae303ea68" y="58.562025"/>
      </g>
     </g>
     <g id="text_14">
      <!-- 1.5 -->
      <g transform="translate(29.257813 62.361244)scale(0.1 -0.1)">
       <use xlink:href="#DejaVuSans-49"/>
       <use x="63.623047" xlink:href="#DejaVuSans-46"/>
       <use x="95.410156" xlink:href="#DejaVuSans-53"/>
      </g>
     </g>
    </g>
    <g id="ytick_9">
     <g id="line2d_14">
      <g>
       <use style="stroke:#000000;stroke-width:0.8;" x="52.160938" xlink:href="#maae303ea68" y="22.318125"/>
      </g>
     </g>
     <g id="text_15">
      <!-- 2.0 -->
      <g transform="translate(29.257813 26.117344)scale(0.1 -0.1)">
       <use xlink:href="#DejaVuSans-50"/>
       <use x="63.623047" xlink:href="#DejaVuSans-46"/>
       <use x="95.410156" xlink:href="#DejaVuSans-48"/>
      </g>
     </g>
    </g>
    <g id="text_16">
     <!-- $y_t$ -->
     <defs>
      <path d="M 24.8125 -5.078125 
Q 18.5625 -15.578125 14.625 -18.1875 
Q 10.6875 -20.796875 4.59375 -20.796875 
L -2.484375 -20.796875 
L -0.984375 -13.28125 
L 4.203125 -13.28125 
Q 7.953125 -13.28125 10.59375 -11.234375 
Q 13.234375 -9.1875 16.5 -3.21875 
L 19.28125 2 
L 7.171875 54.6875 
L 16.703125 54.6875 
L 25.78125 12.796875 
L 50.875 54.6875 
L 60.296875 54.6875 
z
" id="DejaVuSans-Oblique-121"/>
     </defs>
     <g transform="translate(14.778125 171.793725)rotate(-90)scale(0.1 -0.1)">
      <use transform="translate(0 0.3125)" xlink:href="#DejaVuSans-Oblique-121"/>
      <use transform="translate(59.179688 -16.09375)scale(0.7)" xlink:href="#DejaVuSans-Oblique-116"/>
     </g>
    </g>
   </g>
   <g id="patch_3">
    <path d="M 52.160938 312.269325 
L 52.160938 22.318125 
" style="fill:none;stroke:#000000;stroke-linecap:square;stroke-linejoin:miter;stroke-width:0.8;"/>
   </g>
   <g id="patch_4">
    <path d="M 542.642937 312.269325 
L 542.642937 22.318125 
" style="fill:none;stroke:#000000;stroke-linecap:square;stroke-linejoin:miter;stroke-width:0.8;"/>
   </g>
   <g id="patch_5">
    <path d="M 52.160937 312.269325 
L 542.642938 312.269325 
" style="fill:none;stroke:#000000;stroke-linecap:square;stroke-linejoin:miter;stroke-width:0.8;"/>
   </g>
   <g id="patch_6">
    <path d="M 52.160937 22.318125 
L 542.642938 22.318125 
" style="fill:none;stroke:#000000;stroke-linecap:square;stroke-linejoin:miter;stroke-width:0.8;"/>
   </g>
   <g id="text_17">
    <!-- Phase Diagram of single-Step Prediction -->
    <defs>
     <path d="M 19.671875 64.796875 
L 19.671875 37.40625 
L 32.078125 37.40625 
Q 38.96875 37.40625 42.71875 40.96875 
Q 46.484375 44.53125 46.484375 51.125 
Q 46.484375 57.671875 42.71875 61.234375 
Q 38.96875 64.796875 32.078125 64.796875 
z
M 9.8125 72.90625 
L 32.078125 72.90625 
Q 44.34375 72.90625 50.609375 67.359375 
Q 56.890625 61.8125 56.890625 51.125 
Q 56.890625 40.328125 50.609375 34.8125 
Q 44.34375 29.296875 32.078125 29.296875 
L 19.671875 29.296875 
L 19.671875 0 
L 9.8125 0 
z
" id="DejaVuSans-80"/>
     <path d="M 54.890625 33.015625 
L 54.890625 0 
L 45.90625 0 
L 45.90625 32.71875 
Q 45.90625 40.484375 42.875 44.328125 
Q 39.84375 48.1875 33.796875 48.1875 
Q 26.515625 48.1875 22.3125 43.546875 
Q 18.109375 38.921875 18.109375 30.90625 
L 18.109375 0 
L 9.078125 0 
L 9.078125 75.984375 
L 18.109375 75.984375 
L 18.109375 46.1875 
Q 21.34375 51.125 25.703125 53.5625 
Q 30.078125 56 35.796875 56 
Q 45.21875 56 50.046875 50.171875 
Q 54.890625 44.34375 54.890625 33.015625 
z
" id="DejaVuSans-104"/>
     <path d="M 34.28125 27.484375 
Q 23.390625 27.484375 19.1875 25 
Q 14.984375 22.515625 14.984375 16.5 
Q 14.984375 11.71875 18.140625 8.90625 
Q 21.296875 6.109375 26.703125 6.109375 
Q 34.1875 6.109375 38.703125 11.40625 
Q 43.21875 16.703125 43.21875 25.484375 
L 43.21875 27.484375 
z
M 52.203125 31.203125 
L 52.203125 0 
L 43.21875 0 
L 43.21875 8.296875 
Q 40.140625 3.328125 35.546875 0.953125 
Q 30.953125 -1.421875 24.3125 -1.421875 
Q 15.921875 -1.421875 10.953125 3.296875 
Q 6 8.015625 6 15.921875 
Q 6 25.140625 12.171875 29.828125 
Q 18.359375 34.515625 30.609375 34.515625 
L 43.21875 34.515625 
L 43.21875 35.40625 
Q 43.21875 41.609375 39.140625 45 
Q 35.0625 48.390625 27.6875 48.390625 
Q 23 48.390625 18.546875 47.265625 
Q 14.109375 46.140625 10.015625 43.890625 
L 10.015625 52.203125 
Q 14.9375 54.109375 19.578125 55.046875 
Q 24.21875 56 28.609375 56 
Q 40.484375 56 46.34375 49.84375 
Q 52.203125 43.703125 52.203125 31.203125 
z
" id="DejaVuSans-97"/>
     <path d="M 44.28125 53.078125 
L 44.28125 44.578125 
Q 40.484375 46.53125 36.375 47.5 
Q 32.28125 48.484375 27.875 48.484375 
Q 21.1875 48.484375 17.84375 46.4375 
Q 14.5 44.390625 14.5 40.28125 
Q 14.5 37.15625 16.890625 35.375 
Q 19.28125 33.59375 26.515625 31.984375 
L 29.59375 31.296875 
Q 39.15625 29.25 43.1875 25.515625 
Q 47.21875 21.78125 47.21875 15.09375 
Q 47.21875 7.46875 41.1875 3.015625 
Q 35.15625 -1.421875 24.609375 -1.421875 
Q 20.21875 -1.421875 15.453125 -0.5625 
Q 10.6875 0.296875 5.421875 2 
L 5.421875 11.28125 
Q 10.40625 8.6875 15.234375 7.390625 
Q 20.0625 6.109375 24.8125 6.109375 
Q 31.15625 6.109375 34.5625 8.28125 
Q 37.984375 10.453125 37.984375 14.40625 
Q 37.984375 18.0625 35.515625 20.015625 
Q 33.0625 21.96875 24.703125 23.78125 
L 21.578125 24.515625 
Q 13.234375 26.265625 9.515625 29.90625 
Q 5.8125 33.546875 5.8125 39.890625 
Q 5.8125 47.609375 11.28125 51.796875 
Q 16.75 56 26.8125 56 
Q 31.78125 56 36.171875 55.265625 
Q 40.578125 54.546875 44.28125 53.078125 
z
" id="DejaVuSans-115"/>
     <path d="M 56.203125 29.59375 
L 56.203125 25.203125 
L 14.890625 25.203125 
Q 15.484375 15.921875 20.484375 11.0625 
Q 25.484375 6.203125 34.421875 6.203125 
Q 39.59375 6.203125 44.453125 7.46875 
Q 49.3125 8.734375 54.109375 11.28125 
L 54.109375 2.78125 
Q 49.265625 0.734375 44.1875 -0.34375 
Q 39.109375 -1.421875 33.890625 -1.421875 
Q 20.796875 -1.421875 13.15625 6.1875 
Q 5.515625 13.8125 5.515625 26.8125 
Q 5.515625 40.234375 12.765625 48.109375 
Q 20.015625 56 32.328125 56 
Q 43.359375 56 49.78125 48.890625 
Q 56.203125 41.796875 56.203125 29.59375 
z
M 47.21875 32.234375 
Q 47.125 39.59375 43.09375 43.984375 
Q 39.0625 48.390625 32.421875 48.390625 
Q 24.90625 48.390625 20.390625 44.140625 
Q 15.875 39.890625 15.1875 32.171875 
z
" id="DejaVuSans-101"/>
     <path id="DejaVuSans-32"/>
     <path d="M 19.671875 64.796875 
L 19.671875 8.109375 
L 31.59375 8.109375 
Q 46.6875 8.109375 53.6875 14.9375 
Q 60.6875 21.78125 60.6875 36.53125 
Q 60.6875 51.171875 53.6875 57.984375 
Q 46.6875 64.796875 31.59375 64.796875 
z
M 9.8125 72.90625 
L 30.078125 72.90625 
Q 51.265625 72.90625 61.171875 64.09375 
Q 71.09375 55.28125 71.09375 36.53125 
Q 71.09375 17.671875 61.125 8.828125 
Q 51.171875 0 30.078125 0 
L 9.8125 0 
z
" id="DejaVuSans-68"/>
     <path d="M 9.421875 54.6875 
L 18.40625 54.6875 
L 18.40625 0 
L 9.421875 0 
z
M 9.421875 75.984375 
L 18.40625 75.984375 
L 18.40625 64.59375 
L 9.421875 64.59375 
z
" id="DejaVuSans-105"/>
     <path d="M 45.40625 27.984375 
Q 45.40625 37.75 41.375 43.109375 
Q 37.359375 48.484375 30.078125 48.484375 
Q 22.859375 48.484375 18.828125 43.109375 
Q 14.796875 37.75 14.796875 27.984375 
Q 14.796875 18.265625 18.828125 12.890625 
Q 22.859375 7.515625 30.078125 7.515625 
Q 37.359375 7.515625 41.375 12.890625 
Q 45.40625 18.265625 45.40625 27.984375 
z
M 54.390625 6.78125 
Q 54.390625 -7.171875 48.1875 -13.984375 
Q 42 -20.796875 29.203125 -20.796875 
Q 24.46875 -20.796875 20.265625 -20.09375 
Q 16.0625 -19.390625 12.109375 -17.921875 
L 12.109375 -9.1875 
Q 16.0625 -11.328125 19.921875 -12.34375 
Q 23.78125 -13.375 27.78125 -13.375 
Q 36.625 -13.375 41.015625 -8.765625 
Q 45.40625 -4.15625 45.40625 5.171875 
L 45.40625 9.625 
Q 42.625 4.78125 38.28125 2.390625 
Q 33.9375 0 27.875 0 
Q 17.828125 0 11.671875 7.65625 
Q 5.515625 15.328125 5.515625 27.984375 
Q 5.515625 40.671875 11.671875 48.328125 
Q 17.828125 56 27.875 56 
Q 33.9375 56 38.28125 53.609375 
Q 42.625 51.21875 45.40625 46.390625 
L 45.40625 54.6875 
L 54.390625 54.6875 
z
" id="DejaVuSans-103"/>
     <path d="M 41.109375 46.296875 
Q 39.59375 47.171875 37.8125 47.578125 
Q 36.03125 48 33.890625 48 
Q 26.265625 48 22.1875 43.046875 
Q 18.109375 38.09375 18.109375 28.8125 
L 18.109375 0 
L 9.078125 0 
L 9.078125 54.6875 
L 18.109375 54.6875 
L 18.109375 46.1875 
Q 20.953125 51.171875 25.484375 53.578125 
Q 30.03125 56 36.53125 56 
Q 37.453125 56 38.578125 55.875 
Q 39.703125 55.765625 41.0625 55.515625 
z
" id="DejaVuSans-114"/>
     <path d="M 52 44.1875 
Q 55.375 50.25 60.0625 53.125 
Q 64.75 56 71.09375 56 
Q 79.640625 56 84.28125 50.015625 
Q 88.921875 44.046875 88.921875 33.015625 
L 88.921875 0 
L 79.890625 0 
L 79.890625 32.71875 
Q 79.890625 40.578125 77.09375 44.375 
Q 74.3125 48.1875 68.609375 48.1875 
Q 61.625 48.1875 57.5625 43.546875 
Q 53.515625 38.921875 53.515625 30.90625 
L 53.515625 0 
L 44.484375 0 
L 44.484375 32.71875 
Q 44.484375 40.625 41.703125 44.40625 
Q 38.921875 48.1875 33.109375 48.1875 
Q 26.21875 48.1875 22.15625 43.53125 
Q 18.109375 38.875 18.109375 30.90625 
L 18.109375 0 
L 9.078125 0 
L 9.078125 54.6875 
L 18.109375 54.6875 
L 18.109375 46.1875 
Q 21.1875 51.21875 25.484375 53.609375 
Q 29.78125 56 35.6875 56 
Q 41.65625 56 45.828125 52.96875 
Q 50 49.953125 52 44.1875 
z
" id="DejaVuSans-109"/>
     <path d="M 30.609375 48.390625 
Q 23.390625 48.390625 19.1875 42.75 
Q 14.984375 37.109375 14.984375 27.296875 
Q 14.984375 17.484375 19.15625 11.84375 
Q 23.34375 6.203125 30.609375 6.203125 
Q 37.796875 6.203125 41.984375 11.859375 
Q 46.1875 17.53125 46.1875 27.296875 
Q 46.1875 37.015625 41.984375 42.703125 
Q 37.796875 48.390625 30.609375 48.390625 
z
M 30.609375 56 
Q 42.328125 56 49.015625 48.375 
Q 55.71875 40.765625 55.71875 27.296875 
Q 55.71875 13.875 49.015625 6.21875 
Q 42.328125 -1.421875 30.609375 -1.421875 
Q 18.84375 -1.421875 12.171875 6.21875 
Q 5.515625 13.875 5.515625 27.296875 
Q 5.515625 40.765625 12.171875 48.375 
Q 18.84375 56 30.609375 56 
z
" id="DejaVuSans-111"/>
     <path d="M 37.109375 75.984375 
L 37.109375 68.5 
L 28.515625 68.5 
Q 23.6875 68.5 21.796875 66.546875 
Q 19.921875 64.59375 19.921875 59.515625 
L 19.921875 54.6875 
L 34.71875 54.6875 
L 34.71875 47.703125 
L 19.921875 47.703125 
L 19.921875 0 
L 10.890625 0 
L 10.890625 47.703125 
L 2.296875 47.703125 
L 2.296875 54.6875 
L 10.890625 54.6875 
L 10.890625 58.5 
Q 10.890625 67.625 15.140625 71.796875 
Q 19.390625 75.984375 28.609375 75.984375 
z
" id="DejaVuSans-102"/>
     <path d="M 54.890625 33.015625 
L 54.890625 0 
L 45.90625 0 
L 45.90625 32.71875 
Q 45.90625 40.484375 42.875 44.328125 
Q 39.84375 48.1875 33.796875 48.1875 
Q 26.515625 48.1875 22.3125 43.546875 
Q 18.109375 38.921875 18.109375 30.90625 
L 18.109375 0 
L 9.078125 0 
L 9.078125 54.6875 
L 18.109375 54.6875 
L 18.109375 46.1875 
Q 21.34375 51.125 25.703125 53.5625 
Q 30.078125 56 35.796875 56 
Q 45.21875 56 50.046875 50.171875 
Q 54.890625 44.34375 54.890625 33.015625 
z
" id="DejaVuSans-110"/>
     <path d="M 9.421875 75.984375 
L 18.40625 75.984375 
L 18.40625 0 
L 9.421875 0 
z
" id="DejaVuSans-108"/>
     <path d="M 4.890625 31.390625 
L 31.203125 31.390625 
L 31.203125 23.390625 
L 4.890625 23.390625 
z
" id="DejaVuSans-45"/>
     <path d="M 53.515625 70.515625 
L 53.515625 60.890625 
Q 47.90625 63.578125 42.921875 64.890625 
Q 37.9375 66.21875 33.296875 66.21875 
Q 25.25 66.21875 20.875 63.09375 
Q 16.5 59.96875 16.5 54.203125 
Q 16.5 49.359375 19.40625 46.890625 
Q 22.3125 44.4375 30.421875 42.921875 
L 36.375 41.703125 
Q 47.40625 39.59375 52.65625 34.296875 
Q 57.90625 29 57.90625 20.125 
Q 57.90625 9.515625 50.796875 4.046875 
Q 43.703125 -1.421875 29.984375 -1.421875 
Q 24.8125 -1.421875 18.96875 -0.25 
Q 13.140625 0.921875 6.890625 3.21875 
L 6.890625 13.375 
Q 12.890625 10.015625 18.65625 8.296875 
Q 24.421875 6.59375 29.984375 6.59375 
Q 38.421875 6.59375 43.015625 9.90625 
Q 47.609375 13.234375 47.609375 19.390625 
Q 47.609375 24.75 44.3125 27.78125 
Q 41.015625 30.8125 33.5 32.328125 
L 27.484375 33.5 
Q 16.453125 35.6875 11.515625 40.375 
Q 6.59375 45.0625 6.59375 53.421875 
Q 6.59375 63.09375 13.40625 68.65625 
Q 20.21875 74.21875 32.171875 74.21875 
Q 37.3125 74.21875 42.625 73.28125 
Q 47.953125 72.359375 53.515625 70.515625 
z
" id="DejaVuSans-83"/>
     <path d="M 18.3125 70.21875 
L 18.3125 54.6875 
L 36.8125 54.6875 
L 36.8125 47.703125 
L 18.3125 47.703125 
L 18.3125 18.015625 
Q 18.3125 11.328125 20.140625 9.421875 
Q 21.96875 7.515625 27.59375 7.515625 
L 36.8125 7.515625 
L 36.8125 0 
L 27.59375 0 
Q 17.1875 0 13.234375 3.875 
Q 9.28125 7.765625 9.28125 18.015625 
L 9.28125 47.703125 
L 2.6875 47.703125 
L 2.6875 54.6875 
L 9.28125 54.6875 
L 9.28125 70.21875 
z
" id="DejaVuSans-116"/>
     <path d="M 18.109375 8.203125 
L 18.109375 -20.796875 
L 9.078125 -20.796875 
L 9.078125 54.6875 
L 18.109375 54.6875 
L 18.109375 46.390625 
Q 20.953125 51.265625 25.265625 53.625 
Q 29.59375 56 35.59375 56 
Q 45.5625 56 51.78125 48.09375 
Q 58.015625 40.1875 58.015625 27.296875 
Q 58.015625 14.40625 51.78125 6.484375 
Q 45.5625 -1.421875 35.59375 -1.421875 
Q 29.59375 -1.421875 25.265625 0.953125 
Q 20.953125 3.328125 18.109375 8.203125 
z
M 48.6875 27.296875 
Q 48.6875 37.203125 44.609375 42.84375 
Q 40.53125 48.484375 33.40625 48.484375 
Q 26.265625 48.484375 22.1875 42.84375 
Q 18.109375 37.203125 18.109375 27.296875 
Q 18.109375 17.390625 22.1875 11.75 
Q 26.265625 6.109375 33.40625 6.109375 
Q 40.53125 6.109375 44.609375 11.75 
Q 48.6875 17.390625 48.6875 27.296875 
z
" id="DejaVuSans-112"/>
     <path d="M 45.40625 46.390625 
L 45.40625 75.984375 
L 54.390625 75.984375 
L 54.390625 0 
L 45.40625 0 
L 45.40625 8.203125 
Q 42.578125 3.328125 38.25 0.953125 
Q 33.9375 -1.421875 27.875 -1.421875 
Q 17.96875 -1.421875 11.734375 6.484375 
Q 5.515625 14.40625 5.515625 27.296875 
Q 5.515625 40.1875 11.734375 48.09375 
Q 17.96875 56 27.875 56 
Q 33.9375 56 38.25 53.625 
Q 42.578125 51.265625 45.40625 46.390625 
z
M 14.796875 27.296875 
Q 14.796875 17.390625 18.875 11.75 
Q 22.953125 6.109375 30.078125 6.109375 
Q 37.203125 6.109375 41.296875 11.75 
Q 45.40625 17.390625 45.40625 27.296875 
Q 45.40625 37.203125 41.296875 42.84375 
Q 37.203125 48.484375 30.078125 48.484375 
Q 22.953125 48.484375 18.875 42.84375 
Q 14.796875 37.203125 14.796875 27.296875 
z
" id="DejaVuSans-100"/>
     <path d="M 48.78125 52.59375 
L 48.78125 44.1875 
Q 44.96875 46.296875 41.140625 47.34375 
Q 37.3125 48.390625 33.40625 48.390625 
Q 24.65625 48.390625 19.8125 42.84375 
Q 14.984375 37.3125 14.984375 27.296875 
Q 14.984375 17.28125 19.8125 11.734375 
Q 24.65625 6.203125 33.40625 6.203125 
Q 37.3125 6.203125 41.140625 7.25 
Q 44.96875 8.296875 48.78125 10.40625 
L 48.78125 2.09375 
Q 45.015625 0.34375 40.984375 -0.53125 
Q 36.96875 -1.421875 32.421875 -1.421875 
Q 20.0625 -1.421875 12.78125 6.34375 
Q 5.515625 14.109375 5.515625 27.296875 
Q 5.515625 40.671875 12.859375 48.328125 
Q 20.21875 56 33.015625 56 
Q 37.15625 56 41.109375 55.140625 
Q 45.0625 54.296875 48.78125 52.59375 
z
" id="DejaVuSans-99"/>
    </defs>
    <g transform="translate(176.921937 16.318125)scale(0.12 -0.12)">
     <use xlink:href="#DejaVuSans-80"/>
     <use x="60.302734" xlink:href="#DejaVuSans-104"/>
     <use x="123.681641" xlink:href="#DejaVuSans-97"/>
     <use x="184.960938" xlink:href="#DejaVuSans-115"/>
     <use x="237.060547" xlink:href="#DejaVuSans-101"/>
     <use x="298.583984" xlink:href="#DejaVuSans-32"/>
     <use x="330.371094" xlink:href="#DejaVuSans-68"/>
     <use x="407.373047" xlink:href="#DejaVuSans-105"/>
     <use x="435.15625" xlink:href="#DejaVuSans-97"/>
     <use x="496.435547" xlink:href="#DejaVuSans-103"/>
     <use x="559.912109" xlink:href="#DejaVuSans-114"/>
     <use x="601.025391" xlink:href="#DejaVuSans-97"/>
     <use x="662.304688" xlink:href="#DejaVuSans-109"/>
     <use x="759.716797" xlink:href="#DejaVuSans-32"/>
     <use x="791.503906" xlink:href="#DejaVuSans-111"/>
     <use x="852.685547" xlink:href="#DejaVuSans-102"/>
     <use x="887.890625" xlink:href="#DejaVuSans-32"/>
     <use x="919.677734" xlink:href="#DejaVuSans-115"/>
     <use x="971.777344" xlink:href="#DejaVuSans-105"/>
     <use x="999.560547" xlink:href="#DejaVuSans-110"/>
     <use x="1062.939453" xlink:href="#DejaVuSans-103"/>
     <use x="1126.416016" xlink:href="#DejaVuSans-108"/>
     <use x="1154.199219" xlink:href="#DejaVuSans-101"/>
     <use x="1215.722656" xlink:href="#DejaVuSans-45"/>
     <use x="1251.806641" xlink:href="#DejaVuSans-83"/>
     <use x="1315.283203" xlink:href="#DejaVuSans-116"/>
     <use x="1354.492188" xlink:href="#DejaVuSans-101"/>
     <use x="1416.015625" xlink:href="#DejaVuSans-112"/>
     <use x="1479.492188" xlink:href="#DejaVuSans-32"/>
     <use x="1511.279297" xlink:href="#DejaVuSans-80"/>
     <use x="1569.832031" xlink:href="#DejaVuSans-114"/>
     <use x="1608.695312" xlink:href="#DejaVuSans-101"/>
     <use x="1670.21875" xlink:href="#DejaVuSans-100"/>
     <use x="1733.695312" xlink:href="#DejaVuSans-105"/>
     <use x="1761.478516" xlink:href="#DejaVuSans-99"/>
     <use x="1816.458984" xlink:href="#DejaVuSans-116"/>
     <use x="1855.667969" xlink:href="#DejaVuSans-105"/>
     <use x="1883.451172" xlink:href="#DejaVuSans-111"/>
     <use x="1944.632812" xlink:href="#DejaVuSans-110"/>
    </g>
   </g>
  </g>
 </g>
 <defs>
  <clipPath id="pe7a1d8c614">
   <rect height="289.9512" width="490.482" x="52.160938" y="22.318125"/>
  </clipPath>
 </defs>
</svg>
